<?xml version="1.0" standalone="no"?>
<!DOCTYPE svg PUBLIC "-//W3C//DTD SVG 20010904//EN"
 "http://www.w3.org/TR/2001/REC-SVG-20010904/DTD/svg10.dtd">
<svg version="1.0" xmlns="http://www.w3.org/2000/svg"
 width="486.000000pt" height="87.000000pt" viewBox="0 0 486.000000 87.000000"
 preserveAspectRatio="xMidYMid meet">

<g transform="translate(0.000000,87.000000) scale(0.100000,-0.100000)"
fill="#000000" stroke="none">
<path d="M1547 803 c-4 -3 -7 -87 -7 -185 l0 -178 50 0 50 0 1 108 1 107 19
-65 c11 -36 25 -83 32 -105 11 -36 15 -40 49 -43 44 -4 46 -1 79 121 13 48 26
87 29 87 3 0 5 -46 5 -102 l0 -103 50 0 50 0 3 172 c3 208 7 203 -139 184 -4
-1 -10 -13 -13 -28 -24 -99 -59 -196 -66 -183 -4 8 -20 61 -35 118 l-28 102
-62 0 c-34 0 -65 -3 -68 -7z"/>
<path d="M2047 803 c-16 -4 -17 -19 -15 -181 l3 -177 153 -3 152 -3 0 41 0 40
-96 0 -95 0 3 33 3 32 73 3 73 3 -3 37 -3 37 -72 3 c-69 3 -73 4 -73 27 0 19
6 24 40 30 22 4 62 5 88 3 l47 -3 3 36 c3 35 2 36 -35 42 -43 8 -218 7 -246 0z"/>
<path d="M2408 804 c-5 -4 -8 -88 -8 -187 l0 -179 118 3 c139 5 174 19 210 89
20 38 23 56 19 113 -8 121 -56 157 -225 164 -59 3 -110 2 -114 -3z m174 -84
c32 -9 39 -16 49 -52 21 -78 -18 -148 -83 -148 l-27 0 -3 100 c-3 115 -2 118
64 100z"/>
<path d="M2895 658 c-3 -18 -5 -76 -3 -128 l3 -95 98 -3 98 -3 -3 28 c-3 27
-6 28 -58 29 l-55 1 -5 99 -5 99 -32 3 c-29 3 -32 0 -38 -30z"/>
<path d="M3147 683 c-4 -3 -7 -62 -7 -130 l0 -124 38 3 37 3 3 119 c3 126 0
136 -44 136 -11 0 -24 -3 -27 -7z"/>
<path d="M3275 678 c-3 -7 -4 -65 -2 -128 l2 -115 37 -3 37 -3 3 68 3 68 45
-67 c42 -63 47 -68 83 -68 l37 0 0 131 0 130 -37 -3 -38 -3 3 -68 c1 -38 -1
-66 -6 -63 -5 3 -27 31 -48 63 -21 32 -43 61 -49 65 -16 12 -65 9 -70 -4z"/>
<path d="M3587 684 c-4 -4 -7 -63 -7 -131 l0 -123 106 0 105 0 -3 28 c-3 26
-6 27 -65 30 -54 3 -63 6 -63 22 0 16 9 19 53 22 48 3 52 5 52 28 0 23 -4 25
-52 28 -45 3 -53 6 -53 23 0 17 7 19 66 19 l65 0 -3 28 -3 27 -95 3 c-53 1
-99 0 -103 -4z"/>
<path d="M524 250 c-52 -21 -69 -88 -34 -133 19 -24 27 -26 85 -25 l65 1 0 43
0 44 -40 0 c-28 0 -40 -4 -40 -14 0 -8 6 -16 13 -19 9 -3 9 -8 1 -16 -15 -16
-43 -3 -50 24 -10 42 31 87 51 55 7 -12 55 -13 55 -2 0 30 -70 57 -106 42z"/>
<path d="M943 253 c-31 -6 -63 -49 -63 -85 0 -17 10 -39 25 -53 52 -53 145
-16 145 57 0 38 -6 48 -40 71 -25 17 -28 18 -67 10z m45 -45 c19 -19 15 -66
-7 -78 -15 -7 -23 -6 -35 6 -28 27 -15 84 19 84 6 0 16 -5 23 -12z"/>
<path d="M1120 247 c-15 -8 -26 -23 -28 -39 -3 -21 3 -30 27 -42 16 -9 37 -16
46 -16 8 0 15 -7 15 -15 0 -17 -35 -21 -45 -5 -10 15 -45 12 -45 -5 0 -34 95
-49 124 -19 33 32 10 74 -46 88 -45 10 -34 29 12 21 40 -7 52 3 27 23 -22 18
-61 23 -87 9z"/>
<path d="M0 170 l0 -80 54 0 c66 0 94 20 102 72 5 30 2 41 -19 62 -22 22 -35
26 -82 26 l-55 0 0 -80z m100 30 c17 -31 2 -70 -26 -70 -21 0 -24 5 -24 38 0
21 3 42 7 45 12 13 32 7 43 -13z"/>
<path d="M200 170 c0 -79 0 -80 25 -80 25 0 25 1 25 80 0 79 0 80 -25 80 -25
0 -25 -1 -25 -80z"/>
<path d="M316 179 c-14 -38 -26 -74 -26 -80 0 -12 37 -12 45 1 3 6 19 10 36
10 16 0 29 -4 29 -10 0 -5 12 -10 26 -10 28 0 29 -1 -8 103 -18 51 -24 57 -48
57 -25 0 -30 -7 -54 -71z m64 -8 c0 -20 -13 -35 -23 -25 -7 8 4 44 14 44 5 0
9 -9 9 -19z"/>
<path d="M680 170 c0 -78 1 -80 24 -80 22 0 25 5 28 43 l3 42 29 -42 c20 -30
36 -43 52 -43 23 0 24 3 24 80 0 78 -1 80 -24 80 -22 0 -25 -5 -28 -42 l-3
-43 -25 42 c-20 34 -31 43 -52 43 l-28 0 0 -80z"/>
<path d="M1262 233 c2 -10 13 -19 26 -21 20 -3 22 -9 22 -63 0 -56 1 -59 25
-59 24 0 25 3 25 60 0 57 1 60 25 60 18 0 25 5 25 20 0 18 -7 20 -76 20 -66 0
-75 -2 -72 -17z"/>
<path d="M1450 170 c0 -79 0 -80 25 -80 25 0 25 1 25 80 0 79 0 80 -25 80 -25
0 -25 -1 -25 -80z"/>
<path d="M1555 227 c-4 -14 -5 -49 -3 -79 3 -49 5 -53 28 -53 20 0 25 5 25 24
0 35 18 36 38 1 14 -22 25 -30 47 -30 l30 0 -31 51 -32 50 29 30 28 29 -31 0
c-17 0 -37 -8 -48 -20 -22 -25 -33 -26 -31 -3 0 11 -7 19 -21 21 -17 2 -24 -3
-28 -21z"/>
<path d="M1776 178 c-14 -40 -26 -76 -26 -80 0 -12 38 -10 45 2 3 6 19 10 36
10 16 0 29 -4 29 -10 0 -5 12 -10 26 -10 17 0 24 5 22 13 -3 6 -15 42 -27 80
-21 61 -25 67 -50 67 -26 0 -31 -6 -55 -72z m64 -14 c0 -14 -5 -24 -11 -22 -6
2 -10 7 -10 11 1 4 1 16 1 28 0 11 5 17 10 14 6 -3 10 -18 10 -31z"/>
<path d="M1980 170 l0 -82 65 4 c77 5 108 28 108 78 0 50 -31 73 -108 78 l-65
4 0 -82z m115 0 c0 -32 -3 -35 -32 -38 -32 -3 -33 -3 -33 38 0 41 1 41 33 38
29 -3 32 -6 32 -38z"/>
<path d="M2204 174 c-19 -41 -34 -77 -34 -80 0 -2 11 -4 25 -4 16 0 25 6 25
15 0 21 78 21 86 0 5 -13 54 -22 54 -10 0 2 -17 38 -37 80 -31 61 -42 75 -61
75 -19 0 -29 -13 -58 -76z m76 -6 c0 -5 -9 -8 -20 -8 -18 0 -19 3 -9 21 9 17
13 19 20 8 5 -8 9 -17 9 -21z"/>
<path d="M2376 193 c41 -96 46 -103 70 -103 19 0 30 14 59 76 19 42 35 78 35
80 0 2 -11 4 -24 4 -19 0 -28 -9 -43 -45 -10 -25 -20 -45 -24 -45 -3 0 -15 20
-27 45 -17 35 -27 45 -46 45 l-25 0 25 -57z"/>
<path d="M2593 236 c-60 -27 -57 -107 3 -132 91 -38 178 52 111 114 -30 29
-74 35 -114 18z m81 -48 c16 -26 -4 -53 -40 -53 -23 0 -30 5 -32 23 -2 13 -1
30 2 38 8 20 56 14 70 -8z"/>
<path d="M2760 170 l0 -80 64 0 c55 0 64 2 62 18 -2 12 -14 18 -39 20 l-37 3
0 60 c0 56 -1 59 -25 59 -25 0 -25 -1 -25 -80z"/>
<path d="M2934 174 c-19 -41 -34 -77 -34 -80 0 -12 49 -2 54 11 3 9 18 15 40
15 21 0 36 -6 40 -15 5 -13 56 -22 56 -10 0 2 -17 38 -37 80 -31 61 -42 75
-61 75 -19 0 -29 -13 -58 -76z m76 -6 c0 -5 -7 -8 -15 -8 -15 0 -20 21 -8 33
7 7 23 -11 23 -25z"/>
<path d="M3130 237 c-49 -25 -35 -70 25 -81 49 -10 45 -30 -4 -23 -36 4 -51
-4 -51 -28 0 -2 18 -6 39 -10 99 -16 143 71 46 89 -47 9 -45 28 2 24 29 -2 39
1 41 13 5 28 -56 37 -98 16z"/>
<path d="M3270 170 c0 -79 0 -80 25 -80 21 0 25 5 25 30 0 27 3 30 30 30 27 0
30 -3 30 -30 0 -25 4 -30 25 -30 25 0 25 1 25 80 0 79 0 80 -25 80 -21 0 -25
-5 -25 -30 0 -27 -3 -30 -30 -30 -27 0 -30 3 -30 30 0 25 -4 30 -25 30 -25 0
-25 -1 -25 -80z"/>
<path d="M3514 236 c-3 -7 -4 -42 -2 -77 3 -58 5 -64 26 -67 20 -3 22 1 23 40
l1 43 12 -40 c17 -55 51 -61 60 -11 9 45 28 47 24 4 -2 -28 1 -34 20 -36 21
-3 22 -1 22 78 l0 81 -32 -3 c-28 -3 -34 -8 -43 -40 -15 -53 -21 -54 -34 -3
-10 41 -14 45 -41 45 -17 0 -33 -6 -36 -14z"/>
<path d="M3766 179 c-31 -84 -32 -89 -6 -89 11 0 20 5 20 10 0 6 16 10 35 10
19 0 35 -4 35 -10 0 -5 12 -10 26 -10 17 0 24 4 21 13 -2 6 -14 42 -27 80 -21
61 -25 67 -50 67 -25 0 -30 -7 -54 -71z m64 -15 c0 -23 -14 -32 -24 -16 -8 13
5 52 15 46 5 -3 9 -16 9 -30z"/>
<path d="M3940 170 c0 -79 0 -80 25 -80 21 0 25 5 25 31 0 26 3 30 23 27 16
-2 23 -11 25 -30 3 -22 8 -28 28 -28 24 0 25 2 18 32 -4 18 -7 51 -6 72 3 49
-7 56 -80 56 l-58 0 0 -80z m95 30 c0 -8 -10 -16 -22 -18 -18 -3 -23 2 -23 18
0 16 5 21 23 18 12 -2 22 -10 22 -18z"/>
<path d="M4130 170 c0 -79 0 -80 25 -80 21 0 25 5 25 30 0 39 20 39 42 0 12
-21 25 -30 43 -30 31 0 31 6 0 52 -31 45 -31 55 -3 85 l21 23 -25 0 c-14 0
-33 -9 -43 -20 -10 -11 -22 -20 -27 -20 -4 0 -8 9 -8 20 0 15 -7 20 -25 20
-25 0 -25 -1 -25 -80z"/>
<path d="M4364 203 c-9 -27 -23 -63 -30 -81 -12 -31 -12 -32 11 -32 13 0 27 5
30 10 3 6 19 10 36 10 16 0 29 -4 29 -10 0 -5 12 -10 26 -10 21 0 25 4 19 18
-3 9 -16 45 -28 80 -20 55 -25 62 -49 62 -22 0 -29 -7 -44 -47z m56 -39 c0
-23 -14 -32 -24 -16 -8 13 5 52 15 46 5 -3 9 -16 9 -30z"/>
<path d="M4520 235 c0 -10 11 -15 35 -15 19 0 35 -3 35 -7 0 -5 -16 -26 -35
-47 -19 -22 -35 -48 -35 -58 0 -16 9 -18 68 -18 38 0 71 3 75 6 14 15 -8 34
-39 34 -19 0 -34 3 -34 6 0 3 16 22 35 42 55 59 49 72 -35 72 -56 0 -70 -3
-70 -15z"/>
<path d="M4710 170 c0 -79 0 -80 25 -80 25 0 25 1 25 80 0 79 0 80 -25 80 -25
0 -25 -1 -25 -80z"/>
</g>
</svg>
