<?xml version="1.0" standalone="no"?>
<!DOCTYPE svg PUBLIC "-//W3C//DTD SVG 20010904//EN"
 "http://www.w3.org/TR/2001/REC-SVG-20010904/DTD/svg10.dtd">
<svg version="1.0" xmlns="http://www.w3.org/2000/svg"
 width="394.000000pt" height="258.000000pt" viewBox="0 0 394.000000 258.000000"
 preserveAspectRatio="xMidYMid meet">

<g transform="translate(0.000000,258.000000) scale(0.100000,-0.100000)"
fill="#000000" stroke="none">
<path d="M1595 2404 c-344 -40 -635 -175 -852 -396 -139 -140 -222 -275 -284
-463 -33 -98 -33 -103 -33 -280 0 -175 1 -183 33 -284 53 -170 129 -302 249
-432 199 -215 467 -357 797 -420 94 -19 426 -18 520 0 393 76 703 269 906 563
l50 73 462 5 c402 4 462 7 462 20 0 13 -58 16 -440 20 -242 3 -431 6 -420 8
44 5 123 52 158 93 83 97 81 236 -5 316 -24 23 -122 72 -148 74 -31 3 47 17
98 18 77 2 96 14 87 59 -16 87 -69 146 -155 175 l-44 15 -17 79 c-41 192 -157
357 -327 467 -151 98 -283 135 -512 143 -321 11 -532 -61 -720 -247 -94 -92
-147 -175 -189 -295 -22 -63 -25 -86 -25 -230 -1 -138 2 -169 21 -227 89 -270
282 -454 559 -532 285 -80 624 -41 848 97 35 22 41 23 75 11 20 -7 45 -14 56
-15 11 -1 -2 -5 -29 -10 -27 -4 -56 -15 -65 -23 -14 -15 -5 -16 97 -16 62 0
112 -4 112 -8 0 -11 -114 -84 -195 -124 -86 -43 -167 -71 -287 -100 -138 -33
-400 -33 -548 0 -375 84 -658 301 -792 607 -81 184 -93 369 -38 573 79 289
327 539 660 663 l75 28 -85 -1 c-47 -1 -98 -3 -115 -4z m648 -229 c167 -35
280 -178 324 -410 20 -105 23 -440 5 -548 -15 -85 -67 -227 -102 -279 -39 -55
-102 -110 -160 -137 -50 -23 -67 -26 -175 -26 -117 0 -121 1 -183 34 -78 43
-131 99 -177 192 -119 235 -122 698 -6 944 33 71 107 156 165 190 88 52 191
65 309 40z m854 -659 c28 -14 60 -37 72 -52 19 -24 47 -102 39 -109 -2 -2 -44
-6 -94 -10 -87 -7 -92 -6 -98 13 -4 12 -21 33 -39 48 -26 22 -38 25 -74 21
-54 -6 -73 -21 -73 -59 0 -35 22 -46 152 -77 179 -42 258 -114 258 -231 -1
-35 -36 -109 -68 -143 -58 -62 -179 -94 -302 -81 -130 14 -189 49 -231 138
-39 81 -38 96 5 96 18 0 60 3 93 6 l61 7 20 -46 c32 -72 113 -98 179 -58 36
22 45 54 26 93 -13 27 -17 29 -211 88 -101 32 -162 86 -169 152 -8 68 4 114
40 155 55 63 126 84 268 79 78 -3 105 -9 146 -30z m-107 -446 c11 -11 20 -24
20 -30 0 -5 -9 -19 -20 -30 -22 -22 -94 -28 -105 -9 -10 15 45 89 66 89 11 0
28 -9 39 -20z"/>
<path d="M2020 1650 l0 -110 -120 0 -120 0 0 -105 0 -105 120 0 120 0 0 -105
c0 -77 3 -105 13 -106 6 0 58 -1 114 -2 l102 -2 3 105 3 105 120 5 120 5 3
103 3 102 -121 0 c-88 0 -120 3 -122 13 0 6 -2 17 -3 22 -2 6 -3 49 -4 98 l-1
87 -115 0 -115 0 0 -110z"/>
<path d="M3325 1547 c-3 -6 -4 -172 -3 -367 l3 -355 104 -3 c64 -2 108 1 116
8 10 8 14 54 17 171 3 145 5 162 22 175 25 18 41 18 60 -2 13 -13 16 -43 16
-169 0 -84 3 -160 6 -169 5 -13 24 -16 108 -16 66 0 106 4 114 12 16 16 17
375 0 430 -16 55 -74 105 -133 114 -58 8 -131 -1 -161 -21 -13 -8 -26 -15 -29
-15 -3 0 -5 42 -5 94 0 52 -3 101 -6 110 -5 13 -25 16 -115 16 -79 0 -111 -4
-114 -13z m203 -139 l3 -128 52 36 c50 35 55 36 129 32 65 -3 81 -7 104 -28
49 -45 54 -73 54 -280 l0 -190 -90 0 -90 0 0 154 c0 140 -2 156 -21 180 -14
18 -30 26 -50 26 -75 0 -89 -35 -89 -222 l0 -139 -92 3 -93 3 -3 320 c-1 176
0 330 3 343 5 22 9 23 93 20 l87 -3 3 -127z"/>
</g>
</svg>
