<?xml version="1.0" standalone="no"?>
<!DOCTYPE svg PUBLIC "-//W3C//DTD SVG 20010904//EN"
 "http://www.w3.org/TR/2001/REC-SVG-20010904/DTD/svg10.dtd">
<svg version="1.0" xmlns="http://www.w3.org/2000/svg"
 width="427.000000pt" height="427.000000pt" viewBox="0 0 427.000000 427.000000"
 preserveAspectRatio="xMidYMid meet">

<g transform="translate(0.000000,427.000000) scale(0.100000,-0.100000)"
fill="#000000" stroke="none">
<path d="M210 3875 l0 -195 195 0 195 0 -2 193 -3 192 -192 3 -193 2 0 -195z
m330 -5 l0 -140 -140 0 -140 0 0 140 0 140 140 0 140 0 0 -140z"/>
<path d="M320 3870 l0 -80 80 0 80 0 0 80 0 80 -80 0 -80 0 0 -80z"/>
<path d="M657 4064 c-4 -4 -7 -43 -7 -86 l0 -78 30 0 31 0 -3 83 c-3 74 -5 82
-23 85 -12 2 -24 0 -28 -4z"/>
<path d="M770 4016 c0 -53 1 -56 25 -56 20 0 25 5 25 25 0 21 5 25 31 25 27 0
30 3 27 28 -3 25 -7 27 -55 30 l-53 3 0 -55z"/>
<path d="M937 4064 c-4 -4 -7 -43 -7 -86 l0 -78 54 0 c52 0 55 1 58 28 3 26 6
27 61 30 53 3 57 5 57 27 0 25 -2 25 -84 25 l-85 0 -3 28 c-3 26 -34 43 -51
26z"/>
<path d="M1270 4040 c0 -27 -3 -30 -30 -30 -25 0 -30 -4 -30 -24 0 -19 6 -25
28 -28 21 -2 28 -9 30 -30 3 -25 0 -28 -28 -28 -28 0 -31 -3 -28 -27 2 -22 9
-29 31 -31 24 -3 27 0 27 27 0 26 4 31 25 31 25 0 25 1 25 85 0 84 0 85 -25
85 -21 0 -25 -5 -25 -30z"/>
<path d="M1380 4041 c0 -28 3 -31 30 -31 25 0 30 -4 30 -24 0 -23 4 -25 53
-28 l52 -3 3 -57 3 -58 -56 0 c-52 0 -55 -1 -55 -25 0 -24 3 -25 55 -25 52 0
55 1 55 25 0 20 5 25 25 25 25 0 25 1 25 85 0 83 0 85 -24 85 -19 0 -25 6 -28
28 -2 21 -8 27 -28 27 -20 0 -26 -6 -28 -27 -3 -22 -9 -28 -27 -28 -18 0 -24
6 -27 28 -2 21 -9 28 -30 30 -25 3 -28 0 -28 -27z"/>
<path d="M1830 4016 c0 -53 1 -56 25 -56 20 0 25 5 25 25 0 21 5 25 31 25 27
0 30 3 27 28 -3 25 -7 27 -55 30 l-53 3 0 -55z"/>
<path d="M2057 4064 c-4 -4 -7 -43 -7 -86 l0 -78 -55 0 c-52 0 -55 1 -55 25 0
21 -5 25 -30 25 -25 0 -30 -4 -30 -25 0 -20 -5 -25 -25 -25 -20 0 -25 5 -25
25 0 21 -5 25 -30 25 -30 0 -30 -1 -30 -55 l0 -55 55 0 c52 0 55 -1 55 -25 0
-21 5 -25 30 -25 27 0 30 -3 30 -30 0 -27 -3 -30 -30 -30 -25 0 -30 -4 -30
-25 0 -21 5 -25 30 -25 25 0 30 4 30 25 0 21 5 25 30 25 l31 0 -3 -82 -3 -83
-57 -3 -58 -3 0 56 c0 52 -1 55 -25 55 -20 0 -25 -5 -25 -25 0 -24 -3 -25 -60
-25 l-60 0 0 140 0 140 -25 0 c-24 0 -25 -3 -25 -54 0 -52 -1 -55 -27 -58 -22
-2 -29 -9 -31 -30 -3 -22 -9 -28 -28 -28 -19 0 -24 -5 -24 -25 0 -20 5 -25 25
-25 20 0 25 5 25 25 0 21 5 25 30 25 27 0 30 -3 30 -30 0 -27 -3 -30 -31 -30
l-30 0 3 -52 3 -53 113 -3 c112 -3 112 -3 112 -27 0 -24 -3 -25 -55 -25 -54 0
-55 0 -55 -30 0 -25 4 -30 25 -30 21 0 25 -5 25 -30 0 -25 -4 -30 -25 -30 -20
0 -25 -5 -25 -25 0 -21 -5 -25 -30 -25 -27 0 -30 -3 -30 -31 0 -27 -3 -30 -27
-27 -22 2 -29 9 -31 31 -3 21 -9 27 -28 27 -24 0 -24 -2 -24 -85 l0 -85 -55 0
-55 0 0 -55 c0 -55 0 -55 -31 -55 -27 0 -30 -3 -27 -27 2 -22 8 -28 28 -28 20
0 26 6 28 28 3 21 9 27 28 27 20 0 24 5 24 30 0 30 1 30 55 30 52 0 55 1 55
25 0 21 5 25 30 25 27 0 30 3 30 30 l0 30 85 0 85 0 0 -30 c0 -27 -3 -30 -30
-30 -30 0 -30 -1 -30 -55 0 -54 0 -55 30 -55 30 0 30 -1 30 -55 l0 -55 -55 0
c-54 0 -55 0 -55 -30 0 -30 1 -30 55 -30 52 0 55 -1 55 -25 0 -20 5 -25 25
-25 20 0 25 5 25 25 0 21 5 25 30 25 25 0 30 -4 30 -24 0 -19 -6 -25 -27 -28
-22 -2 -29 -9 -31 -30 -3 -25 0 -28 27 -28 26 0 31 -4 31 -25 0 -24 3 -25 55
-25 52 0 55 1 55 25 0 24 3 25 55 25 55 0 55 0 55 31 l0 30 -52 -3 c-49 -3
-53 -5 -56 -30 -3 -27 -6 -28 -58 -28 -53 0 -54 0 -54 30 0 25 4 30 25 30 20
0 25 5 25 25 0 20 -5 25 -25 25 -21 0 -25 5 -25 30 0 25 4 30 25 30 24 0 25 3
25 55 0 52 -1 55 -25 55 -21 0 -25 5 -25 30 0 25 4 30 25 30 20 0 25 5 25 25
0 24 -3 25 -55 25 l-55 0 0 55 0 55 -55 0 c-54 0 -55 0 -55 30 0 27 3 30 30
30 27 0 30 3 30 30 0 25 4 30 25 30 21 0 25 -5 25 -30 0 -27 3 -30 30 -30 30
0 30 -1 30 -54 0 -52 1 -55 28 -58 21 -2 28 -9 30 -30 3 -22 9 -28 28 -28 20
0 24 5 24 30 0 27 3 30 30 30 30 0 30 -1 30 -55 0 -52 1 -55 25 -55 l25 0 0
110 0 110 30 0 30 0 0 -85 c0 -84 0 -85 25 -85 24 0 25 3 25 55 0 54 0 55 30
55 30 0 30 1 30 55 0 52 -1 55 -25 55 -20 0 -25 -5 -25 -25 0 -21 -5 -25 -30
-25 -27 0 -30 3 -30 30 0 25 4 30 25 30 20 0 25 5 25 25 0 20 -5 25 -25 25
-24 0 -25 3 -25 55 0 54 0 55 30 55 30 0 30 -1 30 -55 0 -52 1 -55 25 -55 20
0 25 -5 25 -24 0 -19 6 -25 28 -28 27 -3 27 -4 30 -85 l3 -83 -31 0 c-27 0
-30 -3 -30 -30 0 -25 -4 -30 -25 -30 -20 0 -25 -5 -25 -25 0 -20 5 -25 25 -25
20 0 25 5 25 25 0 21 5 25 31 25 27 0 30 -3 27 -27 -2 -22 -9 -29 -30 -31 -22
-3 -28 -9 -28 -28 0 -20 5 -24 31 -24 27 0 30 -3 27 -27 -3 -26 -7 -28 -55
-31 l-53 -3 0 -80 0 -79 -30 0 c-30 0 -30 -1 -30 -55 0 -52 1 -55 25 -55 20 0
25 5 25 25 0 21 5 25 30 25 30 0 30 1 30 55 l0 55 55 0 c52 0 55 -1 55 -25 0
-20 -5 -25 -25 -25 -24 0 -25 -3 -25 -55 l0 -55 80 0 c79 0 80 0 80 25 0 20
-5 25 -25 25 -21 0 -25 5 -25 30 0 25 4 30 25 30 24 0 25 3 25 55 0 54 0 55
30 55 l30 0 0 -85 c0 -84 0 -85 25 -85 24 0 25 3 25 55 0 54 0 55 30 55 25 0
30 -4 30 -25 0 -21 5 -25 30 -25 25 0 30 4 30 25 0 21 -5 25 -30 25 -27 0 -30
3 -30 30 0 27 3 30 30 30 25 0 30 4 30 25 0 21 -5 25 -30 25 -27 0 -30 3 -30
30 0 27 3 30 30 30 25 0 30 4 30 24 0 19 -6 25 -27 28 -22 2 -29 9 -31 31 -3
24 0 27 27 27 28 0 31 3 31 30 l0 30 140 0 140 0 0 -55 c0 -52 1 -55 25 -55
20 0 25 5 25 25 0 21 5 25 30 25 30 0 30 -1 30 -55 l0 -55 55 0 c54 0 55 0 55
30 0 27 3 30 30 30 25 0 30 4 30 25 0 20 5 25 25 25 21 0 25 5 25 30 0 27 3
30 30 30 27 0 30 -3 30 -30 l0 -31 83 3 c81 3 82 3 85 31 3 27 4 27 83 27 l79
0 0 55 c0 52 -1 55 -25 55 -21 0 -25 -5 -25 -30 0 -30 -1 -30 -55 -30 -54 0
-55 0 -55 30 0 25 4 30 25 30 20 0 25 5 25 25 0 20 -5 25 -25 25 -21 0 -25 5
-25 30 0 30 0 30 56 30 54 0 55 0 52 28 -3 25 -7 27 -55 30 -49 3 -53 5 -53
28 0 23 2 24 80 24 l80 0 0 30 0 30 -80 0 -80 0 0 55 c0 54 0 55 -30 55 -27 0
-30 -3 -30 -30 0 -25 -4 -30 -25 -30 -20 0 -25 -5 -25 -25 0 -24 3 -25 55 -25
54 0 55 0 55 -30 0 -27 -3 -30 -30 -30 -25 0 -30 -4 -30 -25 0 -24 -3 -25 -55
-25 -52 0 -55 1 -55 25 0 20 5 25 25 25 21 0 25 5 25 30 0 25 -4 30 -25 30
-20 0 -25 5 -25 24 0 19 -6 25 -27 28 -27 3 -28 6 -31 61 l-3 57 -54 0 c-52 0
-55 2 -55 24 0 19 -6 25 -27 28 -22 2 -29 9 -31 31 -3 21 -9 27 -28 27 -20 0
-24 5 -24 30 0 25 4 30 25 30 20 0 25 5 25 25 0 24 -3 25 -55 25 -54 0 -55 0
-55 -30 0 -25 -4 -30 -25 -30 -21 0 -25 5 -25 30 l0 30 -60 0 -60 0 0 31 0 30
-52 -3 c-49 -3 -53 -5 -56 -30 -3 -22 -9 -28 -27 -28 -18 0 -24 6 -27 28 -2
21 -8 27 -28 27 -20 0 -26 -6 -28 -27 -3 -22 -9 -28 -27 -28 -18 0 -24 -6 -27
-27 -2 -22 -9 -29 -30 -31 -22 -3 -28 -9 -28 -28 0 -20 -5 -24 -31 -24 -27 0
-30 3 -27 28 2 21 9 28 31 30 26 3 27 6 27 58 l0 55 -82 -3 -83 -3 -3 -82 -3
-83 31 0 c27 0 30 -3 30 -30 0 -30 -1 -30 -55 -30 l-55 0 0 55 c0 54 0 55 -30
55 -25 0 -30 -4 -30 -25 0 -21 -5 -25 -31 -25 -27 0 -30 3 -27 28 2 21 9 28
31 30 26 3 27 6 27 58 0 51 -1 54 -25 54 -21 0 -25 -5 -25 -30 0 -27 -3 -30
-29 -30 -25 0 -30 4 -33 28 -3 26 -4 27 -78 30 -42 1 -79 0 -83 -4z m163 -84
c0 -27 -3 -30 -30 -30 -25 0 -30 -4 -30 -25 0 -21 5 -25 30 -25 27 0 30 -3 30
-30 0 -27 -3 -30 -30 -30 -27 0 -30 3 -30 30 0 25 -4 30 -25 30 -24 0 -25 3
-25 55 l0 55 55 0 c54 0 55 0 55 -30z m560 5 c0 -20 5 -25 25 -25 21 0 25 -5
25 -30 0 -27 3 -30 30 -30 27 0 30 3 30 30 0 30 1 30 55 30 54 0 55 0 55 -30
0 -27 3 -30 30 -30 27 0 30 -3 30 -30 0 -25 4 -30 25 -30 21 0 25 5 25 30 0
27 3 30 30 30 30 0 30 -1 30 -55 l0 -55 55 0 c54 0 55 0 55 -30 0 -27 3 -30
31 -30 27 0 30 -3 27 -27 -2 -22 -9 -29 -30 -31 -25 -3 -28 0 -28 27 0 26 -4
31 -25 31 -24 0 -25 -3 -25 -55 0 -54 0 -55 -30 -55 -27 0 -30 -3 -30 -30 0
-27 3 -30 30 -30 25 0 30 -4 30 -25 0 -20 5 -25 25 -25 24 0 25 3 25 55 l0 55
55 0 55 0 0 -55 c0 -54 0 -55 30 -55 30 0 30 -1 30 -55 l0 -55 55 0 c54 0 55
0 55 -30 0 -25 -4 -30 -24 -30 -19 0 -25 -6 -28 -27 -2 -22 -9 -29 -30 -31
-25 -3 -28 0 -28 27 l0 31 -85 0 -85 0 0 55 c0 52 -1 55 -25 55 -24 0 -25 -3
-25 -55 0 -54 0 -55 -30 -55 -30 0 -30 -1 -30 -55 0 -52 1 -55 25 -55 20 0 25
5 25 25 0 21 5 25 30 25 25 0 30 -4 30 -25 0 -20 -5 -25 -24 -25 -19 0 -25 -6
-28 -27 -2 -22 -9 -29 -30 -31 -25 -3 -28 0 -28 27 0 28 -3 31 -30 31 -25 0
-30 4 -30 25 0 24 -2 24 -82 27 l-83 3 -3 53 -3 52 -55 0 c-51 0 -54 -1 -54
-25 0 -21 5 -25 30 -25 27 0 30 -3 30 -30 l0 -30 -85 0 -85 0 0 -55 c0 -52 -1
-55 -25 -55 -24 0 -25 -3 -25 -55 0 -54 0 -55 -30 -55 -27 0 -30 -3 -30 -31 0
-27 -3 -30 -27 -27 -22 2 -29 9 -31 31 -3 24 0 27 27 27 31 0 31 0 31 55 0 52
1 55 25 55 24 0 25 3 25 55 l0 55 -55 0 -55 0 0 -85 c0 -84 0 -85 -25 -85
l-25 0 0 115 0 115 -30 0 c-27 0 -30 3 -30 30 0 27 3 30 30 30 25 0 30 4 30
25 0 25 -1 25 -85 25 l-85 0 0 85 0 85 30 0 c30 0 30 -1 30 -55 0 -52 1 -55
25 -55 20 0 25 5 25 25 0 21 5 25 30 25 30 0 30 -1 30 -55 l0 -55 55 0 c54 0
55 0 55 30 l0 30 85 0 85 0 0 55 c0 54 0 55 -30 55 -27 0 -30 -3 -30 -30 l0
-30 -85 0 -85 0 0 30 c0 25 -4 30 -25 30 -24 0 -25 3 -25 55 0 52 1 55 25 55
20 0 25 -5 25 -25 0 -21 5 -25 30 -25 25 0 30 4 30 25 0 21 5 25 30 25 25 0
30 -4 30 -25 0 -20 5 -25 25 -25 20 0 25 5 25 25 0 21 5 25 30 25 25 0 30 -4
30 -25 0 -20 5 -25 25 -25 24 0 25 3 25 55 0 52 -1 55 -25 55 -20 0 -25 5 -25
25 0 24 -3 25 -55 25 -52 0 -55 -1 -55 -25 0 -21 -5 -25 -30 -25 -30 0 -30 1
-30 55 l0 55 85 0 c84 0 85 0 85 25 0 21 -5 25 -30 25 -27 0 -30 3 -30 30 0
27 3 30 30 30 25 0 30 -4 30 -25z m-840 -115 c0 -27 -3 -30 -30 -30 -27 0 -30
3 -30 30 0 27 3 30 30 30 27 0 30 -3 30 -30z m280 -165 l0 -85 -85 0 -85 0 0
85 0 85 85 0 85 0 0 -85z m220 25 c0 -57 -1 -60 -25 -60 -21 0 -25 5 -25 30 0
27 -3 30 -30 30 -27 0 -30 -3 -30 -31 0 -27 -3 -30 -27 -27 -25 3 -28 7 -31
47 -5 69 -3 71 88 71 l80 0 0 -60z m-280 -195 c0 -24 -3 -25 -55 -25 -52 0
-55 1 -55 25 0 24 3 25 55 25 52 0 55 -1 55 -25z m-220 -55 c0 -30 -1 -30 -55
-30 -54 0 -55 0 -55 30 0 30 1 30 55 30 54 0 55 0 55 -30z m170 -55 c0 -20 5
-25 25 -25 21 0 25 -5 25 -30 0 -25 -4 -30 -25 -30 -21 0 -25 -5 -25 -30 l0
-31 -57 3 c-55 3 -58 4 -61 31 -3 27 -3 27 57 27 58 0 61 1 61 25 0 22 -4 24
-57 27 -55 3 -58 4 -61 31 -3 27 -3 27 57 27 58 0 61 -1 61 -25z m-230 -335
c0 -27 3 -30 30 -30 27 0 30 -3 30 -31 0 -27 -3 -30 -27 -27 -22 2 -29 9 -31
31 -3 21 -9 27 -28 27 -20 0 -24 5 -24 30 0 25 4 30 25 30 21 0 25 -5 25 -30z
m840 -115 c0 -21 -5 -25 -30 -25 -25 0 -30 4 -30 25 0 21 5 25 30 25 25 0 30
-4 30 -25z"/>
<path d="M2890 3870 c0 -25 4 -30 25 -30 21 0 25 5 25 30 0 25 -4 30 -25 30
-21 0 -25 -5 -25 -30z"/>
<path d="M2890 3735 c0 -52 1 -55 25 -55 20 0 25 5 25 25 0 21 5 25 30 25 25
0 30 -4 30 -25 0 -21 5 -25 30 -25 25 0 30 4 30 25 0 20 5 25 25 25 24 0 25
-3 25 -55 0 -54 0 -55 30 -55 30 0 30 1 30 55 0 54 0 55 -30 55 -27 0 -30 3
-30 30 l0 30 -110 0 -110 0 0 -55z"/>
<path d="M2610 3645 c0 -20 5 -25 25 -25 20 0 25 5 25 25 0 20 -5 25 -25 25
-20 0 -25 -5 -25 -25z"/>
<path d="M2830 3645 c0 -21 5 -25 30 -25 27 0 30 -3 30 -30 0 -27 -3 -30 -30
-30 -25 0 -30 -4 -30 -25 0 -20 -5 -25 -25 -25 -21 0 -25 -5 -25 -30 0 -30 -1
-30 -54 -30 -52 0 -55 -1 -58 -27 -3 -27 -6 -28 -60 -31 -54 -3 -58 -5 -58
-27 0 -24 3 -25 60 -25 l60 0 0 -30 c0 -25 4 -30 25 -30 21 0 25 5 25 30 0 27
3 30 30 30 27 0 30 3 30 30 0 25 4 30 25 30 24 0 25 3 25 55 0 54 0 55 30 55
27 0 30 -3 30 -30 0 -27 3 -30 30 -30 25 0 30 -4 30 -25 0 -20 5 -25 25 -25
20 0 25 5 25 25 0 21 5 25 30 25 30 0 30 -1 30 -55 0 -52 2 -55 24 -55 19 0
25 6 28 28 2 21 9 28 31 30 21 3 27 9 27 28 0 19 5 24 25 24 21 0 25 5 25 30
0 25 -4 30 -25 30 -20 0 -25 5 -25 25 0 21 -5 25 -30 25 -25 0 -30 -4 -30 -25
0 -21 5 -25 30 -25 27 0 30 -3 30 -30 0 -30 -1 -30 -54 -30 -52 0 -55 1 -58
28 -3 26 -6 27 -60 30 -54 3 -58 5 -58 27 0 21 5 25 30 25 27 0 30 3 30 30 0
30 -1 30 -55 30 -52 0 -55 1 -55 25 0 21 -5 25 -30 25 -25 0 -30 -4 -30 -25z"/>
<path d="M3340 3425 c0 -20 5 -25 25 -25 20 0 25 5 25 25 0 20 -5 25 -25 25
-20 0 -25 -5 -25 -25z"/>
<path d="M2110 3705 c0 -20 5 -25 25 -25 20 0 25 5 25 25 0 20 -5 25 -25 25
-20 0 -25 -5 -25 -25z"/>
<path d="M3230 4040 c0 -25 4 -30 25 -30 21 0 25 -5 25 -30 0 -25 -4 -30 -25
-30 -20 0 -25 -5 -25 -25 0 -25 1 -25 79 -25 79 0 80 0 83 -27 2 -22 9 -29 31
-31 27 -3 27 -4 27 -83 0 -78 0 -79 25 -79 25 0 25 1 25 80 0 79 0 80 -25 80
-21 0 -25 5 -25 30 0 25 4 30 25 30 20 0 25 5 25 25 0 20 -5 25 -25 25 -21 0
-25 5 -25 30 l0 30 86 0 85 0 -3 28 c-3 27 -4 27 -85 30 l-83 3 0 -31 0 -30
-85 0 -85 0 0 30 c0 25 -4 30 -25 30 -21 0 -25 -5 -25 -30z"/>
<path d="M3677 4063 c-4 -3 -7 -91 -7 -195 l0 -188 195 0 195 0 0 195 0 195
-188 0 c-104 0 -192 -3 -195 -7z m333 -193 l0 -140 -140 0 -140 0 0 140 0 140
140 0 140 0 0 -140z"/>
<path d="M3780 3870 l0 -80 85 0 85 0 0 80 0 80 -85 0 -85 0 0 -80z"/>
<path d="M1660 3985 c0 -24 3 -25 55 -25 52 0 55 1 55 25 0 24 -3 25 -55 25
-52 0 -55 -1 -55 -25z"/>
<path d="M1380 3925 c0 -21 5 -25 30 -25 25 0 30 4 30 25 0 21 -5 25 -30 25
-25 0 -30 -4 -30 -25z"/>
<path d="M770 3870 c0 -25 4 -30 25 -30 21 0 25 5 25 30 0 25 -4 30 -25 30
-21 0 -25 -5 -25 -30z"/>
<path d="M1050 3870 l0 -31 53 3 c48 3 52 5 52 28 0 23 -4 25 -52 28 l-53 3 0
-31z"/>
<path d="M3560 3846 c0 -56 0 -56 31 -56 l30 0 -3 53 c-3 48 -5 52 -30 55 -28
3 -28 2 -28 -52z"/>
<path d="M710 3816 c0 -19 -6 -25 -27 -28 l-28 -3 -3 -112 c-3 -113 -3 -113
-27 -113 -21 0 -25 5 -25 30 0 27 -3 30 -30 30 -27 0 -30 -3 -30 -30 0 -25 -4
-30 -25 -30 -20 0 -25 -5 -25 -25 0 -20 5 -25 25 -25 21 0 25 -5 25 -30 0 -25
-4 -30 -24 -30 -19 0 -25 -6 -28 -27 -3 -27 -6 -28 -60 -31 l-58 -3 0 -54 c0
-52 -1 -55 -25 -55 -20 0 -25 -5 -25 -25 0 -21 -5 -25 -30 -25 -27 0 -30 -3
-30 -30 0 -25 -4 -30 -25 -30 -24 0 -25 -3 -25 -55 0 -52 1 -55 25 -55 24 0
25 3 25 55 0 54 0 55 30 55 l30 0 0 -85 0 -85 -30 0 c-25 0 -30 -4 -30 -25 0
-20 -5 -25 -25 -25 -24 0 -25 -3 -25 -55 0 -52 1 -55 25 -55 21 0 25 -5 25
-30 0 -25 -4 -30 -25 -30 -20 0 -25 -5 -25 -25 0 -20 5 -25 25 -25 24 0 25 -3
25 -60 0 -57 -1 -60 -25 -60 -20 0 -25 -5 -25 -25 0 -20 5 -25 25 -25 24 0 25
-3 25 -54 0 -52 1 -55 27 -58 22 -2 29 -9 31 -30 3 -25 0 -28 -27 -28 -26 0
-31 4 -31 25 0 20 -5 25 -25 25 -20 0 -25 -5 -25 -25 0 -20 5 -25 25 -25 25 0
25 -1 25 -85 0 -84 0 -85 -25 -85 -24 0 -25 -3 -25 -55 0 -52 2 -55 24 -55 19
0 25 -6 28 -27 2 -22 9 -29 31 -31 26 -3 27 -6 27 -58 0 -51 1 -54 25 -54 20
0 25 -5 25 -25 0 -20 -5 -25 -25 -25 -21 0 -25 -5 -25 -30 0 -25 4 -30 25 -30
21 0 25 5 25 30 0 27 3 30 30 30 30 0 30 -1 30 -54 0 -52 1 -55 28 -58 21 -2
28 -9 30 -30 3 -22 9 -28 28 -28 20 0 24 -5 24 -30 0 -27 3 -30 30 -30 25 0
30 -4 30 -25 0 -24 -3 -25 -60 -25 -57 0 -60 1 -60 25 0 20 -5 25 -25 25 -21
0 -25 5 -25 31 0 27 -3 30 -27 27 -22 -2 -29 -9 -31 -30 -3 -22 -9 -28 -28
-28 -22 0 -24 3 -24 55 0 54 0 55 -30 55 -30 0 -30 -1 -30 -55 0 -52 -1 -55
-25 -55 -20 0 -25 -5 -25 -25 0 -20 5 -25 25 -25 20 0 25 5 25 25 0 21 5 25
30 25 25 0 30 -4 30 -24 0 -19 -6 -25 -27 -28 l-28 -3 -3 -112 c-3 -113 -3
-113 -27 -113 l-25 0 0 -140 0 -140 25 0 c24 0 25 -3 25 -55 0 -54 0 -55 30
-55 25 0 30 -4 30 -25 0 -20 5 -25 25 -25 22 0 24 -4 27 -58 3 -54 4 -57 31
-60 21 -3 27 -9 27 -28 0 -24 2 -24 85 -24 84 0 85 0 85 25 0 20 5 25 25 25
24 0 25 3 25 55 l0 55 -55 0 c-52 0 -55 -1 -55 -25 0 -24 -3 -25 -55 -25 l-55
0 0 55 0 55 -55 0 c-54 0 -55 0 -55 30 l0 30 85 0 85 0 0 -55 c0 -52 1 -55 25
-55 20 0 25 5 25 25 0 21 5 25 31 25 27 0 30 3 27 28 -2 21 -9 28 -30 30 -22
3 -28 9 -28 27 0 18 6 24 28 27 21 2 28 9 30 31 3 24 0 27 -27 27 -26 0 -31 4
-31 24 0 19 -6 25 -27 28 -22 2 -29 9 -31 31 -3 21 -9 27 -28 27 -20 0 -24 -5
-24 -30 0 -27 -3 -30 -30 -30 -25 0 -30 -4 -30 -25 0 -20 -5 -25 -25 -25 -21
0 -25 -5 -25 -30 0 -27 -3 -30 -30 -30 l-30 0 0 60 0 60 30 0 c25 0 30 4 30
25 0 20 5 25 25 25 24 0 25 3 25 55 0 52 -1 55 -25 55 -21 0 -25 5 -25 30 0
25 4 30 24 30 19 0 25 6 28 28 2 21 9 28 31 30 21 3 27 9 27 28 0 24 2 24 86
24 l85 0 -3 -27 c-3 -28 -4 -28 -85 -31 -80 -3 -83 -4 -83 -27 0 -18 -6 -24
-27 -27 -22 -2 -28 -8 -28 -28 0 -20 6 -26 28 -28 21 -3 27 -9 27 -28 0 -19 5
-24 25 -24 20 0 25 5 25 25 0 20 -5 25 -25 25 -21 0 -25 5 -25 30 l0 30 85 0
85 0 0 -30 c0 -27 -3 -30 -30 -30 -25 0 -30 -4 -30 -25 0 -21 5 -25 30 -25 27
0 30 -3 30 -30 0 -27 -3 -30 -30 -30 -25 0 -30 -4 -30 -25 0 -21 5 -25 30 -25
25 0 30 4 30 25 0 20 5 25 25 25 25 0 25 1 25 85 l0 85 30 0 c25 0 30 4 30 24
0 19 -6 25 -27 28 -27 3 -28 6 -31 60 l-3 58 31 0 c30 0 30 0 30 -55 0 -52 1
-55 24 -55 23 0 25 4 28 53 3 48 5 52 31 55 26 3 27 6 27 58 0 53 0 54 30 54
l30 0 0 -85 0 -85 -30 0 c-27 0 -30 -3 -30 -30 0 -25 -4 -30 -25 -30 l-25 0 0
-110 0 -110 25 0 c21 0 25 5 25 30 0 27 3 30 30 30 25 0 30 4 30 25 0 20 5 25
25 25 21 0 25 5 25 30 0 25 -4 30 -25 30 -24 0 -25 3 -25 55 0 52 1 55 25 55
25 0 25 1 25 85 l0 85 30 0 c27 0 30 -3 30 -30 0 -25 4 -30 25 -30 21 0 25 5
25 30 0 25 -4 30 -25 30 -20 0 -25 5 -25 24 0 19 -6 25 -27 28 -22 2 -29 9
-31 31 -3 24 0 27 27 27 31 0 31 0 31 55 l0 55 110 0 110 0 0 30 c0 27 3 30
30 30 27 0 30 -3 30 -30 0 -25 4 -30 25 -30 21 0 25 5 25 30 0 25 -4 30 -25
30 -20 0 -25 5 -25 25 0 21 -5 25 -30 25 -27 0 -30 3 -30 30 0 30 -1 30 -55
30 l-55 0 0 -55 0 -55 -55 0 -55 0 0 55 c0 52 1 55 25 55 24 0 25 3 25 55 l0
55 60 0 c57 0 60 -1 60 -25 0 -24 3 -25 55 -25 52 0 55 1 55 25 0 21 -5 25
-30 25 -27 0 -30 3 -30 30 0 27 3 30 30 30 l30 0 0 85 0 85 55 0 c52 0 55 1
55 25 0 24 3 25 55 25 l55 0 0 -85 c0 -84 0 -85 -25 -85 -24 0 -25 -3 -25 -55
l0 -55 -55 0 c-52 0 -55 -1 -55 -25 0 -20 5 -25 25 -25 21 0 25 -5 25 -30 0
-25 -4 -30 -25 -30 -24 0 -25 -3 -25 -55 0 -52 1 -55 25 -55 20 0 25 5 25 24
0 19 6 25 28 28 27 3 27 4 30 86 3 80 3 82 27 82 24 0 25 3 25 55 l0 55 55 0
c52 0 55 -1 55 -25 0 -20 -5 -25 -25 -25 -21 0 -25 -5 -25 -30 0 -25 4 -30 25
-30 21 0 25 5 25 30 0 27 3 30 30 30 27 0 30 -3 30 -30 0 -25 4 -30 25 -30 21
0 25 5 25 30 0 25 -4 30 -25 30 -24 0 -25 3 -25 55 0 52 1 55 25 55 20 0 25 5
25 25 0 20 -5 25 -25 25 -20 0 -25 -5 -25 -25 0 -24 -3 -25 -55 -25 l-55 0 0
55 c0 54 0 55 -30 55 -27 0 -30 3 -30 30 l0 30 85 0 85 0 0 -30 c0 -25 4 -30
25 -30 21 0 25 5 25 30 0 25 -4 30 -25 30 -20 0 -25 5 -25 25 0 21 5 25 30 25
25 0 30 -4 30 -25 0 -24 3 -25 55 -25 54 0 55 0 55 -30 0 -27 -3 -30 -30 -30
-25 0 -30 -4 -30 -25 0 -21 5 -25 30 -25 25 0 30 4 30 25 0 20 5 25 25 25 20
0 25 -5 25 -25 0 -21 5 -25 30 -25 30 0 30 0 30 56 0 54 0 55 28 52 21 -2 28
-9 30 -30 3 -27 6 -28 58 -28 l54 0 0 55 c0 52 1 55 25 55 24 0 25 3 25 55 l0
55 -55 0 c-52 0 -55 -1 -55 -25 0 -21 5 -25 30 -25 27 0 30 -3 30 -30 l0 -30
-85 0 c-84 0 -85 0 -85 -25 0 -21 -5 -25 -30 -25 -25 0 -30 4 -30 25 0 24 -3
25 -55 25 -54 0 -55 0 -55 30 0 27 3 30 30 30 25 0 30 4 30 25 0 21 -5 25 -30
25 -27 0 -30 3 -30 30 0 27 3 30 31 30 27 0 30 3 27 28 -3 26 -6 27 -60 30
-54 3 -58 5 -58 27 0 20 -5 25 -25 25 -24 0 -25 3 -25 55 0 52 1 55 25 55 24
0 25 3 25 55 l0 55 -55 0 c-52 0 -55 -1 -55 -25 0 -20 -5 -25 -25 -25 -21 0
-25 -5 -25 -30 0 -27 -3 -30 -30 -30 -25 0 -30 -4 -30 -25 0 -24 3 -25 54 -25
52 0 55 -1 58 -27 2 -22 9 -29 31 -31 21 -3 27 -9 27 -27 0 -18 -6 -24 -27
-27 -26 -3 -28 -7 -31 -55 l-3 -52 58 -3 c55 -3 58 -4 61 -30 3 -28 3 -28 -57
-28 -58 0 -61 1 -61 25 0 20 -5 25 -25 25 -21 0 -25 5 -25 30 0 27 -3 30 -30
30 -30 0 -30 1 -30 55 l0 55 -55 0 c-54 0 -55 0 -55 30 0 25 -4 30 -25 30 -21
0 -25 -5 -25 -30 0 -25 4 -30 25 -30 20 0 25 -5 25 -25 0 -21 -5 -25 -30 -25
-25 0 -30 4 -30 25 0 20 -5 25 -25 25 -21 0 -25 5 -25 30 0 25 4 30 25 30 20
0 25 5 25 25 0 20 -5 25 -25 25 -20 0 -25 -5 -25 -25 0 -21 -5 -25 -30 -25
-25 0 -30 4 -30 25 0 20 -5 25 -25 25 -20 0 -25 -5 -25 -25 0 -21 -5 -25 -30
-25 -30 0 -30 1 -30 55 l0 55 54 0 c52 0 55 -1 58 -27 2 -22 8 -28 28 -28 24
0 25 2 28 83 3 80 3 82 27 82 21 0 25 5 25 30 0 25 -4 30 -25 30 -21 0 -25 -5
-25 -30 0 -27 -3 -30 -30 -30 -27 0 -30 3 -30 30 0 25 -4 30 -25 30 -22 0 -24
-4 -27 -57 -3 -54 -5 -58 -28 -58 -20 0 -26 6 -28 28 -3 23 -8 27 -33 27 -26
0 -29 3 -29 30 0 25 -4 30 -25 30 -20 0 -25 5 -25 25 0 21 5 25 30 25 25 0 30
-4 30 -25 0 -20 5 -25 25 -25 24 0 25 3 25 55 0 54 0 55 -30 55 -25 0 -30 4
-30 25 0 20 -5 25 -25 25 -20 0 -25 -5 -25 -25 0 -24 -3 -25 -55 -25 l-55 0 0
-55 c0 -52 1 -55 25 -55 21 0 25 -5 25 -30 0 -25 -4 -30 -24 -30 -19 0 -25 -6
-28 -27 -2 -22 -9 -29 -30 -31 -22 -3 -28 -9 -28 -28 0 -20 -5 -24 -30 -24
-25 0 -30 4 -30 25 0 20 -5 25 -25 25 -20 0 -25 -5 -25 -25 0 -21 -5 -25 -31
-25 -27 0 -30 3 -27 28 2 21 9 28 31 30 21 3 27 9 27 28 0 19 5 24 25 24 21 0
25 5 25 30 0 25 -4 30 -25 30 -20 0 -25 5 -25 25 0 21 5 25 30 25 25 0 30 -4
30 -25 0 -20 5 -25 25 -25 24 0 25 3 25 55 0 54 0 55 -30 55 l-30 0 0 85 c0
84 0 85 -25 85 -24 0 -25 3 -25 55 0 52 1 55 25 55 20 0 25 5 25 25 0 20 -5
25 -25 25 -24 0 -25 3 -25 60 0 57 1 60 25 60 20 0 25 5 25 25 0 20 -5 25 -25
25 -20 0 -25 -5 -25 -24z m-110 -281 c0 -24 3 -25 55 -25 54 0 55 0 55 -30 0
-30 -1 -30 -55 -30 -52 0 -55 -1 -55 -25 0 -20 5 -25 25 -25 21 0 25 -5 25
-30 0 -25 -4 -30 -25 -30 -21 0 -25 -5 -25 -30 0 -25 4 -30 25 -30 24 0 25 -3
25 -55 l0 -55 -55 0 c-52 0 -55 -1 -55 -25 0 -21 5 -25 30 -25 27 0 30 -3 30
-30 0 -27 -3 -30 -31 -30 -27 0 -30 -3 -27 -27 l3 -28 138 -3 137 -3 0 31 c0
27 3 30 30 30 27 0 30 -3 30 -30 0 -25 4 -30 25 -30 22 0 24 4 27 58 l3 57 55
0 c53 0 55 -1 58 -27 3 -25 0 -28 -27 -28 -28 0 -31 -3 -31 -30 0 -27 3 -30
30 -30 25 0 30 -4 30 -25 0 -25 -1 -25 -85 -25 l-85 0 0 -30 c0 -30 1 -30 55
-30 52 0 55 -1 55 -25 0 -20 5 -25 25 -25 20 0 25 5 25 25 0 24 3 25 60 25 57
0 60 -1 60 -25 0 -20 5 -25 25 -25 20 0 25 5 25 25 0 21 5 25 30 25 l30 0 0
-140 0 -140 25 0 c21 0 25 5 25 30 0 27 3 30 30 30 27 0 30 -3 30 -30 0 -27 3
-30 30 -30 25 0 30 -4 30 -25 0 -24 -3 -25 -54 -25 -52 0 -55 -1 -58 -27 -2
-22 -9 -29 -30 -31 -23 -3 -27 1 -30 25 -2 22 -8 28 -28 28 -23 0 -25 -4 -28
-57 l-3 -58 -139 0 -140 0 0 -25 c0 -24 3 -25 60 -25 l60 0 0 -30 c0 -25 4
-30 25 -30 21 0 25 5 25 30 0 30 1 30 55 30 l55 0 0 -55 c0 -52 -1 -55 -25
-55 -20 0 -25 5 -25 25 0 21 -5 25 -30 25 -25 0 -30 -4 -30 -25 l0 -25 -110 0
-110 0 0 -55 c0 -52 1 -55 25 -55 20 0 25 5 25 25 0 21 5 25 31 25 27 0 30 -3
27 -27 -2 -22 -9 -29 -30 -31 -22 -3 -28 -9 -28 -28 0 -19 -5 -24 -25 -24 -21
0 -25 -5 -25 -30 0 -30 -1 -30 -55 -30 -52 0 -55 -1 -55 -25 0 -20 5 -25 25
-25 21 0 25 -5 25 -31 0 -27 -3 -30 -27 -27 -22 2 -29 9 -31 31 -3 21 -9 27
-28 27 -20 0 -24 -5 -24 -30 l0 -31 -112 3 -113 3 0 25 0 25 113 3 c112 3 112
3 112 27 0 20 5 25 25 25 24 0 25 3 25 55 0 52 -1 55 -25 55 -24 0 -25 3 -25
61 0 60 0 60 28 57 21 -2 28 -9 30 -30 3 -22 9 -28 28 -28 22 0 24 3 24 55 l0
55 55 0 c54 0 55 0 55 30 0 25 -4 30 -25 30 -24 0 -25 3 -25 55 l0 55 141 0
140 0 -3 28 -3 27 -112 3 c-113 3 -113 3 -113 27 0 20 -5 25 -25 25 -20 0 -25
-5 -25 -25 0 -21 -5 -25 -30 -25 -27 0 -30 -3 -30 -30 0 -27 -3 -30 -30 -30
-27 0 -30 3 -30 30 0 25 -4 30 -25 30 -24 0 -25 -3 -25 -60 l0 -60 -30 0 c-25
0 -30 -4 -30 -25 0 -21 5 -25 30 -25 27 0 30 -3 30 -30 0 -30 -1 -30 -55 -30
-52 0 -55 -1 -55 -25 0 -21 -5 -25 -30 -25 -25 0 -30 4 -30 25 0 20 -5 25 -25
25 -20 0 -25 -5 -25 -25 0 -21 -5 -25 -30 -25 l-30 0 0 -85 0 -85 -30 0 c-25
0 -30 4 -30 25 0 20 -5 25 -25 25 -20 0 -25 -5 -25 -25 0 -21 -5 -25 -30 -25
-30 0 -30 1 -30 55 0 54 0 55 30 55 l30 0 0 85 c0 84 0 85 25 85 24 0 25 3 25
55 0 52 -1 55 -25 55 -21 0 -25 5 -25 30 0 25 4 30 24 30 19 0 25 -6 28 -27 2
-22 9 -29 31 -31 24 -3 27 0 27 27 0 26 4 31 25 31 24 0 25 3 25 55 0 52 -1
55 -25 55 -21 0 -25 -5 -25 -30 0 -30 -1 -30 -55 -30 -54 0 -55 0 -55 30 0 25
4 30 24 30 19 0 25 6 28 28 2 21 9 28 31 30 21 3 27 9 27 28 0 20 5 24 30 24
30 0 30 -1 30 -55 l0 -55 55 0 c52 0 55 1 55 25 0 21 -5 25 -30 25 -27 0 -30
3 -30 30 0 30 1 30 55 30 55 0 55 0 55 30 l0 31 -137 -3 -138 -3 -3 -27 c-3
-22 -9 -28 -28 -28 -20 0 -24 5 -24 30 0 25 4 30 25 30 20 0 25 5 25 25 0 24
-3 25 -55 25 -54 0 -55 0 -55 30 0 30 1 30 54 30 52 0 55 -1 58 -27 l3 -28
138 -3 137 -3 0 31 c0 30 0 30 -55 30 -52 0 -55 2 -55 24 0 19 -6 25 -27 28
-22 2 -29 9 -31 31 -3 24 0 27 27 27 26 0 31 4 31 24 0 19 -6 25 -27 28 -28 3
-28 4 -31 86 -3 80 -3 82 -27 82 -21 0 -25 5 -25 30 0 27 3 30 30 30 27 0 30
-3 30 -30 0 -25 4 -30 25 -30 21 0 25 5 25 30 0 27 3 30 30 30 25 0 30 4 30
24 0 19 -6 25 -27 28 -22 2 -29 9 -31 31 -3 24 0 27 27 27 28 0 31 3 31 30 0
27 -3 30 -30 30 -25 0 -30 4 -30 25 0 21 5 25 30 25 25 0 30 -4 30 -25z m-170
-335 c0 -27 -3 -30 -30 -30 -27 0 -30 3 -30 30 0 27 3 30 30 30 27 0 30 -3 30
-30z m0 -110 c0 -27 -3 -30 -30 -30 -25 0 -30 4 -30 23 0 30 7 37 37 37 19 0
23 -5 23 -30z m1230 -61 c0 -27 -3 -30 -27 -27 -22 2 -29 9 -31 31 -3 24 0 27
27 27 28 0 31 -3 31 -31z m-220 -274 c0 -20 5 -25 25 -25 21 0 25 -5 25 -30 0
-25 -4 -30 -25 -30 -20 0 -25 5 -25 25 0 22 -4 24 -57 27 -55 3 -58 4 -61 31
-3 27 -3 27 57 27 58 0 61 -1 61 -25z m-620 -335 c0 -27 -3 -30 -30 -30 -25 0
-30 4 -30 23 0 30 7 37 37 37 19 0 23 -5 23 -30z m-170 -285 l0 -86 -82 3 -83
3 -3 83 -3 82 86 0 85 0 0 -85z m-220 -140 c0 -54 0 -55 -30 -55 -30 0 -30 1
-30 55 0 54 0 55 30 55 30 0 30 -1 30 -55z m500 -50 c0 -52 -1 -55 -25 -55
-24 0 -25 3 -25 55 0 52 1 55 25 55 24 0 25 -3 25 -55z m-330 -85 c0 -27 -3
-30 -30 -30 -27 0 -30 3 -30 30 0 27 3 30 30 30 27 0 30 -3 30 -30z m168 -2
c3 -22 9 -28 28 -28 20 0 24 -5 24 -30 0 -25 -4 -30 -24 -30 -23 0 -25 -4 -28
-52 -3 -49 -5 -53 -30 -56 -25 -3 -28 0 -28 28 0 28 -3 31 -27 28 -22 -2 -29
-9 -31 -30 -3 -22 -9 -28 -28 -28 -20 0 -24 5 -24 30 0 27 -3 30 -31 30 -27 0
-30 3 -27 28 l3 27 108 3 c106 3 107 3 107 27 0 24 -3 25 -55 25 -51 0 -55 2
-55 23 0 34 8 38 65 35 46 -3 50 -5 53 -30z m-338 -278 c0 -27 -3 -30 -30 -30
-25 0 -30 4 -30 23 0 30 7 37 37 37 19 0 23 -5 23 -30z m-110 -255 c0 -54 0
-55 -30 -55 -30 0 -30 1 -30 55 0 54 0 55 30 55 30 0 30 -1 30 -55z m280 -475
c0 -27 -3 -30 -30 -30 -27 0 -30 3 -30 30 0 27 3 30 30 30 27 0 30 -3 30 -30z"/>
<path d="M540 3255 c0 -21 5 -25 30 -25 25 0 30 4 30 25 0 21 -5 25 -30 25
-25 0 -30 -4 -30 -25z"/>
<path d="M820 2975 c0 -21 5 -25 30 -25 25 0 30 4 30 25 0 21 -5 25 -30 25
-25 0 -30 -4 -30 -25z"/>
<path d="M710 2920 c0 -27 -3 -30 -30 -30 -25 0 -30 -4 -30 -25 0 -24 3 -25
55 -25 l55 0 0 55 c0 52 -1 55 -25 55 -21 0 -25 -5 -25 -30z"/>
<path d="M770 2811 c0 -28 -3 -31 -30 -31 -27 0 -30 -3 -30 -30 0 -27 -3 -30
-30 -30 -25 0 -30 -4 -30 -25 0 -20 -5 -25 -25 -25 -21 0 -25 -5 -25 -30 0
-27 -3 -30 -30 -30 -25 0 -30 -4 -30 -25 0 -21 5 -25 30 -25 27 0 30 -3 30
-30 0 -27 -3 -30 -30 -30 -25 0 -30 -4 -30 -25 0 -21 5 -25 30 -25 25 0 30 4
30 25 0 20 5 25 25 25 21 0 25 5 25 30 0 27 3 30 30 30 25 0 30 4 30 25 0 21
-5 25 -30 25 -27 0 -30 3 -30 30 0 30 1 30 54 30 52 0 55 1 58 28 3 26 5 27
58 27 53 0 55 -1 58 -27 3 -25 0 -28 -27 -28 -28 0 -31 -3 -31 -30 0 -25 -4
-30 -25 -30 -20 0 -25 -5 -25 -25 0 -20 5 -25 25 -25 20 0 25 5 25 25 0 21 5
25 30 25 27 0 30 3 30 30 0 25 4 30 24 30 19 0 25 -6 28 -27 3 -28 4 -28 86
-31 l82 -3 0 31 c0 27 3 30 30 30 25 0 30 4 30 25 0 21 -5 25 -30 25 -25 0
-30 -4 -30 -25 0 -24 -3 -25 -55 -25 -52 0 -55 2 -55 24 0 19 -6 25 -27 28
-22 2 -29 9 -31 31 -3 21 -9 27 -27 27 -18 0 -24 6 -27 28 -3 25 -7 27 -55 30
l-53 3 0 -30z m-120 -226 c0 -20 -5 -25 -25 -25 -20 0 -25 5 -25 25 0 20 5 25
25 25 20 0 25 -5 25 -25z"/>
<path d="M1100 2811 c0 -28 3 -31 31 -31 27 0 30 3 27 28 -2 21 -9 28 -30 30
-25 3 -28 0 -28 -27z"/>
<path d="M490 2415 c0 -20 5 -25 25 -25 21 0 25 -5 25 -31 0 -27 3 -30 28 -27
21 2 28 9 30 31 3 24 0 27 -27 27 -26 0 -31 4 -31 25 0 20 -5 25 -25 25 -20 0
-25 -5 -25 -25z"/>
<path d="M370 2305 c0 -21 5 -25 30 -25 25 0 30 4 30 25 0 21 -5 25 -30 25
-25 0 -30 -4 -30 -25z"/>
<path d="M540 2135 c0 -21 5 -25 30 -25 25 0 30 4 30 25 0 21 -5 25 -30 25
-25 0 -30 -4 -30 -25z"/>
<path d="M880 3815 c0 -20 5 -25 25 -25 20 0 25 5 25 25 0 20 -5 25 -25 25
-20 0 -25 -5 -25 -25z"/>
<path d="M990 3760 c0 -79 0 -80 25 -80 20 0 25 5 25 25 0 21 5 25 30 25 25 0
30 -4 30 -25 0 -21 5 -25 31 -25 l30 0 -3 53 -3 52 -57 3 c-54 3 -58 5 -58 27
0 20 -5 25 -25 25 -25 0 -25 -1 -25 -80z"/>
<path d="M1380 3761 c0 -26 -4 -31 -25 -31 -24 0 -25 -3 -25 -55 0 -52 1 -55
25 -55 21 0 25 -5 25 -30 l0 -30 -85 0 c-84 0 -85 0 -85 -25 0 -24 -3 -25 -55
-25 -52 0 -55 2 -55 24 0 19 6 25 28 28 21 2 27 8 27 28 0 20 -6 26 -27 28
-22 3 -28 9 -28 28 0 19 -5 24 -25 24 -20 0 -25 -5 -25 -25 0 -20 5 -25 25
-25 21 0 25 -5 25 -30 0 -25 -4 -30 -25 -30 -20 0 -25 -5 -25 -25 0 -20 5 -25
25 -25 21 0 25 -5 25 -30 0 -25 -4 -30 -25 -30 -20 0 -25 -5 -25 -25 0 -24 3
-25 55 -25 52 0 55 1 55 25 0 20 5 25 25 25 21 0 25 5 25 30 0 27 3 30 30 30
27 0 30 -3 30 -30 0 -27 3 -30 30 -30 25 0 30 -4 30 -25 0 -20 5 -25 25 -25
20 0 25 5 25 25 0 24 3 25 55 25 52 0 55 -1 55 -25 0 -25 1 -25 85 -25 l85 0
0 56 c0 54 0 55 -27 52 -22 -2 -29 -9 -31 -30 -3 -27 -6 -28 -58 -28 -53 0
-54 0 -54 30 0 30 1 30 55 30 52 0 55 1 55 25 0 25 -1 25 -80 25 -79 0 -80 0
-80 -25 0 -21 -5 -25 -30 -25 -25 0 -30 4 -30 24 0 19 6 25 28 28 21 2 27 8
27 28 0 20 -6 26 -27 28 -27 3 -28 6 -28 58 0 53 0 54 30 54 30 0 30 -1 30
-55 0 -52 1 -55 25 -55 24 0 25 3 25 55 0 52 -2 55 -24 55 -19 0 -25 6 -28 28
-2 21 -9 28 -30 30 -25 3 -28 0 -28 -27z"/>
<path d="M770 3705 c0 -20 5 -25 25 -25 20 0 25 5 25 25 0 20 -5 25 -25 25
-20 0 -25 -5 -25 -25z"/>
<path d="M878 3703 c-2 -22 -9 -29 -30 -31 -27 -3 -28 -6 -28 -58 0 -51 -1
-54 -25 -54 -20 0 -25 -5 -25 -25 0 -20 5 -25 25 -25 24 0 25 -3 25 -55 0 -54
0 -55 30 -55 30 0 30 1 30 55 0 52 1 55 25 55 20 0 25 5 25 25 0 20 -5 25 -25
25 -20 0 -25 -5 -25 -25 0 -21 -5 -25 -30 -25 -25 0 -30 4 -30 24 0 19 6 25
28 28 21 2 28 9 30 31 3 21 9 27 27 27 18 0 24 -6 27 -27 2 -22 9 -29 31 -31
27 -3 27 -2 27 52 0 52 -1 55 -27 58 -22 2 -29 9 -31 31 -3 21 -9 27 -27 27
-18 0 -24 -6 -27 -27z"/>
<path d="M1210 3705 c0 -21 5 -25 30 -25 25 0 30 4 30 25 0 21 -5 25 -30 25
-25 0 -30 -4 -30 -25z"/>
<path d="M1770 3705 c0 -21 5 -25 30 -25 25 0 30 4 30 25 0 21 -5 25 -30 25
-25 0 -30 -4 -30 -25z"/>
<path d="M320 3590 c0 -30 -1 -30 -55 -30 l-55 0 0 -55 c0 -52 1 -55 25 -55
21 0 25 5 25 30 0 27 3 30 30 30 27 0 30 -3 30 -30 0 -25 4 -30 25 -30 21 0
25 5 25 30 0 27 3 30 30 30 25 0 30 4 30 25 0 20 5 25 25 25 21 0 25 5 25 30
l0 30 -80 0 -80 0 0 -30z"/>
<path d="M3900 3565 c0 -54 0 -55 -30 -55 -27 0 -30 -3 -30 -30 0 -27 -3 -30
-30 -30 -25 0 -30 -4 -30 -25 0 -21 5 -25 30 -25 25 0 30 4 30 25 0 21 5 25
31 25 27 0 30 -3 27 -27 -2 -22 -9 -29 -30 -31 -22 -3 -28 -9 -28 -28 0 -20 5
-24 30 -24 30 0 30 -1 30 -55 0 -52 1 -55 25 -55 21 0 25 -5 25 -30 0 -30 -1
-30 -55 -30 -55 0 -55 0 -55 31 0 27 -3 30 -27 27 -22 -2 -28 -8 -28 -28 0
-20 6 -26 28 -28 l27 -3 0 -85 0 -85 -27 3 c-22 2 -29 9 -31 31 -3 27 -4 27
-83 27 -78 0 -79 0 -79 25 0 24 -3 25 -55 25 -52 0 -55 -1 -55 -25 0 -21 -5
-25 -30 -25 -25 0 -30 4 -30 25 0 21 -5 25 -30 25 -25 0 -30 -4 -30 -25 0 -21
5 -25 30 -25 27 0 30 -3 30 -30 0 -30 -1 -30 -55 -30 -52 0 -55 -1 -55 -25 0
-21 -5 -25 -30 -25 -25 0 -30 4 -30 25 0 20 -5 25 -25 25 -20 0 -25 -5 -25
-25 0 -21 -5 -25 -30 -25 -27 0 -30 -3 -30 -30 0 -27 3 -30 30 -30 25 0 30 -4
30 -25 0 -20 5 -25 25 -25 21 0 25 -5 25 -30 0 -27 -3 -30 -30 -30 -27 0 -30
3 -30 31 l0 30 -52 -3 -53 -3 -3 -52 -3 -53 85 0 86 0 0 -30 c0 -25 -4 -30
-25 -30 -21 0 -25 -5 -25 -30 0 -25 4 -30 25 -30 21 0 25 5 25 30 0 27 3 30
30 30 27 0 30 3 30 30 0 25 4 30 25 30 24 0 25 3 25 55 0 54 0 55 30 55 27 0
30 -3 30 -30 0 -27 3 -30 30 -30 l30 0 0 -85 c0 -84 0 -85 25 -85 20 0 25 -5
25 -25 0 -21 -5 -25 -30 -25 -25 0 -30 4 -30 25 0 20 -5 25 -25 25 -21 0 -25
5 -25 30 0 27 -3 30 -31 30 -27 0 -30 -3 -27 -27 2 -22 9 -29 31 -31 26 -3 27
-6 27 -58 l0 -54 55 0 c52 0 55 -1 55 -25 0 -24 3 -25 55 -25 52 0 55 1 55 25
0 20 -5 25 -25 25 -24 0 -24 2 -27 83 -3 81 -3 82 -30 85 -24 3 -28 8 -28 33
0 27 3 30 28 27 21 -2 28 -9 30 -30 3 -22 9 -28 28 -28 22 0 24 3 24 55 0 55
0 55 31 55 27 0 30 3 27 28 -3 25 -7 27 -55 30 -49 3 -53 5 -53 28 0 23 -3 24
-55 24 -52 0 -55 -1 -55 -25 0 -21 -5 -25 -30 -25 l-30 0 0 80 0 80 30 0 c25
0 30 -4 30 -25 0 -20 5 -25 25 -25 20 0 25 5 25 25 0 21 5 25 30 25 25 0 30
-4 30 -25 0 -20 5 -25 25 -25 21 0 25 -5 25 -30 0 -27 3 -30 30 -30 25 0 30
-4 30 -25 0 -20 5 -25 25 -25 20 0 25 5 25 25 0 20 -5 25 -25 25 -21 0 -25 5
-25 30 0 30 1 30 55 30 l55 0 0 -85 0 -85 -30 0 c-25 0 -30 -4 -30 -25 l0 -25
116 0 115 0 -3 53 c-3 48 -5 52 -28 52 -20 0 -26 -6 -28 -27 -3 -24 -8 -28
-33 -28 l-30 0 3 83 c3 81 3 82 31 85 24 3 27 0 27 -27 0 -28 3 -31 30 -31 25
0 30 -4 30 -25 0 -20 5 -25 25 -25 25 0 25 1 25 80 0 79 0 80 -25 80 -20 0
-25 -5 -25 -25 0 -21 -5 -25 -30 -25 -25 0 -30 4 -30 24 0 19 -6 25 -27 28
-22 2 -29 9 -31 31 l-3 27 85 0 c85 0 86 0 86 24 0 23 -4 25 -52 28 -49 3 -53
5 -56 31 -3 24 0 27 28 27 28 0 31 3 28 28 -2 21 -9 28 -30 30 -27 3 -28 6
-28 58 0 53 0 54 30 54 27 0 30 -3 30 -30 0 -25 4 -30 25 -30 24 0 25 3 25 55
0 52 -1 55 -25 55 -24 0 -25 3 -25 60 0 57 1 60 25 60 24 0 25 3 25 55 l0 55
-80 0 -80 0 0 -55z m-170 -590 c0 -21 -5 -25 -30 -25 -25 0 -30 4 -30 25 0 21
5 25 30 25 25 0 30 -4 30 -25z m-340 -55 c0 -25 -4 -30 -25 -30 -21 0 -25 5
-25 30 0 25 4 30 25 30 21 0 25 -5 25 -30z m230 -110 c0 -27 -3 -30 -30 -30
-27 0 -30 3 -30 30 0 27 3 30 30 30 27 0 30 -3 30 -30z"/>
<path d="M937 3503 c-4 -3 -7 -28 -7 -55 0 -47 1 -48 30 -48 30 0 30 1 30 55
0 51 -2 55 -23 55 -13 0 -27 -3 -30 -7z"/>
<path d="M1160 3335 c0 -52 1 -55 25 -55 21 0 25 5 25 30 0 27 3 30 30 30 25
0 30 4 30 25 0 24 -3 25 -55 25 l-55 0 0 -55z"/>
<path d="M1380 3365 c0 -21 5 -25 30 -25 25 0 30 4 30 25 0 21 -5 25 -30 25
-25 0 -30 -4 -30 -25z"/>
<path d="M1380 3255 c0 -21 5 -25 30 -25 25 0 30 4 30 25 0 21 -5 25 -30 25
-25 0 -30 -4 -30 -25z"/>
<path d="M770 3145 c0 -20 5 -25 25 -25 20 0 25 5 25 25 0 20 -5 25 -25 25
-20 0 -25 -5 -25 -25z"/>
<path d="M1330 3145 c0 -20 5 -25 25 -25 20 0 25 5 25 25 0 20 -5 25 -25 25
-20 0 -25 -5 -25 -25z"/>
<path d="M2830 3060 l0 -110 30 0 c27 0 30 -3 30 -30 0 -25 4 -30 25 -30 21 0
25 5 25 30 0 25 -4 30 -25 30 -25 0 -25 1 -25 85 l0 85 55 0 c52 0 55 1 55 25
0 25 -1 25 -85 25 l-85 0 0 -110z"/>
<path d="M3730 3145 c0 -20 5 -25 25 -25 20 0 25 5 25 25 0 20 -5 25 -25 25
-20 0 -25 -5 -25 -25z"/>
<path d="M2160 3085 c0 -20 -5 -25 -25 -25 -21 0 -25 -5 -25 -30 0 -25 4 -30
24 -30 23 0 25 -4 28 -52 3 -49 5 -53 31 -56 27 -3 27 -2 27 52 0 56 0 56 -30
56 -27 0 -30 3 -30 30 0 30 1 30 55 30 52 0 55 1 55 25 0 24 -3 25 -55 25 -52
0 -55 -1 -55 -25z"/>
<path d="M2950 3030 c0 -25 4 -30 25 -30 20 0 25 -5 25 -25 0 -24 3 -25 55
-25 l55 0 0 55 0 55 -80 0 -80 0 0 -30z"/>
<path d="M1550 2865 c0 -20 5 -25 25 -25 20 0 25 5 25 25 0 20 -5 25 -25 25
-20 0 -25 -5 -25 -25z"/>
<path d="M2837 2834 c-4 -4 -7 -29 -7 -56 0 -47 1 -48 30 -48 25 0 30 4 30 25
0 25 1 25 86 25 l85 0 -3 28 -3 27 -106 3 c-58 1 -108 -1 -112 -4z"/>
<path d="M2670 2755 c0 -20 5 -25 25 -25 20 0 25 5 25 25 0 20 -5 25 -25 25
-20 0 -25 -5 -25 -25z"/>
<path d="M1880 2695 c0 -21 5 -25 30 -25 25 0 30 4 30 25 0 21 -5 25 -30 25
-25 0 -30 -4 -30 -25z"/>
<path d="M2280 2695 c0 -21 -5 -25 -30 -25 -27 0 -30 -3 -30 -30 0 -30 1 -30
55 -30 l55 0 0 55 c0 52 -1 55 -25 55 -20 0 -25 -5 -25 -25z"/>
<path d="M2780 2695 l0 -25 -140 0 -140 0 0 -30 c0 -27 -3 -30 -30 -30 -25 0
-30 -4 -30 -25 0 -21 5 -25 30 -25 30 0 30 -1 30 -55 0 -52 1 -55 25 -55 20 0
25 5 25 25 0 21 5 25 30 25 27 0 30 -3 30 -30 0 -27 -3 -30 -30 -30 -25 0 -30
-4 -30 -25 0 -20 -5 -25 -25 -25 -20 0 -25 5 -25 25 0 21 -5 25 -30 25 -25 0
-30 -4 -30 -25 0 -20 -5 -25 -25 -25 -21 0 -25 -5 -25 -30 0 -27 -3 -30 -30
-30 -27 0 -30 3 -30 30 0 30 -1 30 -55 30 -52 0 -55 1 -55 25 0 21 -5 25 -30
25 -25 0 -30 -4 -30 -25 0 -21 5 -25 30 -25 27 0 30 -3 30 -30 0 -30 1 -30 55
-30 52 0 55 -1 55 -25 0 -21 5 -25 30 -25 l30 0 0 -85 0 -85 -60 0 -60 0 0 85
0 85 -80 0 -80 0 0 55 c0 54 0 55 -30 55 -25 0 -30 4 -30 25 0 24 -3 25 -55
25 -52 0 -55 -1 -55 -25 0 -21 -5 -25 -30 -25 -25 0 -30 4 -30 25 0 20 -5 25
-25 25 -20 0 -25 -5 -25 -25 0 -24 -3 -25 -55 -25 -54 0 -55 0 -55 -30 0 -25
4 -30 25 -30 20 0 25 -5 25 -25 0 -25 1 -25 85 -25 l85 0 0 -30 c0 -30 -1 -30
-55 -30 l-55 0 0 -55 c0 -52 1 -55 25 -55 21 0 25 -5 25 -30 0 -25 -4 -30 -25
-30 -20 0 -25 -5 -25 -25 0 -21 -5 -25 -30 -25 -25 0 -30 4 -30 25 0 20 -5 25
-25 25 -20 0 -25 -5 -25 -25 0 -21 -5 -25 -30 -25 -27 0 -30 -3 -30 -30 0 -27
3 -30 30 -30 30 0 30 -1 30 -55 0 -54 0 -55 -29 -55 -25 0 -30 4 -33 28 -2 21
-8 27 -28 27 -20 0 -26 -6 -28 -27 -3 -25 0 -28 27 -28 26 0 31 -4 31 -24 0
-19 6 -25 28 -28 21 -2 28 -9 30 -30 3 -22 9 -28 28 -28 22 0 24 3 24 55 0 55
0 55 31 55 27 0 30 3 27 28 -2 21 -9 28 -30 30 -22 3 -28 9 -28 28 0 20 5 24
30 24 25 0 30 -4 30 -25 0 -20 5 -25 25 -25 24 0 25 3 25 55 0 54 0 55 30 55
27 0 30 -3 30 -30 0 -27 3 -30 30 -30 25 0 30 -4 30 -25 0 -20 5 -25 25 -25
20 0 25 5 25 25 0 21 5 25 30 25 25 0 30 -4 30 -25 0 -20 5 -25 25 -25 20 0
25 5 25 25 0 21 5 25 30 25 25 0 30 -4 30 -25 0 -24 3 -25 55 -25 52 0 55 2
55 24 0 19 6 25 28 28 21 2 28 9 30 31 l3 27 110 0 109 0 0 -30 0 -30 -85 0
c-84 0 -85 0 -85 -25 0 -20 -5 -25 -25 -25 -25 0 -25 -1 -25 -85 0 -83 0 -85
24 -85 19 0 25 6 28 28 2 21 9 28 31 30 21 3 27 9 27 28 0 19 5 24 25 24 24 0
25 -3 25 -55 0 -52 -1 -55 -25 -55 -25 0 -25 -1 -25 -85 0 -83 0 -85 24 -85
19 0 25 6 28 28 2 21 9 28 31 30 l27 3 0 -85 0 -86 55 0 c54 0 55 0 55 -30 0
-25 -4 -30 -25 -30 -20 0 -25 -5 -25 -25 0 -20 5 -25 25 -25 21 0 25 -5 25
-30 0 -30 1 -30 55 -30 52 0 55 -1 55 -25 0 -21 5 -25 30 -25 25 0 30 4 30 25
0 21 -5 25 -30 25 -27 0 -30 3 -30 30 0 27 3 30 30 30 25 0 30 4 30 25 0 24 3
25 55 25 52 0 55 -1 55 -25 0 -24 3 -25 55 -25 52 0 55 1 55 25 0 21 5 25 30
25 25 0 30 -4 30 -24 0 -19 -6 -25 -27 -28 -22 -2 -29 -9 -31 -30 -3 -28 -4
-28 -83 -28 l-79 0 0 -55 c0 -52 2 -55 24 -55 19 0 25 -6 28 -28 2 -21 8 -27
28 -27 20 0 26 6 28 28 3 26 6 27 58 27 53 0 54 0 54 -30 0 -27 -3 -30 -30
-30 -25 0 -30 -4 -30 -25 0 -25 -1 -25 -80 -25 l-80 0 0 -30 c0 -25 4 -30 25
-30 24 0 25 -3 25 -55 0 -54 0 -55 30 -55 27 0 30 -3 30 -30 0 -27 -3 -30 -30
-30 -25 0 -30 -4 -30 -25 0 -21 5 -25 30 -25 25 0 30 4 30 25 0 20 5 25 25 25
21 0 25 5 25 30 0 25 -4 30 -25 30 -21 0 -25 5 -25 30 l0 31 83 -3 82 -3 3
-58 c3 -53 5 -57 27 -57 20 0 25 -5 25 -25 0 -21 -5 -25 -30 -25 -25 0 -30 4
-30 25 0 20 -5 25 -25 25 -20 0 -25 -5 -25 -24 0 -19 -6 -25 -27 -28 -22 -2
-29 -9 -31 -31 -3 -21 -9 -27 -28 -27 -22 0 -24 -3 -24 -55 l0 -55 -61 0 c-60
0 -60 0 -57 28 2 21 9 28 31 30 21 3 27 9 27 28 0 22 -3 24 -55 24 -54 0 -55
0 -55 30 0 25 4 30 25 30 25 0 25 1 25 80 l0 80 -55 0 c-52 0 -55 -1 -55 -25
0 -21 5 -25 30 -25 27 0 30 -3 30 -30 0 -30 -1 -30 -55 -30 -52 0 -55 -1 -55
-25 0 -21 -5 -25 -30 -25 -25 0 -30 4 -30 24 0 19 6 25 28 28 21 2 28 9 30 30
3 25 0 28 -27 28 -31 0 -31 0 -31 54 0 52 -1 55 -27 58 -22 2 -29 9 -31 31 -3
21 -9 27 -28 27 -19 0 -24 5 -24 25 0 24 3 25 55 25 54 0 55 0 55 30 0 27 3
30 30 30 30 0 30 -1 30 -55 0 -52 2 -55 24 -55 19 0 25 -6 28 -27 2 -22 9 -29
31 -31 27 -3 27 -2 27 52 0 53 1 56 25 56 21 0 25 5 25 30 0 30 -1 30 -55 30
-52 0 -55 1 -55 25 0 24 -3 25 -55 25 -52 0 -55 -1 -55 -25 0 -21 -5 -25 -30
-25 -25 0 -30 4 -30 25 0 20 -5 25 -25 25 -24 0 -25 -3 -25 -55 l0 -55 -110 0
-110 0 0 -25 0 -25 110 0 110 0 0 -30 c0 -27 -3 -30 -30 -30 -25 0 -30 -4 -30
-25 0 -21 5 -25 30 -25 l30 0 0 -60 0 -60 -30 0 c-25 0 -30 -4 -30 -25 0 -20
-5 -25 -25 -25 -21 0 -25 -5 -25 -30 0 -25 4 -30 25 -30 20 0 25 -5 25 -25 0
-21 5 -25 30 -25 27 0 30 -3 30 -30 l0 -30 -85 0 -85 0 0 55 0 55 -110 0 -110
0 0 30 c0 25 4 30 25 30 24 0 25 3 25 55 0 54 0 55 29 55 25 0 30 -4 33 -27 2
-22 9 -29 31 -31 21 -3 27 -9 27 -28 0 -19 5 -24 25 -24 20 0 25 5 25 24 0 19
6 25 28 28 21 2 28 9 30 31 3 21 9 27 28 27 19 0 24 5 24 25 0 20 -5 25 -25
25 -20 0 -25 -5 -25 -25 0 -24 -3 -25 -55 -25 -54 0 -55 0 -55 30 0 25 4 30
25 30 20 0 25 5 25 25 0 25 -1 25 -85 25 l-85 0 0 170 0 170 -25 0 c-24 0 -25
3 -25 56 0 54 0 55 28 52 25 -3 27 -7 30 -55 3 -49 5 -53 28 -53 23 0 24 -3
24 -55 0 -54 0 -55 30 -55 25 0 30 4 30 25 0 20 5 25 25 25 21 0 25 5 25 30 0
27 3 30 30 30 30 0 30 1 30 55 0 54 0 55 -30 55 -30 0 -30 -1 -30 -55 l0 -55
-55 0 -55 0 0 55 c0 54 0 55 30 55 27 0 30 3 30 30 0 25 4 30 25 30 20 0 25 5
25 25 0 25 -1 25 -79 25 -79 0 -80 0 -83 -27 -3 -28 -4 -28 -85 -31 -81 -3
-83 -3 -83 -27 0 -21 -5 -25 -30 -25 -27 0 -30 3 -30 30 0 27 3 30 30 30 25 0
30 4 30 25 0 25 1 25 80 25 l80 0 0 55 c0 52 -1 55 -25 55 -21 0 -25 5 -25 30
0 27 -3 30 -30 30 -25 0 -30 4 -30 25 0 20 -5 25 -25 25 -21 0 -25 5 -25 30 0
30 -1 30 -55 30 -52 0 -55 -1 -55 -25 0 -20 5 -25 25 -25 24 0 25 -3 25 -60 0
-57 -1 -60 -25 -60 -24 0 -25 -3 -25 -55 0 -54 0 -55 -30 -55 -27 0 -30 3 -30
31 0 27 -3 30 -27 27 -22 -2 -29 -9 -31 -30 -3 -22 -9 -28 -27 -28 -18 0 -24
-6 -27 -27 -2 -22 -9 -29 -30 -31 -22 -3 -28 -9 -28 -28 0 -22 3 -24 55 -24
l55 0 0 -55 c0 -52 -1 -55 -25 -55 -20 0 -25 5 -25 25 0 22 -4 24 -57 27 -55
3 -58 4 -61 31 -3 26 -6 27 -58 27 -51 0 -54 1 -54 25 0 20 -5 25 -25 25 -20
0 -25 -5 -25 -25 0 -21 -5 -25 -30 -25 -25 0 -30 4 -30 25 0 20 -5 25 -25 25
-20 0 -25 -5 -25 -25 0 -21 -5 -25 -30 -25 -27 0 -30 -3 -30 -30 0 -27 3 -30
30 -30 30 0 30 -1 30 -55 l0 -55 -54 0 c-52 0 -55 -1 -58 -27 -3 -27 -6 -28
-61 -31 -53 -3 -57 -5 -57 -27 0 -24 -3 -25 -55 -25 -52 0 -55 1 -55 25 0 20
-5 25 -25 25 -25 0 -25 -1 -25 -80 0 -79 0 -80 25 -80 20 0 25 5 25 25 0 24 2
24 83 27 82 3 82 3 85 31 3 24 7 28 30 25 25 -3 27 -7 30 -56 3 -48 5 -52 28
-52 24 0 24 1 24 85 l0 85 30 0 c25 0 30 4 30 25 0 20 5 25 25 25 20 0 25 -5
25 -25 0 -21 5 -25 30 -25 25 0 30 4 30 25 0 21 -5 25 -30 25 -27 0 -30 3 -30
30 0 30 1 30 54 30 52 0 55 -1 58 -27 2 -22 9 -29 31 -31 23 -3 27 -8 27 -33
0 -29 -1 -29 -55 -29 l-55 0 0 -55 c0 -52 1 -55 25 -55 21 0 25 5 25 30 0 27
3 30 30 30 27 0 30 -3 30 -30 0 -25 4 -30 25 -30 21 0 25 5 25 30 l0 30 60 0
60 0 0 30 c0 25 4 30 25 30 20 0 25 5 25 25 0 21 5 25 30 25 25 0 30 -4 30
-25 0 -20 5 -25 25 -25 20 0 25 5 25 25 0 21 5 25 30 25 27 0 30 -3 30 -30 0
-25 -4 -30 -25 -30 -20 0 -25 -5 -25 -25 0 -24 -3 -25 -60 -25 l-60 0 0 -30
c0 -25 -4 -30 -25 -30 -20 0 -25 -5 -25 -25 0 -21 -5 -25 -30 -25 -25 0 -30 4
-30 25 0 20 -5 25 -25 25 -24 0 -25 -3 -25 -55 l0 -55 55 0 c54 0 55 0 55 30
0 25 4 30 25 30 24 0 25 -3 25 -60 l0 -60 -55 0 -55 0 0 -56 c0 -54 0 -55 -27
-52 -28 3 -28 4 -31 86 -3 80 -3 82 -27 82 -21 0 -25 5 -25 31 0 27 -3 30 -27
27 -22 -2 -28 -8 -28 -28 0 -20 6 -26 28 -28 24 -3 28 -7 25 -30 -2 -21 -9
-28 -30 -30 -22 -3 -28 -9 -28 -28 0 -19 -5 -24 -25 -24 -20 0 -25 5 -25 25 0
24 -3 25 -55 25 -54 0 -55 0 -55 30 0 27 -3 30 -30 30 -30 0 -30 -1 -30 -55 0
-54 0 -55 30 -55 27 0 30 -3 30 -30 0 -27 -3 -30 -30 -30 -25 0 -30 -4 -30
-25 0 -21 5 -25 30 -25 27 0 30 -3 30 -30 0 -30 1 -30 55 -30 52 0 55 -2 55
-24 0 -19 -6 -25 -27 -28 l-28 -3 -3 -112 -3 -113 -54 0 c-54 0 -55 0 -55 30
0 27 3 30 30 30 l31 0 -3 82 c-3 82 -3 83 -30 86 -25 3 -28 0 -28 -27 0 -26
-4 -31 -24 -31 -19 0 -25 -6 -28 -27 -2 -22 -9 -29 -30 -31 -22 -3 -28 -9 -28
-28 l0 -24 -116 0 -115 0 3 27 c3 27 6 28 61 31 53 3 57 5 57 27 0 20 5 25 25
25 20 0 25 -5 25 -25 0 -21 5 -25 31 -25 l30 0 -3 53 -3 52 -80 0 c-80 0 -80
0 -83 -28 -3 -26 -6 -27 -58 -27 -53 0 -54 0 -54 -30 0 -27 -3 -30 -30 -30
-25 0 -30 -4 -30 -25 0 -20 -5 -25 -25 -25 -21 0 -25 -5 -25 -30 0 -27 -3 -30
-30 -30 -25 0 -30 -4 -30 -25 0 -21 5 -25 30 -25 25 0 30 4 30 25 0 20 5 25
25 25 24 0 25 -3 25 -55 0 -52 -1 -55 -25 -55 -20 0 -25 -5 -25 -25 0 -24 3
-25 55 -25 l55 0 0 80 0 80 85 0 c84 0 85 0 85 -25 0 -24 3 -25 55 -25 l55 0
0 -85 0 -85 140 0 140 0 0 55 0 55 -54 0 c-52 0 -55 -1 -58 -28 -3 -26 -5 -27
-58 -27 -52 0 -55 1 -58 27 -3 26 -2 27 55 30 55 3 58 4 61 30 3 22 9 28 28
28 19 0 24 5 24 25 0 24 3 25 55 25 54 0 55 0 55 30 0 27 3 30 30 30 25 0 30
4 30 25 0 21 -5 25 -30 25 -25 0 -30 -4 -30 -25 0 -20 -5 -25 -25 -25 -21 0
-25 5 -25 30 0 25 4 30 25 30 20 0 25 5 25 25 0 21 5 25 30 25 25 0 30 -4 30
-25 0 -20 5 -25 25 -25 20 0 25 5 25 25 0 21 5 25 30 25 27 0 30 3 30 30 0 27
3 30 30 30 l31 0 -3 -57 c-3 -55 -4 -58 -30 -61 -22 -3 -28 -9 -28 -28 0 -22
3 -24 54 -24 52 0 55 -1 58 -27 2 -22 9 -29 31 -31 26 -3 27 -6 27 -58 0 -53
0 -54 -30 -54 -30 0 -30 -1 -30 -55 l0 -55 115 0 115 0 0 25 c0 21 -5 25 -30
25 -27 0 -30 3 -30 30 0 30 1 30 55 30 54 0 55 0 55 30 0 27 3 30 30 30 27 0
30 -3 30 -30 l0 -30 141 0 140 0 -3 -27 c-2 -22 -9 -29 -30 -31 -22 -3 -28 -9
-28 -28 0 -24 0 -24 110 -24 l110 0 0 24 c0 23 -4 25 -52 28 -49 3 -53 5 -56
31 -3 21 -9 27 -27 27 -18 0 -24 6 -27 27 -2 22 -9 29 -30 31 -22 3 -28 9 -28
28 0 20 5 24 30 24 27 0 30 3 30 30 0 25 4 30 24 30 19 0 25 -6 28 -27 2 -22
9 -29 31 -31 21 -3 27 -9 27 -28 0 -22 3 -24 55 -24 54 0 55 0 55 -30 0 -27 3
-30 30 -30 30 0 30 1 30 55 0 52 1 55 25 55 20 0 25 -5 25 -25 0 -21 5 -25 30
-25 27 0 30 -3 30 -30 0 -27 -3 -30 -30 -30 -25 0 -30 -4 -30 -25 0 -21 5 -25
30 -25 25 0 30 4 30 25 0 20 5 25 25 25 21 0 25 5 25 30 0 25 -4 30 -25 30
-20 0 -25 5 -25 25 0 20 5 25 25 25 21 0 25 5 25 30 l0 30 -80 0 c-79 0 -80 0
-80 25 0 21 -5 25 -30 25 -30 0 -30 -1 -30 -55 l0 -55 -55 0 c-54 0 -55 0 -55
30 0 25 4 30 25 30 20 0 25 5 25 25 0 20 -5 25 -25 25 -21 0 -25 5 -25 30 0
25 4 30 25 30 21 0 25 5 25 30 0 25 -4 30 -25 30 -20 0 -25 5 -25 25 0 25 1
25 85 25 83 0 85 0 85 -24 0 -19 -6 -25 -27 -28 -22 -2 -29 -9 -31 -31 -3 -27
-2 -27 52 -27 53 0 56 -1 56 -25 0 -22 4 -24 58 -27 54 -3 57 -4 60 -31 3 -21
9 -27 27 -27 18 0 24 6 27 28 2 21 8 27 28 27 20 0 26 -6 28 -28 3 -26 6 -27
58 -27 53 0 54 0 54 -30 0 -27 -3 -30 -30 -30 -25 0 -30 -4 -30 -25 0 -24 -3
-25 -55 -25 -54 0 -55 0 -55 -30 0 -30 1 -30 55 -30 52 0 55 -1 55 -25 0 -21
5 -25 30 -25 27 0 30 -3 30 -30 0 -30 1 -30 55 -30 52 0 55 2 55 24 0 19 -6
25 -27 28 -27 3 -28 6 -31 61 -3 53 -5 57 -27 57 -20 0 -25 5 -25 25 0 21 5
25 30 25 25 0 30 -4 30 -25 0 -20 5 -25 25 -25 21 0 25 -5 25 -30 0 -27 3 -30
30 -30 25 0 30 -4 30 -25 0 -20 5 -25 25 -25 21 0 25 -5 25 -30 0 -27 3 -30
30 -30 27 0 30 3 30 30 0 30 1 30 55 30 54 0 55 0 55 -30 l0 -30 109 0 110 0
3 27 c2 22 9 29 31 31 21 3 27 9 27 28 0 22 -3 24 -54 24 -52 0 -55 -1 -58
-28 -3 -25 -7 -27 -55 -30 l-52 -3 -3 58 c-3 55 -4 58 -30 61 -22 3 -28 9 -28
28 0 24 0 24 110 24 l110 0 0 -25 c0 -24 3 -25 55 -25 l55 0 0 55 c0 52 -1 55
-25 55 l-25 0 0 140 0 140 30 0 c27 0 30 -3 30 -30 l0 -30 80 0 80 0 0 30 c0
25 -4 30 -25 30 -20 0 -25 5 -25 25 0 20 5 25 25 25 21 0 25 5 25 30 0 25 -4
30 -25 30 -21 0 -25 -5 -25 -30 0 -27 -3 -30 -30 -30 -27 0 -30 3 -30 30 0 27
-3 30 -30 30 -25 0 -30 4 -30 25 0 20 -5 25 -25 25 -20 0 -25 -5 -25 -25 0
-21 -5 -25 -30 -25 -25 0 -30 4 -30 25 0 20 -5 25 -25 25 -20 0 -25 -5 -25
-25 0 -20 5 -25 25 -25 21 0 25 -5 25 -30 0 -25 -4 -30 -25 -30 -20 0 -25 -5
-25 -25 0 -24 -3 -25 -55 -25 -52 0 -55 1 -55 25 0 20 5 25 25 25 21 0 25 5
25 30 0 25 -4 30 -25 30 -24 0 -25 3 -25 55 0 52 1 55 25 55 21 0 25 5 25 30
0 27 3 30 30 30 27 0 30 -3 30 -30 0 -25 4 -30 25 -30 20 0 25 -5 25 -25 0
-21 5 -25 30 -25 25 0 30 4 30 25 0 21 -5 25 -30 25 -27 0 -30 3 -30 30 0 25
-4 30 -25 30 -20 0 -25 5 -25 25 0 25 1 25 80 25 l80 0 0 30 0 30 -135 0 -135
0 0 25 c0 21 -5 25 -30 25 -27 0 -30 3 -30 30 0 27 3 30 30 30 25 0 30 -4 30
-25 0 -20 5 -25 25 -25 20 0 25 5 25 25 0 24 3 25 55 25 52 0 55 -1 55 -25 0
-24 3 -25 55 -25 52 0 55 1 55 25 0 24 -3 25 -55 25 -54 0 -55 0 -55 30 0 27
3 30 30 30 30 0 30 1 30 55 0 54 0 55 30 55 27 0 30 -3 30 -30 0 -25 4 -30 25
-30 24 0 25 3 25 60 l0 60 55 0 c52 0 55 1 55 25 0 20 -5 25 -25 25 -24 0 -25
3 -25 55 0 54 0 55 -30 55 -27 0 -30 3 -30 30 0 30 1 30 55 30 52 0 55 1 55
25 0 20 -5 25 -25 25 -21 0 -25 5 -25 30 0 27 -3 30 -30 30 -27 0 -30 3 -30
30 0 27 3 30 30 30 25 0 30 4 30 25 0 20 5 25 25 25 21 0 25 5 25 30 0 25 -4
30 -25 30 -21 0 -25 -5 -25 -30 l0 -30 -85 0 c-84 0 -85 0 -85 -25 0 -25 -1
-25 -85 -25 -84 0 -85 0 -85 25 0 20 -5 25 -25 25 -20 0 -25 -5 -25 -25 0 -21
-5 -25 -30 -25 -30 0 -30 1 -30 55 l0 55 165 0 165 0 0 25 c0 20 -5 25 -25 25
-21 0 -25 5 -25 30 0 27 3 30 30 30 27 0 30 -3 30 -30 0 -25 4 -30 25 -30 24
0 25 3 25 60 l0 60 55 0 c52 0 55 1 55 25 0 24 -3 25 -55 25 -54 0 -55 0 -55
30 0 27 3 30 30 30 30 0 30 1 30 55 0 52 1 55 25 55 20 0 25 5 25 25 0 24 -3
25 -55 25 -52 0 -55 -1 -55 -25 0 -20 -5 -25 -24 -25 -19 0 -25 -6 -28 -27 -2
-22 -9 -29 -30 -31 -22 -3 -28 -9 -28 -28 0 -20 -5 -24 -30 -24 -25 0 -30 4
-30 25 0 24 -3 25 -55 25 -54 0 -55 0 -55 30 0 25 -4 30 -25 30 -21 0 -25 -5
-25 -30 0 -25 4 -30 25 -30 20 0 25 -5 25 -25 0 -24 -3 -25 -55 -25 -52 0 -55
1 -55 25 0 20 -5 25 -25 25 -20 0 -25 -5 -25 -25 0 -20 5 -25 25 -25 24 0 25
-3 25 -60 l0 -60 -55 0 c-52 0 -55 -1 -55 -25 0 -21 -5 -25 -30 -25 -27 0 -30
3 -30 30 0 27 3 30 30 30 25 0 30 4 30 25 0 20 5 25 25 25 21 0 25 5 25 30 0
25 -4 30 -25 30 -21 0 -25 -5 -25 -30 0 -27 -3 -30 -30 -30 -27 0 -30 3 -30
30 0 30 -1 30 -55 30 -52 0 -55 1 -55 25 0 24 3 25 55 25 54 0 55 0 55 30 0
27 3 30 30 30 27 0 30 -3 30 -30 0 -25 4 -30 25 -30 21 0 25 5 25 30 0 25 -4
30 -25 30 -20 0 -25 5 -25 24 0 19 -6 25 -27 28 -22 2 -29 9 -31 31 -3 26 -6
27 -58 27 -53 0 -54 0 -54 30 0 25 -4 30 -25 30 -25 0 -25 -1 -25 -85 0 -84 0
-85 25 -85 21 0 25 -5 25 -30 0 -25 -4 -30 -25 -30 -20 0 -25 -5 -25 -25 0
-21 -5 -25 -30 -25 -25 0 -30 4 -30 25 0 20 5 25 25 25 21 0 25 5 25 30 0 30
-1 30 -55 30 -52 0 -55 1 -55 25 0 20 -5 25 -25 25 -20 0 -25 -5 -25 -25 0
-20 5 -25 25 -25 21 0 25 -5 25 -30 0 -30 -1 -30 -55 -30 -54 0 -55 0 -55 30
0 27 -3 30 -31 30 -27 0 -30 3 -27 28 2 21 9 28 31 30 21 3 27 9 27 28 0 22
-3 24 -55 24 l-55 0 0 -55 0 -55 -55 0 -55 0 0 55 c0 52 1 55 25 55 24 0 25 3
25 55 0 52 -1 55 -25 55 -21 0 -25 5 -25 30 0 25 4 30 25 30 20 0 25 5 25 25
0 20 -5 25 -25 25 -20 0 -25 -5 -25 -25z m-230 -110 c0 -20 -5 -25 -25 -25
-20 0 -25 5 -25 25 0 20 5 25 25 25 20 0 25 -5 25 -25z m120 0 c0 -20 5 -25
25 -25 20 0 25 5 25 25 0 21 5 25 30 25 30 0 30 -1 30 -55 l0 -56 -57 3 c-55
3 -58 4 -61 31 -3 21 -9 27 -28 27 -19 0 -24 5 -24 25 0 21 5 25 30 25 25 0
30 -4 30 -25z m50 -165 c0 -27 3 -30 30 -30 30 0 30 -1 30 -55 l0 -55 -115 0
-115 0 0 55 0 55 55 0 c51 0 55 2 55 23 0 30 7 37 37 37 19 0 23 -5 23 -30z
m618 -2 c3 -25 0 -28 -27 -28 -28 0 -31 3 -31 31 0 27 3 30 28 27 21 -2 28 -9
30 -30z m-1288 -113 c0 -21 -5 -25 -30 -25 -25 0 -30 4 -30 25 0 21 5 25 30
25 25 0 30 -4 30 -25z m450 -30 c0 -54 0 -55 -30 -55 -30 0 -30 1 -30 55 0 54
0 55 30 55 30 0 30 -1 30 -55z m450 30 c0 -24 -3 -25 -60 -25 -57 0 -60 1 -60
25 0 24 3 25 60 25 57 0 60 -1 60 -25z m220 -55 c0 -27 3 -30 31 -30 27 0 30
-3 27 -27 -2 -22 -9 -29 -30 -31 -25 -3 -28 0 -28 27 0 28 -3 31 -30 31 -27 0
-30 3 -30 30 0 27 3 30 30 30 27 0 30 -3 30 -30z m730 0 c0 -27 -3 -30 -30
-30 -27 0 -30 3 -30 30 0 27 3 30 30 30 27 0 30 -3 30 -30z m-1902 -57 c-2
-22 -9 -29 -30 -31 -25 -3 -28 0 -28 27 0 28 3 31 31 31 27 0 30 -3 27 -27z
m222 -58 l0 -85 -85 0 -85 0 0 85 0 85 85 0 85 0 0 -85z m560 60 c0 -20 5 -25
25 -25 20 0 25 5 25 25 0 21 5 25 30 25 25 0 30 -4 30 -25 0 -20 5 -25 25 -25
20 0 25 5 25 25 0 24 3 25 61 25 60 0 60 0 57 -27 -2 -22 -9 -29 -30 -31 -22
-3 -28 -9 -28 -28 0 -20 5 -24 30 -24 27 0 30 -3 30 -30 0 -25 4 -30 25 -30
21 0 25 5 25 30 l0 30 61 0 c60 0 60 0 57 -27 -3 -27 -6 -28 -60 -31 -54 -3
-58 -5 -58 -27 0 -20 -5 -25 -25 -25 -21 0 -25 -5 -25 -30 0 -25 4 -30 25 -30
20 0 25 -5 25 -25 0 -22 4 -24 58 -27 54 -3 57 -4 60 -30 l3 -28 110 0 110 0
-3 28 c-2 21 -9 28 -30 30 -22 3 -28 9 -28 28 0 19 -5 24 -25 24 -20 0 -25 -5
-25 -25 0 -21 -5 -25 -30 -25 l-30 0 0 80 0 79 83 3 c81 3 82 3 85 31 3 23 8
27 33 27 26 0 29 -3 29 -30 0 -25 4 -30 25 -30 20 0 25 -5 25 -25 0 -20 -5
-25 -24 -25 -19 0 -25 -6 -28 -27 -2 -22 -9 -29 -30 -31 -22 -3 -28 -9 -28
-27 0 -18 6 -24 28 -27 21 -2 28 -9 30 -30 3 -22 9 -28 28 -28 19 0 24 -5 24
-25 0 -24 3 -25 55 -25 54 0 55 0 55 -30 0 -30 1 -30 54 -30 52 0 55 1 58 28
3 25 7 27 56 30 48 3 52 5 52 28 0 19 -5 24 -25 24 -21 0 -25 5 -25 31 0 27 3
30 28 27 21 -2 28 -9 30 -30 3 -22 9 -28 28 -28 20 0 24 -5 24 -30 0 -25 -4
-30 -25 -30 -20 0 -25 -5 -25 -25 0 -21 -5 -25 -30 -25 -30 0 -30 -1 -30 -55
l0 -55 -55 0 c-52 0 -55 1 -55 25 0 21 -5 25 -30 25 -25 0 -30 -4 -30 -25 0
-20 -5 -25 -25 -25 -22 0 -24 -4 -27 -57 -3 -55 -4 -58 -30 -61 -22 -3 -28 -9
-28 -28 0 -22 3 -24 54 -24 52 0 55 1 58 28 3 25 7 27 56 30 48 3 52 5 52 28
0 22 3 24 54 24 52 0 55 1 58 28 2 21 9 28 31 30 24 3 27 0 27 -27 0 -26 -4
-31 -24 -31 -19 0 -25 -6 -28 -27 -2 -22 -9 -29 -30 -31 -22 -3 -28 -9 -28
-27 0 -18 -6 -24 -27 -27 -22 -2 -29 -9 -31 -30 -3 -22 -9 -28 -28 -28 -20 0
-24 5 -24 30 0 27 -3 30 -30 30 -27 0 -30 -3 -30 -30 0 -30 -1 -30 -55 -30
l-55 0 0 -55 0 -55 -55 0 -55 0 0 -85 c0 -84 0 -85 25 -85 21 0 25 5 25 30 l0
30 60 0 60 0 0 -30 c0 -25 4 -30 25 -30 20 0 25 -5 25 -25 0 -20 -5 -25 -25
-25 -21 0 -25 -5 -25 -30 0 -30 -1 -30 -55 -30 -52 0 -55 -1 -55 -25 0 -20 5
-25 25 -25 24 0 25 -3 25 -60 l0 -60 -55 0 c-52 0 -55 -2 -55 -24 0 -19 6 -25
28 -28 21 -2 28 -9 30 -31 3 -21 9 -27 28 -27 20 0 24 5 24 30 0 27 3 30 30
30 27 0 30 -3 30 -30 0 -27 -3 -30 -30 -30 l-30 0 0 -85 0 -85 -55 0 -55 0 0
-55 c0 -52 1 -55 25 -55 21 0 25 5 25 30 0 27 3 30 30 30 27 0 30 -3 30 -30 0
-25 -4 -30 -25 -30 -20 0 -25 -5 -25 -25 0 -20 5 -25 25 -25 21 0 25 -5 25
-30 0 -30 -1 -30 -54 -30 -52 0 -55 1 -58 27 -2 22 -9 29 -30 31 -25 3 -28 0
-28 -27 0 -26 -4 -31 -24 -31 -19 0 -25 6 -28 28 -2 21 -9 28 -30 30 -28 3
-28 4 -28 83 0 78 0 79 -25 79 -20 0 -25 -5 -25 -25 0 -21 -5 -25 -30 -25 -27
0 -30 3 -30 30 0 25 4 30 25 30 20 0 25 5 25 25 0 24 -3 25 -55 25 l-55 0 0
55 c0 54 0 55 30 55 25 0 30 -4 30 -25 0 -20 5 -25 25 -25 20 0 25 5 25 25 l0
25 115 0 115 0 0 30 c0 30 -1 30 -55 30 l-55 0 0 55 c0 54 0 55 -30 55 l-30 0
0 109 0 110 -27 3 c-22 2 -29 9 -31 31 -3 21 -9 27 -28 27 -19 0 -24 5 -24 24
0 19 -6 25 -27 28 -22 2 -29 9 -31 31 -3 24 0 27 27 27 28 0 31 3 31 30 0 25
4 30 25 30 20 0 25 5 25 25 0 20 -5 25 -25 25 -21 0 -25 5 -25 30 0 27 -3 30
-30 30 -25 0 -30 4 -30 25 0 20 -5 25 -25 25 -20 0 -25 -5 -25 -25 0 -25 -1
-25 -85 -25 l-85 0 0 -30 c0 -27 -3 -30 -30 -30 -25 0 -30 -4 -30 -25 0 -24
-3 -25 -55 -25 -52 0 -55 1 -55 25 0 24 3 25 55 25 54 0 55 0 55 30 0 25 -4
30 -25 30 -20 0 -25 5 -25 25 0 21 -5 25 -30 25 -27 0 -30 3 -30 29 0 25 -4
30 -27 33 -22 2 -29 9 -31 31 -3 21 -9 27 -28 27 -22 0 -24 3 -24 55 0 52 1
55 25 55 20 0 25 5 25 25 0 20 -5 25 -25 25 -21 0 -25 5 -25 30 0 27 -3 30
-31 30 -27 0 -30 3 -27 28 2 21 9 28 31 30 21 3 27 9 27 28 0 19 5 24 25 24
24 0 25 3 25 55 0 54 0 55 30 55 27 0 30 3 30 30 0 30 -1 30 -55 30 -55 0 -55
0 -55 -31 0 -27 -3 -30 -27 -27 -27 3 -28 5 -28 58 l0 55 53 3 c48 3 52 5 52
28 0 23 3 24 60 24 57 0 60 -1 60 -25z m558 -2 c-2 -22 -8 -28 -28 -28 -20 0
-26 6 -28 28 -3 24 0 27 28 27 28 0 31 -3 28 -27z m442 -58 l0 -85 -80 0 -80
0 0 85 0 85 80 0 80 0 0 -85z m-1280 5 c0 -27 -3 -30 -30 -30 -27 0 -30 -3
-30 -30 0 -25 -4 -30 -25 -30 -21 0 -25 5 -25 30 0 25 4 30 25 30 21 0 25 5
25 30 0 27 3 30 30 30 27 0 30 -3 30 -30z m-502 -57 c-2 -22 -9 -29 -30 -31
-25 -3 -28 0 -28 27 0 28 3 31 31 31 27 0 30 -3 27 -27z m332 -58 c0 -20 -5
-25 -24 -25 -19 0 -25 -6 -28 -27 -2 -22 -9 -29 -30 -31 -25 -3 -28 0 -28 27
0 26 4 31 25 31 20 0 25 5 25 25 0 21 5 25 30 25 25 0 30 -4 30 -25z m895 -55
c0 -20 -6 -26 -27 -28 -25 -3 -28 0 -28 28 0 28 3 31 28 28 21 -2 27 -8 27
-28z m-1065 -280 c0 -27 3 -30 30 -30 25 0 30 -4 30 -25 0 -21 -5 -25 -30 -25
-25 0 -30 4 -30 25 0 20 -5 25 -25 25 -24 0 -25 -3 -25 -55 0 -54 0 -55 -30
-55 -30 0 -30 1 -30 55 0 54 0 55 30 55 27 0 30 3 30 30 0 25 4 30 25 30 21 0
25 -5 25 -30z m-560 -280 c0 -25 -4 -30 -25 -30 -21 0 -25 5 -25 30 0 25 4 30
25 30 21 0 25 -5 25 -30z m450 0 c0 -25 -4 -30 -25 -30 -20 0 -25 -5 -25 -25
0 -21 -5 -25 -30 -25 -30 0 -30 1 -30 55 l0 55 55 0 c54 0 55 0 55 -30z m110
-55 l0 -85 30 0 c30 0 30 -1 30 -55 0 -55 0 -55 -31 -55 -27 0 -30 -3 -27 -27
2 -22 9 -29 31 -31 l28 -3 -3 -82 c-3 -81 -3 -82 -30 -85 -22 -3 -28 -9 -28
-28 0 -20 5 -24 30 -24 30 0 30 -1 30 -55 0 -54 0 -55 -30 -55 -27 0 -30 -3
-30 -30 0 -25 -4 -30 -25 -30 -21 0 -25 5 -25 30 0 27 -3 30 -30 30 -27 0 -30
-3 -30 -31 0 -27 -3 -30 -27 -27 -22 2 -28 8 -28 28 0 20 6 26 28 28 26 3 27
6 27 58 0 53 0 54 -30 54 -25 0 -30 4 -30 25 0 20 -5 25 -25 25 -24 0 -25 3
-25 60 0 57 1 60 25 60 20 0 25 5 25 25 0 21 5 25 30 25 30 0 30 -1 30 -55 0
-52 -1 -55 -25 -55 -20 0 -25 -5 -25 -25 0 -20 5 -25 25 -25 21 0 25 -5 25
-30 0 -27 3 -30 30 -30 l30 0 0 85 c0 84 0 85 25 85 20 0 25 5 25 25 0 20 -5
25 -25 25 -21 0 -25 5 -25 30 0 25 4 30 25 30 20 0 25 5 25 25 0 20 -5 25 -25
25 -21 0 -25 5 -25 30 0 27 -3 30 -30 30 -27 0 -30 3 -30 30 0 27 3 30 30 30
30 0 30 1 30 55 0 52 1 55 25 55 25 0 25 -1 25 -85z m-330 -55 l0 -30 -85 0
-85 0 0 30 0 30 85 0 85 0 0 -30z m1395 -280 c0 -23 -4 -25 -57 -28 l-58 -3 0
31 0 31 58 -3 c53 -3 57 -5 57 -28z m-1675 -195 l0 -55 195 0 195 0 0 -30 0
-30 -195 0 -195 0 0 30 c0 30 -1 30 -55 30 -52 0 -55 1 -55 25 0 20 5 25 25
25 21 0 25 5 25 30 0 27 3 30 30 30 30 0 30 -1 30 -55z m110 24 c0 -27 -3 -30
-27 -27 -22 2 -29 9 -31 31 -3 24 0 27 27 27 28 0 31 -3 31 -31z m280 1 c0
-30 -1 -30 -55 -30 -54 0 -55 0 -55 30 0 30 1 30 55 30 54 0 55 0 55 -30z
m730 -55 c0 -21 -5 -25 -30 -25 -27 0 -30 -3 -30 -30 0 -27 -3 -30 -30 -30
-27 0 -30 3 -30 30 0 27 3 30 30 30 25 0 30 4 30 25 0 21 5 25 30 25 25 0 30
-4 30 -25z m1110 -55 c0 -25 -4 -30 -25 -30 -21 0 -25 5 -25 30 0 25 4 30 25
30 21 0 25 -5 25 -30z m-890 -85 c0 -54 0 -55 -30 -55 -30 0 -30 1 -30 55 0
54 0 55 30 55 30 0 30 -1 30 -55z m-950 -25 c0 -27 3 -30 31 -30 27 0 30 -3
27 -27 -3 -27 -5 -28 -58 -28 l-55 0 -3 58 -3 57 31 0 c27 0 30 -3 30 -30z
m280 -55 l0 -85 -85 0 -85 0 0 85 0 85 85 0 85 0 0 -85z m110 55 c0 -27 3 -30
30 -30 30 0 30 -1 30 -55 0 -52 2 -55 24 -55 19 0 25 6 28 28 2 21 8 27 28 27
20 0 26 -6 28 -27 3 -25 0 -28 -27 -28 -28 0 -31 -3 -31 -30 0 -25 -4 -30 -25
-30 -20 0 -25 -5 -25 -25 0 -25 -1 -25 -85 -25 -84 0 -85 0 -85 25 0 24 3 25
55 25 54 0 55 0 55 30 0 27 -3 30 -30 30 l-30 0 0 78 c0 43 3 82 7 85 3 4 17
7 30 7 19 0 23 -5 23 -30z m1450 -55 l0 -85 -80 0 -80 0 0 85 0 85 80 0 80 0
0 -85z m-2790 -115 c0 -27 -3 -30 -30 -30 -27 0 -30 3 -30 30 0 27 3 30 30 30
27 0 30 -3 30 -30z m390 -55 c0 -21 -5 -25 -30 -25 -25 0 -30 4 -30 25 0 21 5
25 30 25 25 0 30 -4 30 -25z m670 -30 c0 -54 0 -55 -30 -55 -30 0 -30 1 -30
55 0 54 0 55 30 55 30 0 30 -1 30 -55z m1120 -25 c0 -27 -3 -30 -30 -30 -27 0
-30 3 -30 30 0 27 3 30 30 30 27 0 30 -3 30 -30z"/>
<path d="M2110 2135 c0 -20 5 -25 25 -25 20 0 25 5 25 25 0 20 -5 25 -25 25
-20 0 -25 -5 -25 -25z"/>
<path d="M2720 2135 c0 -21 5 -25 30 -25 27 0 30 -3 30 -30 0 -27 -3 -30 -30
-30 -25 0 -30 -4 -30 -25 0 -21 5 -25 30 -25 27 0 30 -3 30 -30 0 -27 -3 -30
-30 -30 -25 0 -30 -4 -30 -25 0 -24 -3 -25 -55 -25 -54 0 -55 0 -55 -30 0 -27
3 -30 30 -30 25 0 30 -4 30 -25 0 -24 3 -25 55 -25 l55 0 0 80 c0 79 0 80 25
80 l25 0 0 -110 0 -110 -80 0 -80 0 0 -55 c0 -52 1 -55 25 -55 21 0 25 -5 25
-30 0 -27 3 -30 30 -30 25 0 30 -4 30 -25 0 -20 5 -25 25 -25 20 0 25 5 25 25
0 21 5 25 30 25 27 0 30 3 30 31 0 27 3 30 28 27 25 -3 27 -7 30 -55 3 -49 5
-53 28 -53 23 0 24 2 24 79 0 79 0 80 28 83 21 2 28 9 30 31 3 21 9 27 28 27
22 0 24 -3 24 -55 0 -52 -1 -55 -25 -55 -21 0 -25 -5 -25 -30 0 -25 4 -30 25
-30 20 0 25 -5 25 -25 0 -25 1 -25 85 -25 84 0 85 0 85 25 0 21 -5 25 -31 25
-27 0 -30 3 -27 28 2 21 9 28 31 30 21 3 27 9 27 27 0 18 -6 24 -27 27 -22 2
-29 9 -31 31 -3 21 -9 27 -28 27 -20 0 -24 5 -24 30 0 25 4 30 25 30 20 0 25
5 25 25 0 24 -3 25 -55 25 -54 0 -55 0 -55 30 0 25 -4 30 -25 30 -20 0 -25 5
-25 25 0 21 -5 25 -30 25 -25 0 -30 -4 -30 -25 0 -21 5 -25 30 -25 27 0 30 -3
30 -30 0 -25 4 -30 25 -30 21 0 25 -5 25 -30 0 -25 -4 -30 -25 -30 -20 0 -25
-5 -25 -25 0 -21 -5 -25 -30 -25 -25 0 -30 4 -30 25 0 20 -5 25 -25 25 -20 0
-25 -5 -25 -25 0 -20 5 -25 25 -25 21 0 25 -5 25 -30 0 -30 -1 -30 -55 -30
l-55 0 0 60 c0 57 1 60 25 60 20 0 25 5 25 25 0 20 -5 25 -25 25 -24 0 -25 3
-25 55 0 54 0 55 -30 55 -27 0 -30 3 -30 30 l0 30 85 0 85 0 0 55 c0 52 -2 55
-24 55 -19 0 -25 -6 -28 -27 -3 -27 -5 -28 -58 -28 -53 0 -55 1 -58 28 -3 24
0 27 27 27 26 0 31 4 31 25 0 21 -5 25 -30 25 -25 0 -30 -4 -30 -25 0 -20 -5
-25 -25 -25 -20 0 -25 5 -25 25 0 21 -5 25 -30 25 -25 0 -30 -4 -30 -25z m170
-499 c0 -19 -6 -25 -27 -28 -22 -2 -29 -9 -31 -30 -3 -22 -9 -28 -28 -28 -22
0 -24 3 -24 55 l0 55 55 0 c52 0 55 -2 55 -24z m280 -56 c0 -27 -3 -30 -30
-30 -27 0 -30 3 -30 30 0 27 3 30 30 30 27 0 30 -3 30 -30z"/>
<path d="M3397 1993 c-4 -3 -7 -17 -7 -30 0 -19 5 -23 30 -23 27 0 30 3 30 30
0 25 -4 30 -23 30 -13 0 -27 -3 -30 -7z"/>
<path d="M3230 1745 c0 -20 5 -25 25 -25 20 0 25 5 25 25 0 20 -5 25 -25 25
-20 0 -25 -5 -25 -25z"/>
<path d="M3390 1745 c0 -21 5 -25 30 -25 25 0 30 4 30 25 0 21 -5 25 -30 25
-25 0 -30 -4 -30 -25z"/>
<path d="M3510 1745 c0 -20 5 -25 25 -25 20 0 25 5 25 25 0 20 -5 25 -25 25
-20 0 -25 -5 -25 -25z"/>
<path d="M3620 1690 c0 -30 -1 -30 -55 -30 -52 0 -55 -1 -55 -25 0 -24 3 -25
55 -25 52 0 55 1 55 25 0 20 5 25 25 25 21 0 25 5 25 30 0 25 -4 30 -25 30
-21 0 -25 -5 -25 -30z"/>
<path d="M3340 1635 c0 -24 3 -25 55 -25 52 0 55 1 55 25 0 24 -3 25 -55 25
-52 0 -55 -1 -55 -25z"/>
<path d="M3340 1525 c0 -24 3 -25 55 -25 52 0 55 1 55 25 0 24 -3 25 -55 25
-52 0 -55 -1 -55 -25z"/>
<path d="M2830 1465 c0 -21 5 -25 30 -25 25 0 30 4 30 25 0 21 -5 25 -30 25
-25 0 -30 -4 -30 -25z"/>
<path d="M3230 1410 c0 -25 4 -30 25 -30 20 0 25 -5 25 -25 0 -20 -5 -25 -25
-25 -21 0 -25 -5 -25 -30 0 -25 4 -30 25 -30 21 0 25 5 25 30 0 27 3 30 30 30
25 0 30 4 30 25 0 20 5 25 25 25 20 0 25 -5 25 -25 0 -21 5 -25 30 -25 25 0
30 4 30 25 0 21 -5 25 -30 25 -27 0 -30 3 -30 30 0 25 -4 30 -25 30 -21 0 -25
-5 -25 -30 0 -27 -3 -30 -30 -30 -27 0 -30 3 -30 30 0 25 -4 30 -25 30 -21 0
-25 -5 -25 -30z"/>
<path d="M3510 1410 c0 -25 4 -30 25 -30 21 0 25 5 25 30 0 25 -4 30 -25 30
-21 0 -25 -5 -25 -30z"/>
<path d="M3280 1185 c0 -24 3 -25 55 -25 52 0 55 1 55 25 0 24 -3 25 -55 25
-52 0 -55 -1 -55 -25z"/>
<path d="M3340 1020 l0 -80 55 0 c52 0 55 1 55 25 0 20 5 25 25 25 21 0 25 5
25 30 0 30 -1 30 -55 30 -52 0 -55 1 -55 25 0 20 -5 25 -25 25 -25 0 -25 -1
-25 -80z"/>
<path d="M3510 1075 c0 -24 3 -25 55 -25 52 0 55 1 55 25 0 24 -3 25 -55 25
-52 0 -55 -1 -55 -25z"/>
<path d="M3450 685 c0 -20 5 -25 25 -25 20 0 25 5 25 25 0 20 -5 25 -25 25
-20 0 -25 -5 -25 -25z"/>
<path d="M3230 631 c0 -31 0 -31 56 -31 54 0 55 0 52 28 -3 25 -7 27 -55 30
l-53 3 0 -30z"/>
<path d="M3390 575 c0 -21 5 -25 30 -25 25 0 30 4 30 25 0 21 -5 25 -30 25
-25 0 -30 -4 -30 -25z"/>
<path d="M3340 515 c0 -20 5 -25 25 -25 20 0 25 5 25 25 0 20 -5 25 -25 25
-20 0 -25 -5 -25 -25z"/>
<path d="M3340 405 c0 -20 5 -25 25 -25 20 0 25 5 25 25 0 20 -5 25 -25 25
-20 0 -25 -5 -25 -25z"/>
<path d="M3670 2135 c0 -21 5 -25 30 -25 25 0 30 4 30 25 0 21 -5 25 -30 25
-25 0 -30 -4 -30 -25z"/>
<path d="M2110 825 c0 -52 1 -55 25 -55 24 0 25 3 25 55 0 52 -1 55 -25 55
-24 0 -25 -3 -25 -55z"/>
<path d="M2110 575 c0 -20 5 -25 25 -25 20 0 25 5 25 25 0 20 -5 25 -25 25
-20 0 -25 -5 -25 -25z"/>
<path d="M3670 575 c0 -21 5 -25 30 -25 25 0 30 4 30 25 0 21 -5 25 -30 25
-25 0 -30 -4 -30 -25z"/>
<path d="M2890 2640 l0 -80 55 0 c52 0 55 2 55 24 0 19 -6 25 -27 28 -22 2
-28 8 -28 28 0 20 6 26 28 28 21 3 27 9 27 28 0 22 -3 24 -55 24 l-55 0 0 -80z"/>
<path d="M3730 2665 l0 -55 55 0 c52 0 55 -2 55 -24 0 -19 -6 -25 -27 -28 -22
-2 -29 -9 -31 -30 -3 -22 -9 -28 -28 -28 -19 0 -24 -5 -24 -25 0 -20 5 -25 25
-25 20 0 25 5 25 25 0 25 1 25 85 25 l85 0 0 30 c0 27 -3 30 -30 30 -25 0 -30
4 -30 25 0 20 -5 25 -25 25 -21 0 -25 5 -25 30 0 27 -3 30 -30 30 -25 0 -30 4
-30 25 0 20 -5 25 -25 25 -24 0 -25 -3 -25 -55z"/>
<path d="M4010 2695 c0 -24 -3 -25 -55 -25 -54 0 -55 0 -55 -30 l0 -30 80 0
80 0 0 55 c0 52 -1 55 -25 55 -20 0 -25 -5 -25 -25z"/>
<path d="M3110 2615 c0 -52 -1 -55 -25 -55 -21 0 -25 -5 -25 -30 0 -30 1 -30
55 -30 54 0 55 0 55 30 0 25 4 30 25 30 20 0 25 5 25 25 0 20 -5 25 -25 25
-21 0 -25 5 -25 30 0 27 -3 30 -30 30 -30 0 -30 -1 -30 -55z"/>
<path d="M2167 2553 c-4 -3 -7 -17 -7 -30 0 -19 5 -23 30 -23 27 0 30 3 30 30
0 25 -4 30 -23 30 -13 0 -27 -3 -30 -7z"/>
<path d="M2280 2530 c0 -25 4 -30 25 -30 21 0 25 5 25 30 0 25 -4 30 -25 30
-21 0 -25 -5 -25 -30z"/>
<path d="M2390 2475 c0 -20 5 -25 25 -25 20 0 25 5 25 25 0 20 -5 25 -25 25
-20 0 -25 -5 -25 -25z"/>
<path d="M3510 2415 c0 -20 5 -25 25 -25 20 0 25 5 25 25 0 20 -5 25 -25 25
-20 0 -25 -5 -25 -25z"/>
<path d="M3780 2415 c0 -24 3 -25 55 -25 52 0 55 1 55 25 0 24 -3 25 -55 25
-52 0 -55 -1 -55 -25z"/>
<path d="M1380 2360 c0 -28 3 -31 28 -28 21 2 27 8 27 28 0 20 -6 26 -27 28
-25 3 -28 0 -28 -28z"/>
<path d="M1490 2135 c0 -25 1 -25 85 -25 84 0 85 0 85 25 0 25 -1 25 -85 25
-84 0 -85 0 -85 -25z"/>
<path d="M4010 2080 c0 -25 4 -30 25 -30 21 0 25 5 25 30 0 25 -4 30 -25 30
-21 0 -25 -5 -25 -30z"/>
<path d="M1550 2025 c0 -20 5 -25 25 -25 20 0 25 5 25 25 0 20 -5 25 -25 25
-20 0 -25 -5 -25 -25z"/>
<path d="M1440 1970 c0 -27 -3 -30 -30 -30 -25 0 -30 -4 -30 -24 0 -19 6 -25
28 -28 25 -3 27 -7 30 -55 3 -49 5 -53 28 -53 l24 0 0 110 0 110 -25 0 c-21 0
-25 -5 -25 -30z"/>
<path d="M210 1915 c0 -20 5 -25 25 -25 20 0 25 5 25 25 0 20 -5 25 -25 25
-20 0 -25 -5 -25 -25z"/>
<path d="M1550 1915 c0 -20 5 -25 25 -25 20 0 25 5 25 25 0 20 -5 25 -25 25
-20 0 -25 -5 -25 -25z"/>
<path d="M1160 1860 c0 -27 -3 -30 -30 -30 -25 0 -30 -4 -30 -24 0 -19 6 -25
28 -28 21 -2 28 -9 30 -30 3 -25 0 -28 -27 -28 -26 0 -31 4 -31 25 0 20 -5 25
-25 25 -20 0 -25 -5 -25 -25 0 -20 5 -25 25 -25 24 0 25 -3 25 -55 0 -54 0
-55 30 -55 25 0 30 4 30 25 0 20 5 25 25 25 24 0 25 -3 25 -55 l0 -55 -55 0
c-52 0 -55 -1 -55 -25 0 -24 3 -25 55 -25 54 0 55 0 55 -30 0 -27 3 -30 30
-30 27 0 30 3 30 30 l0 30 86 0 85 0 -3 53 c-3 48 -5 52 -30 55 -22 3 -28 9
-28 28 0 19 -5 24 -25 24 -20 0 -25 -5 -25 -25 0 -20 5 -25 25 -25 21 0 25 -5
25 -30 0 -27 -3 -30 -30 -30 -27 0 -30 3 -30 30 0 25 -4 30 -25 30 -20 0 -25
5 -25 25 0 21 -5 25 -30 25 l-31 0 3 58 c3 54 4 57 31 60 21 3 27 9 27 28 0
19 5 24 25 24 21 0 25 5 25 30 l0 30 -80 0 -80 0 0 -30z"/>
<path d="M210 1805 c0 -20 5 -25 25 -25 20 0 25 5 25 25 0 20 -5 25 -25 25
-20 0 -25 -5 -25 -25z"/>
<path d="M1330 1775 l0 -55 55 0 c52 0 55 1 55 25 0 21 -5 25 -30 25 -27 0
-30 3 -30 30 0 25 -4 30 -25 30 -24 0 -25 -3 -25 -55z"/>
<path d="M2220 1805 c0 -20 5 -25 25 -25 20 0 25 5 25 25 0 20 -5 25 -25 25
-20 0 -25 -5 -25 -25z"/>
<path d="M1490 1745 c0 -21 5 -25 30 -25 25 0 30 4 30 25 0 21 -5 25 -30 25
-25 0 -30 -4 -30 -25z"/>
<path d="M1602 1718 c3 -49 5 -53 31 -56 27 -3 27 -2 27 52 0 56 0 56 -31 56
l-30 0 3 -52z"/>
<path d="M1830 1715 l0 -55 -55 0 c-52 0 -55 -1 -55 -25 0 -25 -1 -25 -85 -25
l-85 0 0 -30 c0 -25 4 -30 25 -30 20 0 25 -5 25 -25 0 -21 5 -25 30 -25 25 0
30 4 30 25 0 24 3 25 55 25 54 0 55 0 55 30 0 30 1 30 55 30 l55 0 0 80 c0 79
0 80 -25 80 -24 0 -25 -3 -25 -55z"/>
<path d="M2280 1715 c0 -52 1 -55 25 -55 24 0 25 3 25 55 0 52 -1 55 -25 55
-24 0 -25 -3 -25 -55z"/>
<path d="M1940 1690 c0 -25 4 -30 25 -30 21 0 25 5 25 30 0 25 -4 30 -25 30
-21 0 -25 -5 -25 -30z"/>
<path d="M1440 1635 c0 -20 5 -25 25 -25 20 0 25 5 25 25 0 20 -5 25 -25 25
-20 0 -25 -5 -25 -25z"/>
<path d="M2390 1635 c0 -20 5 -25 25 -25 20 0 25 5 25 25 0 20 -5 25 -25 25
-20 0 -25 -5 -25 -25z"/>
<path d="M990 1580 c0 -25 4 -30 25 -30 21 0 25 5 25 30 0 25 -4 30 -25 30
-21 0 -25 -5 -25 -30z"/>
<path d="M990 1386 c0 -52 1 -55 28 -58 21 -2 28 -9 30 -30 3 -22 9 -28 28
-28 19 0 24 -5 24 -25 0 -21 5 -25 30 -25 25 0 30 4 30 25 0 20 5 25 25 25 21
0 25 5 25 30 0 27 3 30 30 30 27 0 30 -3 30 -30 0 -25 4 -30 25 -30 24 0 25 3
25 55 l0 55 -55 0 c-52 0 -55 -1 -55 -25 0 -24 -3 -25 -55 -25 -52 0 -55 2
-55 24 0 19 -6 25 -27 28 -22 2 -29 9 -31 31 -3 21 -9 27 -28 27 -22 0 -24 -3
-24 -54z"/>
<path d="M2550 1300 l0 -80 30 0 c25 0 30 4 30 25 0 20 5 25 25 25 21 0 25 5
25 30 0 25 -4 30 -25 30 -20 0 -25 5 -25 25 0 21 -5 25 -30 25 l-30 0 0 -80z"/>
<path d="M3900 1300 c0 -25 4 -30 25 -30 21 0 25 -5 25 -30 0 -25 -4 -30 -25
-30 -20 0 -25 -5 -25 -25 0 -24 3 -25 55 -25 l55 0 0 -55 c0 -54 0 -55 -30
-55 -25 0 -30 4 -30 25 0 20 -5 25 -25 25 -25 0 -25 -1 -25 -80 l0 -80 55 0
55 0 0 55 c0 52 1 55 25 55 25 0 25 1 25 80 0 79 0 80 -25 80 -21 0 -25 5 -25
30 0 27 -3 30 -30 30 -27 0 -30 3 -30 30 0 25 -4 30 -25 30 -21 0 -25 -5 -25
-30z"/>
<path d="M710 1245 c0 -20 5 -25 25 -25 20 0 25 5 25 25 0 20 -5 25 -25 25
-20 0 -25 -5 -25 -25z"/>
<path d="M930 1245 c0 -24 3 -25 55 -25 52 0 55 1 55 25 0 24 -3 25 -55 25
-52 0 -55 -1 -55 -25z"/>
<path d="M820 1130 l0 -80 -30 0 c-25 0 -30 4 -30 25 0 20 -5 25 -25 25 -21 0
-25 5 -25 30 0 27 -3 30 -31 30 -27 0 -30 -3 -27 -27 2 -22 9 -29 31 -31 26
-3 27 -6 27 -58 0 -53 0 -54 -30 -54 -25 0 -30 -4 -30 -25 0 -21 5 -25 30 -25
l30 0 0 -60 c0 -57 1 -60 25 -60 22 0 24 4 27 58 3 54 4 57 31 60 21 3 27 9
27 28 0 22 3 24 55 24 54 0 55 0 55 -30 0 -25 -4 -30 -25 -30 -20 0 -25 -5
-25 -25 0 -24 3 -25 55 -25 l55 0 0 85 0 85 -55 0 c-52 0 -55 1 -55 25 0 20 5
25 25 25 21 0 25 5 25 30 0 25 -4 30 -25 30 -20 0 -25 5 -25 25 0 21 -5 25
-30 25 l-30 0 0 -80z"/>
<path d="M1440 1185 c0 -20 5 -25 25 -25 20 0 25 5 25 25 0 20 -5 25 -25 25
-20 0 -25 -5 -25 -25z"/>
<path d="M2390 1185 c0 -21 -5 -25 -30 -25 -27 0 -30 -3 -30 -31 0 -27 3 -30
28 -27 21 2 28 9 30 31 3 26 6 27 58 27 51 0 54 1 54 25 0 24 -3 25 -55 25
-52 0 -55 -1 -55 -25z"/>
<path d="M1440 1075 c0 -20 5 -25 25 -25 20 0 25 5 25 25 0 20 -5 25 -25 25
-20 0 -25 -5 -25 -25z"/>
<path d="M1160 1020 c0 -30 -1 -30 -55 -30 l-55 0 0 -55 0 -55 55 0 55 0 0 55
c0 52 1 55 25 55 24 0 25 -3 25 -55 0 -54 0 -55 30 -55 27 0 30 -3 30 -30 l0
-30 -85 0 c-84 0 -85 0 -85 -25 0 -21 5 -25 30 -25 27 0 30 -3 30 -30 0 -30 1
-30 55 -30 52 0 55 -1 55 -25 0 -20 5 -25 25 -25 24 0 25 3 25 55 0 52 -1 55
-25 55 -20 0 -25 5 -25 25 0 20 5 25 25 25 21 0 25 5 25 30 0 25 -4 30 -25 30
-21 0 -25 5 -25 30 0 25 4 30 25 30 20 0 25 5 25 25 0 24 -3 25 -55 25 -54 0
-55 0 -55 30 0 25 -4 30 -25 30 -21 0 -25 -5 -25 -30z"/>
<path d="M1550 965 c0 -20 5 -25 25 -25 20 0 25 5 25 25 0 20 -5 25 -25 25
-20 0 -25 -5 -25 -25z"/>
<path d="M262 853 c2 -22 8 -28 28 -28 20 0 26 6 28 28 3 24 0 27 -28 27 -28
0 -31 -3 -28 -27z"/>
<path d="M210 740 c0 -79 0 -80 25 -80 25 0 25 1 25 80 0 79 0 80 -25 80 -25
0 -25 -1 -25 -80z"/>
<path d="M320 795 c0 -20 5 -25 25 -25 20 0 25 5 25 25 0 20 -5 25 -25 25 -20
0 -25 -5 -25 -25z"/>
<path d="M770 795 c0 -22 -4 -24 -57 -27 -54 -3 -58 -5 -58 -28 0 -20 6 -26
28 -28 21 -3 27 -9 27 -27 0 -18 -6 -24 -27 -27 -22 -2 -29 -9 -31 -30 -3 -25
0 -28 27 -28 28 0 31 3 31 30 0 25 4 30 25 30 20 0 25 5 25 25 0 21 5 25 30
25 25 0 30 -4 30 -25 0 -20 -5 -25 -25 -25 -24 0 -25 -3 -25 -55 l0 -55 55 0
55 0 0 80 0 80 80 0 80 0 0 30 c0 25 -4 30 -25 30 -20 0 -25 5 -25 25 0 21 -5
25 -30 25 -25 0 -30 -4 -30 -25 0 -20 -5 -25 -25 -25 -21 0 -25 -5 -25 -30 0
-27 -3 -30 -30 -30 -30 0 -30 1 -30 55 0 52 -1 55 -25 55 -20 0 -25 -5 -25
-25z"/>
<path d="M370 685 c0 -24 3 -25 55 -25 52 0 55 1 55 25 0 24 -3 25 -55 25 -52
0 -55 -1 -55 -25z"/>
<path d="M540 685 c0 -24 3 -25 55 -25 52 0 55 1 55 25 0 24 -3 25 -55 25 -52
0 -55 -1 -55 -25z"/>
<path d="M3900 575 c0 -84 0 -85 25 -85 21 0 25 -5 25 -31 0 -27 3 -30 28 -27
21 2 28 9 30 31 3 21 9 27 28 27 19 0 24 5 24 25 0 20 -5 25 -25 25 -21 0 -25
5 -25 30 0 25 4 30 25 30 21 0 25 5 25 30 l0 30 -80 0 -80 0 0 -85z"/>
<path d="M210 405 l0 -195 195 0 195 0 0 195 0 195 -195 0 -195 0 0 -195z
m330 0 l0 -146 -137 3 -138 3 -3 129 c-1 72 0 136 2 143 4 10 39 13 141 13
l135 0 0 -145z"/>
<path d="M320 405 l0 -85 80 0 80 0 0 85 0 85 -80 0 -80 0 0 -85z"/>
<path d="M654 477 c-3 -8 -4 -45 -2 -83 3 -67 4 -69 31 -72 21 -3 27 -9 27
-28 0 -19 5 -24 25 -24 24 0 25 3 25 55 0 52 -1 55 -25 55 -24 0 -25 3 -25 55
0 52 -1 55 -25 55 -14 0 -28 -6 -31 -13z"/>
<path d="M1770 405 c0 -20 -5 -25 -25 -25 -22 0 -24 -4 -27 -57 -3 -55 -4 -58
-30 -61 -22 -3 -28 -9 -28 -28 0 -24 2 -24 85 -24 84 0 85 0 85 25 0 21 -5 25
-30 25 l-30 0 0 60 0 60 55 0 c52 0 55 1 55 25 0 24 -3 25 -55 25 -52 0 -55
-1 -55 -25z"/>
<path d="M1100 351 c0 -26 -4 -31 -25 -31 -20 0 -25 -5 -25 -25 0 -20 5 -25
25 -25 20 0 25 5 25 25 0 21 5 25 31 25 27 0 30 3 27 28 -2 21 -9 28 -30 30
-25 3 -28 0 -28 -27z"/>
<path d="M1600 295 c0 -21 5 -25 30 -25 25 0 30 4 30 25 0 21 -5 25 -30 25
-25 0 -30 -4 -30 -25z"/>
<path d="M3900 295 c0 -20 5 -25 25 -25 20 0 25 5 25 25 0 20 -5 25 -25 25
-20 0 -25 -5 -25 -25z"/>
<path d="M820 235 c0 -21 5 -25 30 -25 25 0 30 4 30 25 0 21 -5 25 -30 25 -25
0 -30 -4 -30 -25z"/>
<path d="M2220 235 c0 -20 5 -25 25 -25 20 0 25 5 25 25 0 20 -5 25 -25 25
-20 0 -25 -5 -25 -25z"/>
<path d="M2890 235 c0 -20 5 -25 25 -25 20 0 25 5 25 25 0 20 -5 25 -25 25
-20 0 -25 -5 -25 -25z"/>
<path d="M3000 235 c0 -24 3 -25 55 -25 52 0 55 1 55 25 0 24 -3 25 -55 25
-52 0 -55 -1 -55 -25z"/>
<path d="M3840 235 c0 -20 5 -25 25 -25 20 0 25 5 25 25 0 20 -5 25 -25 25
-20 0 -25 -5 -25 -25z"/>
<path d="M3950 235 c0 -21 5 -25 30 -25 25 0 30 4 30 25 0 21 -5 25 -30 25
-25 0 -30 -4 -30 -25z"/>
</g>
</svg>
