<svg xmlns="http://www.w3.org/2000/svg" width="486" height="87" viewBox="0 0 486 87" version="1.1"><path d="M 62 5.067 C 51.901 9.298, 46.964 23.719, 51.896 34.579 C 55.538 42.597, 64.695 46.716, 74.791 44.877 C 82.738 43.430, 89 37.025, 89 30.346 C 89 28.127, 88.650 28, 82.555 28 C 76.509 28, 76.027 28.171, 74.791 30.750 C 73.729 32.965, 72.801 33.500, 70.016 33.500 C 65.789 33.500, 64.037 30.703, 64.015 23.924 C 64.003 20.368, 64.538 18.843, 66.415 17.080 C 69.387 14.288, 72.096 14.922, 75.075 19.106 C 77.064 21.899, 77.571 22.074, 82.851 21.797 C 87.869 21.533, 88.536 21.245, 88.824 19.214 C 89.335 15.612, 84.590 8.512, 80.284 6.435 C 75.890 4.316, 65.626 3.549, 62 5.067 M 103.500 5.448 C 90.684 10.152, 86.686 29.190, 96.323 39.631 C 101.855 45.624, 113.494 47.327, 121.369 43.295 C 134.716 36.461, 135.777 16.393, 123.255 7.607 C 118.151 4.025, 109.849 3.118, 103.500 5.448 M 16.225 6.175 C 14.829 7.571, 14.461 40.604, 15.817 42.739 C 16.713 44.150, 44.741 45.529, 46.595 44.253 C 47.198 43.839, 47.956 41.816, 48.281 39.757 C 49.125 34.411, 47.562 33.262, 39.835 33.546 C 32.289 33.824, 30 33.342, 30 31.476 C 30 30.446, 31.871 30.012, 37.250 29.794 L 44.500 29.500 44.500 24.500 L 44.500 19.500 37 19 C 32.745 18.716, 29.605 18.067, 29.743 17.500 C 29.876 16.950, 33.455 16.367, 37.695 16.204 C 41.936 16.042, 45.905 15.494, 46.515 14.987 C 47.126 14.481, 47.597 12.139, 47.563 9.783 L 47.500 5.500 32.475 5.225 C 21.635 5.027, 17.108 5.292, 16.225 6.175 M 180.536 5.960 C 180.359 6.257, 179.204 10.325, 177.969 15 C 174.911 26.579, 174.509 27.105, 173.107 21.363 C 172.454 18.688, 171.251 14.138, 170.432 11.250 L 168.944 6 160.722 6 L 152.500 6 152.654 24.750 L 152.809 43.500 158.904 43.798 L 165 44.095 165.076 35.798 L 165.152 27.500 167.384 35.500 L 169.615 43.500 174.711 43.799 L 179.806 44.098 181.653 36.299 L 183.500 28.500 184 36 L 184.500 43.500 190.357 43.500 L 196.214 43.500 196.357 24.750 C 196.436 14.438, 196.275 5.989, 196 5.973 C 188.310 5.551, 180.784 5.545, 180.536 5.960 M 202.725 5.609 C 202.326 6.007, 202 14.819, 202 25.191 L 202 44.050 218.250 43.775 L 234.500 43.500 234.500 39 L 234.500 34.500 225.185 34.212 C 216.217 33.934, 215.883 33.841, 216.185 31.712 C 216.471 29.704, 217.099 29.489, 223 29.376 C 226.575 29.308, 229.950 29.196, 230.500 29.127 C 231.719 28.975, 231.845 20.751, 230.641 19.874 C 230.169 19.529, 226.916 19.478, 223.412 19.759 C 218.070 20.188, 216.937 19.999, 216.397 18.592 C 215.381 15.944, 216.622 15.505, 225.333 15.429 L 233.500 15.359 233.805 10.679 L 234.110 6 220.805 5.986 C 213.487 5.979, 206.589 5.728, 205.475 5.428 C 204.361 5.129, 203.123 5.210, 202.725 5.609 M 239 25 L 239 44 250.843 44 C 261.307 44, 263.198 43.729, 267.093 41.675 C 273.351 38.374, 275.963 33.390, 275.984 24.710 C 276.004 16.162, 273.731 11.341, 268.217 8.242 C 264.670 6.249, 262.829 6, 251.614 6 L 239 6 239 25 M 109.225 15.671 C 108.524 15.953, 107.260 17.830, 106.416 19.842 C 103.755 26.186, 106.561 34, 111.500 34 C 116.427 34, 119.245 26.187, 116.597 19.871 C 114.800 15.589, 112.578 14.322, 109.225 15.671 M 253 24.421 C 253 34.784, 253.270 35.201, 258.450 32.841 C 262.666 30.920, 263.932 22.346, 260.658 17.881 C 260.006 16.991, 258.015 15.943, 256.236 15.552 L 253 14.841 253 24.421 M 289.378 17.707 C 288.895 17.868, 288.581 23.962, 288.680 31.250 L 288.860 44.500 299.492 44.784 L 310.125 45.069 309.812 41.374 L 309.500 37.680 304 37.590 L 298.500 37.500 298.216 27.304 L 297.931 17.109 294.093 17.262 C 291.983 17.346, 289.861 17.546, 289.378 17.707 M 313.402 17.699 C 312.906 17.865, 312.550 23.962, 312.610 31.250 L 312.720 44.500 317.437 44.500 L 322.153 44.500 322.327 31.052 L 322.500 17.605 318.402 17.502 C 316.148 17.445, 313.898 17.534, 313.402 17.699 M 326.884 18.459 C 326.820 19.031, 326.790 25.125, 326.817 32 L 326.866 44.500 331.382 44.803 L 335.897 45.105 336.199 39.377 L 336.500 33.648 340.260 39.324 C 343.904 44.824, 344.159 45, 348.510 45 L 353 45 353 31.500 L 353 18 348.550 18 L 344.100 18 343.800 23.676 L 343.500 29.352 339.740 23.676 C 337.672 20.554, 335.647 17.945, 335.240 17.878 C 331.681 17.289, 326.978 17.616, 326.884 18.459 M 358.025 17.833 C 357.392 18.039, 357 23.303, 357 31.583 L 357 45 368.500 45 L 380 45 380 41.548 L 380 38.095 373.829 37.798 C 365.869 37.414, 364.672 35.235, 372.185 34.805 L 377.500 34.500 377.500 31 L 377.500 27.500 372.250 27.198 C 364.981 26.779, 365.656 25.159, 373.250 24.798 L 379.500 24.500 379.500 21.058 L 379.500 17.617 369.275 17.558 C 363.652 17.526, 358.589 17.650, 358.025 17.833 M -0 70.022 L 0 79.278 6.074 78.727 C 13.946 78.013, 16 76.215, 16 70.036 C 16 63.116, 14.487 61.689, 6.621 61.189 L -0 60.767 -0 70.022 M 19 70 L 19 79 22 79 L 25 79 25 70 L 25 61 22 61 L 19 61 19 70 M 32.727 63.197 C 32.437 64.464, 31.235 67.975, 30.055 71 C 28.876 74.025, 27.818 76.950, 27.705 77.500 C 27.356 79.203, 33.293 79.320, 34.526 77.634 C 35.685 76.049, 40 76.430, 40 78.117 C 40 79.254, 45.712 79.275, 46.414 78.139 C 46.706 77.666, 46.634 76.967, 46.252 76.585 C 45.871 76.204, 44.390 72.654, 42.961 68.696 C 40.451 61.743, 40.244 61.490, 36.808 61.197 C 33.795 60.941, 33.173 61.245, 32.727 63.197 M 49.039 63.189 C 46.240 66.193, 46.221 73.787, 49.005 76.775 C 50.685 78.579, 52.059 78.908, 57.505 78.816 L 64 78.705 64 73.852 L 64 69 59.883 69 C 56.032 69, 55.798 69.161, 56.245 71.500 C 56.783 74.313, 55.854 74.734, 54.011 72.513 C 52.475 70.662, 53.512 66, 55.460 66 C 56.242 66, 57.160 66.450, 57.500 67 C 58.514 68.640, 64 68.218, 64 66.500 C 64 61.251, 53.093 58.837, 49.039 63.189 M 67.823 69.523 C 67.646 74.211, 67.623 78.406, 67.774 78.846 C 67.925 79.286, 69.388 79.450, 71.024 79.210 C 73.685 78.819, 74.007 78.387, 74.064 75.137 L 74.128 71.500 75.755 74.771 C 77.597 78.472, 82.891 80.692, 84.292 78.350 C 84.728 77.622, 84.953 73.533, 84.792 69.263 L 84.500 61.500 81.500 61.500 C 78.752 61.500, 78.512 61.773, 78.647 64.750 C 78.729 66.537, 78.653 68, 78.479 68 C 78.305 68, 77.190 66.425, 76 64.500 C 74.348 61.827, 73.165 61, 70.992 61 L 68.147 61 67.823 69.523 M 90.636 62.277 C 88.404 63.909, 86.875 70.542, 88.031 73.581 C 89.447 77.305, 93.436 79.339, 98.099 78.714 C 105.843 77.675, 108.641 68.641, 102.975 62.975 C 100.668 60.668, 93.399 60.257, 90.636 62.277 M 109.655 62.829 C 107.917 64.749, 107.524 67.739, 108.765 69.605 C 109.169 70.213, 111.188 71.260, 113.250 71.933 C 115.313 72.605, 117 73.376, 117 73.645 C 117 73.914, 116.136 73.861, 115.080 73.525 C 111.352 72.342, 109.315 72.187, 108.019 72.988 C 105.563 74.506, 111.329 79, 115.732 79 C 124.292 79, 127.380 71.070, 119.972 68.113 L 117.500 67.127 120.250 67.063 C 123.359 66.992, 123.876 65.019, 121.429 62.571 C 119.189 60.332, 111.767 60.494, 109.655 62.829 M 125.743 61.750 C 124.665 63.909, 125.677 66.525, 127.702 66.813 C 129.634 67.088, 129.941 67.824, 130.202 72.813 C 130.496 78.427, 130.542 78.504, 133.750 78.813 L 137 79.127 137 72.501 C 137 66.203, 137.112 65.890, 139.250 66.187 C 141.056 66.438, 141.562 65.957, 141.816 63.750 L 142.133 61 134.125 61 C 129.721 61, 125.949 61.337, 125.743 61.750 M 144.957 61.250 C 144.933 61.388, 144.856 65.325, 144.786 70 L 144.658 78.500 147.579 78.500 L 150.500 78.500 150.789 69.750 L 151.078 61 148.039 61 C 146.368 61, 144.981 61.112, 144.957 61.250 M 155 70 L 155 79 157.937 79 C 160.519 79, 160.911 78.608, 161.187 75.750 L 161.500 72.500 163.432 75.694 C 165.319 78.812, 165.529 78.886, 172.405 78.821 C 176.649 78.781, 180.293 78.199, 181.581 77.355 C 183.431 76.143, 183.887 76.159, 184.981 77.477 C 186.370 79.151, 190.549 79.538, 191.452 78.077 C 191.766 77.570, 190.748 73.632, 189.191 69.327 C 186.406 61.628, 186.300 61.495, 182.680 61.190 C 180.183 60.979, 179 61.294, 179 62.168 C 179 64.110, 173.924 77.001, 173.163 76.993 C 172.405 76.985, 168.402 71.275, 167.525 68.952 C 167.177 68.030, 167.964 66.443, 169.471 65.028 C 172.923 61.785, 172.660 61, 168.122 61 C 165.232 61, 163.844 61.573, 162.674 63.250 L 161.105 65.500 161.052 63.250 C 161.010 61.428, 160.429 61, 158 61 L 155 61 155 70 M 351 70.006 L 351 79.133 353.750 78.816 C 356.125 78.543, 356.472 78.091, 356.292 75.500 L 356.083 72.500 357.571 75.816 C 359.521 80.161, 363.171 79.985, 364.125 75.500 L 364.763 72.500 364.882 75.816 C 364.989 78.822, 365.258 79.103, 367.750 78.816 C 370.491 78.501, 370.501 78.471, 370.789 69.750 L 371.078 61 367.077 61 C 363.226 61, 363.032 61.158, 361.877 65.250 L 360.677 69.500 359.504 65.500 C 358.441 61.873, 357.990 61.471, 354.666 61.190 L 351 60.879 351 70.006 M 375.386 69.436 C 373.674 74.113, 372.511 78.178, 372.803 78.469 C 374.026 79.692, 378.967 78.882, 379.844 77.315 C 380.728 75.735, 380.947 75.735, 383.358 77.315 C 386.141 79.139, 389.555 79.529, 390.424 78.122 C 390.723 77.640, 389.697 73.702, 388.146 69.372 C 385.422 61.773, 385.206 61.490, 381.912 61.217 L 378.500 60.933 375.386 69.436 M 393.211 69.750 L 393.500 78.500 396.500 78.500 C 399.176 78.500, 399.469 78.203, 399.212 75.750 C 398.982 73.555, 399.336 73, 400.962 73 C 402.569 73, 403 73.648, 403 76.063 C 403 78.917, 403.222 79.105, 406.250 78.813 C 408.848 78.563, 409.443 78.099, 409.214 76.500 C 409.057 75.400, 408.919 71.915, 408.908 68.755 C 408.882 61.812, 407.848 61, 399.027 61 L 392.922 61 393.211 69.750 M 412.973 61.250 C 412.958 61.388, 412.845 65.325, 412.723 70 L 412.500 78.500 415.682 78.808 C 418.627 79.094, 418.888 78.870, 419.185 75.808 L 419.505 72.500 421.250 75.695 C 422.970 78.844, 423.099 78.890, 430.207 78.823 C 434.174 78.785, 438.225 78.252, 439.210 77.637 C 440.549 76.801, 441.500 76.831, 442.986 77.759 C 445.227 79.159, 448.635 79.400, 449.370 78.211 C 449.638 77.777, 448.596 73.839, 447.054 69.461 C 444.338 61.749, 444.143 61.491, 440.815 61.201 L 437.380 60.902 434.578 68.951 C 433.037 73.378, 431.396 77, 430.930 77 C 430.465 77, 428.892 74.966, 427.436 72.481 C 424.699 67.811, 424.950 66.131, 428.750 63.700 C 431.130 62.178, 429.983 61, 426.122 61 C 423.232 61, 421.844 61.573, 420.674 63.250 L 419.105 65.500 419.052 63.250 C 419.010 61.428, 418.429 61, 416 61 C 414.350 61, 412.988 61.112, 412.973 61.250 M 452 63.500 C 452 65.646, 452.453 66, 455.203 66 L 458.406 66 454.618 69.880 C 451.950 72.611, 450.929 74.460, 451.165 76.130 C 451.480 78.361, 451.956 78.517, 459.250 78.792 C 466.961 79.083, 467 79.071, 467 76.542 C 467 74.277, 466.597 74, 463.297 74 L 459.594 74 463.297 70.208 C 465.722 67.724, 467 65.481, 467 63.708 C 467 61.005, 466.987 61, 459.500 61 C 452.167 61, 452 61.056, 452 63.500 M 470.211 69.750 L 470.500 78.500 473.500 78.500 L 476.500 78.500 476.789 69.750 L 477.078 61 473.500 61 L 469.922 61 470.211 69.750 M 197.500 70.003 L 197.500 78.002 203 78.119 C 210.499 78.280, 211.173 78.131, 213.750 75.739 C 215.313 74.289, 216 72.505, 216 69.898 C 216 64.253, 212.607 61.999, 204.115 62.002 L 197.500 62.004 197.500 70.003 M 219.475 69.625 C 217.564 73.819, 216 77.419, 216 77.625 C 216 77.831, 217.527 78, 219.393 78 C 221.487 78, 223.006 77.426, 223.362 76.500 C 223.678 75.675, 225.090 75, 226.500 75 C 227.910 75, 229.322 75.675, 229.638 76.500 C 229.997 77.435, 231.523 78, 233.690 78 C 235.602 78, 237.005 77.662, 236.808 77.250 C 236.611 76.838, 234.938 73.237, 233.091 69.250 C 229.888 62.335, 229.575 62, 226.341 62 C 223.086 62, 222.810 62.307, 219.475 69.625 M 236.383 67.250 C 241.361 78.331, 241.112 78, 244.461 78 C 247.708 78, 248.978 76.237, 253.646 65.250 L 255.027 62 251.622 62 C 248.925 62, 248.099 62.468, 247.652 64.250 C 247.341 65.487, 246.440 67.385, 245.648 68.467 C 244.286 70.329, 244.143 70.211, 242.947 66.217 C 241.748 62.215, 241.488 62, 237.854 62 L 234.025 62 236.383 67.250 M 256.455 64.455 C 254.907 66.002, 254 68.052, 254 70 C 254 74.868, 257.824 78.007, 263.705 77.968 C 268.806 77.934, 270.962 76.836, 272.837 73.316 C 274.662 69.888, 274.225 67.590, 271.195 64.687 C 267.322 60.976, 260.048 60.861, 256.455 64.455 M 275 70 L 275 78 285.500 78 C 294.167 78, 296 77.738, 296 76.500 C 296 75.512, 296.988 75, 298.893 75 C 300.542 75, 302.034 75.645, 302.362 76.500 C 302.817 77.686, 304.902 78, 312.314 78 C 320.127 78, 321.966 77.695, 323.345 76.171 C 324.255 75.165, 325 73.616, 325 72.728 C 325 70.658, 321.221 68, 318.277 68 C 317.025 68, 316 67.530, 316 66.955 C 316 66.310, 317.288 66.151, 319.360 66.540 C 321.967 67.029, 322.865 66.794, 323.364 65.495 C 324.395 62.808, 323.193 62, 318.163 62 C 307.944 62, 305.285 69.707, 314.845 71.619 C 316.580 71.966, 318 72.644, 318 73.125 C 318 74.263, 316.738 74.231, 313.529 73.011 C 311.497 72.238, 310.804 72.348, 310.357 73.511 C 309.371 76.081, 308.528 75.191, 305.613 68.500 C 302.914 62.304, 302.620 62, 299.334 62 C 296.020 62, 295.763 62.278, 292.736 69.130 C 291.004 73.052, 289.417 75.752, 289.210 75.130 C 289.003 74.509, 287.304 74, 285.436 74 C 282.645 74, 281.926 73.553, 281.410 71.497 C 281.064 70.121, 280.966 67.421, 281.190 65.497 C 281.584 62.125, 281.480 62, 278.299 62 L 275 62 275 70 M 326 70 L 326 78 329.289 78 C 332.221 78, 332.575 77.701, 332.539 75.250 C 332.509 73.145, 333.027 72.425, 334.750 72.180 C 336.664 71.909, 337 72.319, 337 74.930 C 337 77.727, 337.289 78, 340.250 78 L 343.500 78 343.500 70 L 343.500 62 340.250 62 C 337.289 62, 337 62.273, 337 65.070 C 337 67.681, 336.664 68.091, 334.750 67.820 C 333.027 67.575, 332.509 66.855, 332.539 64.750 C 332.575 62.299, 332.221 62, 329.289 62 L 326 62 326 70 M 6 70 C 6 74.327, 7.342 74.990, 9.423 71.690 C 10.179 70.493, 10.179 69.507, 9.423 68.310 C 7.342 65.010, 6 65.673, 6 70 M 94.500 68 C 93.643 70.699, 94.798 74, 96.599 74 C 98.513 74, 99.373 71.622, 98.589 68.498 C 97.837 65.503, 95.387 65.205, 94.500 68 M 204 70 C 204 73.309, 204.339 74, 205.965 74 C 207.045 74, 208.411 73.100, 209 72 C 210.392 69.400, 208.672 66, 205.965 66 C 204.339 66, 204 66.691, 204 70 M 261.655 67.829 C 259.455 70.259, 259.568 71.699, 262.064 73.034 C 265.753 75.008, 268.819 70.219, 265.800 67.200 C 264.190 65.590, 263.600 65.679, 261.655 67.829 M 399 67 C 399 67.550, 399.900 68, 401 68 C 402.100 68, 403 67.550, 403 67 C 403 66.450, 402.100 66, 401 66 C 399.900 66, 399 66.450, 399 67 M 36 70.441 C 36 71.298, 36.450 72, 37 72 C 37.550 72, 38 71.577, 38 71.059 C 38 70.541, 37.550 69.840, 37 69.500 C 36.450 69.160, 36 69.584, 36 70.441 M 182 70.441 C 182 71.298, 182.450 72, 183 72 C 183.550 72, 184 71.577, 184 71.059 C 184 70.541, 183.550 69.840, 183 69.500 C 182.450 69.160, 182 69.584, 182 70.441" stroke="none" fill="#141414" fill-rule="evenodd"/></svg>