<svg xmlns="http://www.w3.org/2000/svg" width="788" height="510" viewBox="0 0 788 510" version="1.1"><path d="M 376.735 1.016 C 356.590 3.331, 334.629 11.509, 318.925 22.543 C 308.320 29.995, 296.094 41.861, 288.475 52.099 C 277.068 67.426, 269.603 85, 274.500 85 C 275.325 85, 276 84.325, 276 83.500 C 276 82.675, 276.900 81.100, 278 80 C 279.100 78.900, 279.663 77.986, 279.250 77.968 C 278.837 77.951, 279.222 77.386, 280.104 76.714 C 280.987 76.042, 282.050 74.418, 282.466 73.106 C 283.481 69.910, 304.334 48.961, 310 45.447 C 319.433 39.595, 331.976 33.862, 341.062 31.250 C 349.770 28.746, 351.892 28.537, 368.500 28.546 C 392.347 28.560, 399.138 30.265, 420 41.476 C 424.675 43.989, 429.247 46.934, 430.160 48.022 C 431.073 49.110, 432.121 50, 432.489 50 C 433.592 50, 445 60.226, 445 61.215 C 445 61.718, 446.336 63.254, 447.970 64.628 C 449.603 66.002, 453.090 70.746, 455.720 75.170 C 458.349 79.594, 461.708 84.075, 463.184 85.128 C 470.061 90.032, 479.957 91.280, 488.290 88.293 C 491.988 86.968, 494.039 85.314, 497.287 81.038 C 501.330 75.716, 501.508 75.176, 501.852 67.195 C 502.204 59.022, 502.150 58.799, 498.457 53.195 C 493.632 45.874, 478.617 30.924, 469 23.865 C 460.663 17.746, 441.473 8.049, 433 5.674 C 416.970 1.180, 392.751 -0.826, 376.735 1.016 M 376 82 C 374.198 83.802, 374 85.333, 374 97.500 L 374 111 360.500 111 C 342.221 111, 343 110.134, 343 130.443 C 343 149.939, 342.104 149, 360.723 149 L 374 149 374 162.365 C 374 174.372, 374.211 175.998, 376.073 178.365 L 378.145 181 392.823 180.968 C 404.321 180.943, 407.933 180.610, 409.500 179.427 C 411.309 178.063, 411.531 176.536, 411.824 163.459 L 412.148 149 425.351 149 C 443.929 149, 443 150, 443 130 C 443 109.992, 443.940 111, 425.277 111 L 412 111 412 97.500 C 412 79.265, 412.798 80, 393 80 C 379.333 80, 377.822 80.178, 376 82 M 294.146 174.009 C 291.862 175.664, 288.653 179.151, 287.015 181.759 C 284.405 185.916, 284.036 187.424, 284.021 194 C 284.005 201.166, 284.195 201.789, 288.287 208 C 292.838 214.908, 306.850 230, 308.712 230 C 309.323 230, 310.879 231.238, 312.170 232.750 C 316.682 238.035, 334.420 248.114, 346.603 252.315 C 366.343 259.121, 368.788 259.500, 393 259.500 C 417.755 259.500, 420.256 259.084, 441.817 251.388 C 451.676 247.869, 468.475 238.142, 473.500 233.043 C 475.150 231.368, 476.920 229.999, 477.434 229.999 C 478.929 230.001, 493.237 214.997, 496.228 210.291 C 497.728 207.931, 499.442 206, 500.037 206 C 500.632 206, 500.857 205.578, 500.538 205.061 C 500.219 204.545, 500.533 203.758, 501.237 203.311 C 501.940 202.865, 503.821 200.025, 505.415 197 C 507.010 193.975, 509.173 190.266, 510.221 188.757 C 511.269 187.248, 511.846 185.561, 511.504 185.007 C 511.162 184.453, 511.359 184, 511.941 184 C 512.523 184, 513 182.200, 513 180 C 513 177.442, 512.549 176.017, 511.750 176.046 C 511.063 176.072, 508.029 179.922, 505.009 184.602 C 491.085 206.182, 465.958 224.448, 443.761 229.125 C 440.867 229.735, 438.019 230.619, 437.431 231.089 C 434.257 233.629, 400.913 233.724, 397.671 231.203 C 397.027 230.702, 393.350 229.519, 389.500 228.573 C 370.438 223.893, 350.744 211.115, 337.016 194.519 C 334.022 190.900, 330.656 186.265, 329.536 184.219 C 328.416 182.174, 326.825 179.952, 326 179.282 C 325.175 178.612, 324.929 178.049, 325.454 178.032 C 325.978 178.014, 323.953 176.437, 320.954 174.526 C 315.828 171.260, 314.983 171.050, 306.900 171.026 C 298.906 171.002, 298.007 171.212, 294.146 174.009 M 418 405.500 L 418 456 426.432 456 L 434.865 456 435.182 433.168 L 435.500 410.336 438.515 405.462 C 447.029 391.703, 466.716 391.555, 475.741 405.182 L 478.500 409.348 478.801 432.674 L 479.103 456 488.051 456 L 497 456 497 435.684 C 497 424.510, 496.510 412.715, 495.911 409.474 C 491.213 384.064, 462.908 369.883, 439.757 381.340 L 435 383.694 435 369.347 L 435 355 426.500 355 L 418 355 418 405.500 M 31.270 377.989 C 20.071 380.371, 8.748 389.216, 3.415 399.745 C 0.677 405.151, 0.500 406.228, 0.500 417.500 C 0.500 428.801, 0.672 429.839, 3.446 435.319 C 7.322 442.976, 17.091 452.145, 24.183 454.785 C 35.158 458.870, 48.630 458.535, 58.419 453.933 C 65.794 450.466, 73.472 442.818, 77.226 435.197 L 80.500 428.551 80.811 402.776 L 81.123 377 71.061 377 C 61.103 377, 61 377.025, 61 379.404 L 61 381.808 55.883 379.864 C 50 377.628, 37.457 376.673, 31.270 377.989 M 123.270 378.054 C 112.256 380.228, 100.769 389.173, 95.415 399.745 C 92.677 405.151, 92.500 406.228, 92.500 417.500 C 92.500 428.801, 92.672 429.839, 95.446 435.319 C 99.410 443.149, 109.049 452.105, 116.683 455.051 C 124.836 458.198, 140.158 458.254, 147.750 455.165 L 153 453.029 153 456.365 C 153 460.847, 151.253 465.788, 148.229 469.858 C 145.626 473.360, 137.130 477.973, 133.250 477.990 C 131.073 478, 131 478.312, 131 487.642 L 131 497.285 136.891 496.669 C 151.038 495.191, 162.975 486.889, 169.232 474.180 L 172.500 467.542 172.500 437.021 L 172.500 406.500 169.804 400.747 C 161.636 383.318, 142.898 374.180, 123.270 378.054 M 215.270 378.054 C 204.256 380.228, 192.769 389.173, 187.415 399.745 L 184.500 405.500 184.189 431.787 L 183.878 458.074 193.689 457.787 L 203.500 457.500 204 433.833 L 204.500 410.166 207.506 405.833 C 210.675 401.265, 219.335 396, 223.679 396 C 225.944 396, 226 395.771, 226 386.500 L 226 377 222.750 377.110 C 220.963 377.170, 217.596 377.595, 215.270 378.054 M 267.270 378.054 C 256.256 380.228, 244.769 389.173, 239.415 399.745 C 236.677 405.151, 236.500 406.228, 236.500 417.500 C 236.500 428.801, 236.672 429.839, 239.446 435.319 C 243.322 442.976, 253.091 452.145, 260.183 454.785 C 271.158 458.870, 284.630 458.535, 294.419 453.933 C 301.799 450.464, 309.472 442.818, 313.226 435.193 C 316.324 428.899, 316.500 427.951, 316.500 417.521 C 316.500 407.641, 316.221 405.904, 313.804 400.747 C 305.636 383.318, 286.898 374.180, 267.270 378.054 M 359.270 378.054 C 348.256 380.228, 336.769 389.173, 331.415 399.745 L 328.500 405.500 328.204 442.250 L 327.908 479 336.454 479 L 345 479 345 464.555 L 345 450.111 350.750 452.805 C 355.902 455.220, 357.644 455.500, 367.500 455.500 C 377.694 455.500, 378.926 455.284, 384.319 452.554 C 391.976 448.677, 401.146 438.909, 403.785 431.817 C 412.716 407.815, 398.991 382.612, 374.526 378.089 C 367.888 376.862, 365.338 376.856, 359.270 378.054 M 538.270 378.054 C 527.256 380.228, 515.769 389.173, 510.415 399.745 C 507.720 405.066, 507.500 406.331, 507.500 416.516 C 507.500 426.916, 507.681 427.900, 510.741 434.121 C 514.644 442.055, 521.792 449.075, 529.782 452.820 C 534.898 455.218, 536.659 455.500, 546.500 455.500 C 556.694 455.500, 557.926 455.284, 563.319 452.554 C 571.083 448.623, 580.081 438.967, 583.108 431.317 C 585.280 425.829, 585.413 424.141, 585.455 401.500 L 585.500 377.500 576.750 377.211 L 568 376.922 568 379.961 C 568 383.546, 567.993 383.547, 563.178 381.091 C 559.243 379.084, 549.418 376.924, 545.066 377.110 C 543.655 377.170, 540.596 377.595, 538.270 378.054 M 628.270 378.037 C 617.207 380.266, 605.763 389.184, 600.415 399.745 L 597.500 405.500 597.188 430.750 L 596.875 456 605.370 456 L 613.865 456 614.182 433.250 L 614.500 410.500 617.277 405.777 C 620.462 400.358, 626.851 396.098, 633.037 395.268 L 637.074 394.727 636.787 386.113 C 636.464 376.425, 636.429 376.392, 628.270 378.037 M 678.270 378.054 C 667.256 380.228, 655.769 389.173, 650.415 399.745 L 647.500 405.500 647.188 430.750 L 646.875 456 655.370 456 L 663.865 456 664.182 433.168 L 664.500 410.336 667.515 405.462 C 676.029 391.703, 695.716 391.555, 704.741 405.182 L 707.500 409.348 707.801 432.674 L 708.103 456 717.051 456 L 726 456 726 433.968 C 726 409.998, 726.485 407.295, 731.803 401.624 C 742.875 389.816, 763.908 394.850, 768.530 410.414 C 769.613 414.059, 770 420.718, 770 435.682 L 770 456 778.563 456 L 787.127 456 786.813 431.250 C 786.503 406.767, 786.471 406.438, 783.804 400.747 C 776.116 384.341, 758.623 374.945, 741.364 377.950 C 733.466 379.326, 728.205 381.798, 721.750 387.168 L 717 391.119 712.250 387.168 C 706.009 381.976, 700.748 379.424, 693.535 378.091 C 686.888 376.862, 684.339 376.856, 678.270 378.054 M 357.015 397.707 C 343.628 404.741, 341.130 421.416, 351.857 432.143 C 362.584 442.870, 379.259 440.372, 386.293 426.985 C 396.399 407.752, 376.248 387.601, 357.015 397.707 M 536.015 397.707 C 522.628 404.741, 520.130 421.416, 530.857 432.143 C 541.584 442.870, 558.259 440.372, 565.293 426.985 C 575.399 407.752, 555.248 387.601, 536.015 397.707 M 32.006 398.678 C 28.420 400.520, 25.469 403.005, 23.506 405.836 C 20.833 409.693, 20.500 410.983, 20.500 417.500 C 20.500 424.049, 20.823 425.288, 23.544 429.164 C 32.844 442.410, 50.777 441.285, 58.295 426.985 C 60.659 422.488, 61.104 420.581, 60.769 416.395 C 59.943 406.096, 52.066 397.754, 41.919 396.432 C 38.319 395.963, 36.482 396.379, 32.006 398.678 M 124.006 398.678 C 120.420 400.520, 117.469 403.005, 115.506 405.836 C 112.833 409.693, 112.500 410.983, 112.500 417.500 C 112.500 424.049, 112.823 425.288, 115.544 429.164 C 124.844 442.410, 142.777 441.285, 150.295 426.985 C 152.659 422.488, 153.104 420.581, 152.769 416.395 C 151.943 406.096, 144.066 397.754, 133.919 396.432 C 130.319 395.963, 128.482 396.379, 124.006 398.678 M 268.006 398.678 C 264.420 400.520, 261.469 403.005, 259.506 405.836 C 256.833 409.693, 256.500 410.983, 256.500 417.500 C 256.500 424.049, 256.823 425.288, 259.544 429.164 C 268.844 442.410, 286.777 441.285, 294.295 426.985 C 296.659 422.488, 297.104 420.581, 296.769 416.395 C 295.943 406.096, 288.066 397.754, 277.919 396.432 C 274.319 395.963, 272.482 396.379, 268.006 398.678 M 600.015 480.750 C 600.092 484.484, 608.077 485.849, 609.417 482.357 C 610.325 479.988, 609.356 479.501, 607.476 481.381 C 605.469 483.388, 604.553 483.410, 602.643 481.500 C 601.008 479.865, 599.991 479.575, 600.015 480.750 M 328 495.500 C 328 502.389, 328.284 504, 329.500 504 C 330.548 504, 331 502.944, 331 500.500 C 331 495.774, 333.846 495.798, 337.474 500.555 C 339.828 503.641, 340.665 504.070, 343.825 503.805 C 347.853 503.467, 348.457 502.403, 349.532 493.750 L 350.123 489 354.061 489 L 358 489 358 496.500 C 358 500.833, 358.422 504, 359 504 C 359.588 504, 360 500.500, 360 495.500 L 360 487 353.500 487 L 347 487 346.986 492.250 C 346.958 502.960, 344.205 505.327, 339.126 499.008 L 336.101 495.242 339.628 491.121 C 342.051 488.291, 342.676 487, 341.625 487 C 340.783 487, 338.648 488.800, 336.880 491 C 335.112 493.200, 333.066 495, 332.333 495 C 331.445 495, 331 493.666, 331 491 C 331 488.111, 330.583 487, 329.500 487 C 328.284 487, 328 488.611, 328 495.500 M 367 495.500 C 367 501.891, 367.329 504, 368.325 504 C 369.054 504, 372.092 500.988, 375.075 497.306 L 380.500 490.612 380.796 497.306 C 381.224 507.013, 383 505.558, 383 495.500 C 383 489.365, 382.652 487.001, 381.750 487.004 C 381.063 487.006, 378.250 489.795, 375.500 493.203 L 370.500 499.398 370.202 493.199 C 369.981 488.583, 369.534 487, 368.452 487 C 367.296 487, 367 488.735, 367 495.500 M 389 495.500 C 389 502.389, 389.284 504, 390.500 504 C 391.548 504, 392 502.944, 392 500.500 L 392 497 397 497 L 402 497 402 500.500 C 402 502.944, 402.452 504, 403.500 504 C 404.716 504, 405 502.389, 405 495.500 C 405 488.611, 404.716 487, 403.500 487 C 402.417 487, 402 488.111, 402 491 L 402 495 397 495 L 392 495 392 491 C 392 488.111, 391.583 487, 390.500 487 C 389.284 487, 389 488.611, 389 495.500 M 410 495.500 C 410 501.891, 410.329 504, 411.325 504 C 412.054 504, 415.092 500.988, 418.075 497.306 L 423.500 490.612 423.796 497.306 C 424.224 507.013, 426 505.558, 426 495.500 C 426 489.365, 425.652 487.001, 424.750 487.004 C 424.063 487.006, 421.250 489.795, 418.500 493.203 L 413.500 499.398 413.202 493.199 C 412.981 488.583, 412.534 487, 411.452 487 C 410.296 487, 410 488.735, 410 495.500 M 433 495.500 C 433 502.389, 433.284 504, 434.500 504 C 435.548 504, 436 502.944, 436 500.500 C 436 497.740, 436.398 497, 437.881 497 C 438.916 497, 440.964 498.575, 442.432 500.500 C 443.900 502.425, 445.808 504, 446.671 504 C 447.791 504, 447.214 502.747, 444.662 499.632 L 441.082 495.264 444.619 491.132 C 447.047 488.296, 447.676 487, 446.625 487 C 445.783 487, 443.648 488.800, 441.880 491 C 440.112 493.200, 438.066 495, 437.333 495 C 436.445 495, 436 493.666, 436 491 C 436 488.111, 435.583 487, 434.500 487 C 433.284 487, 433 488.611, 433 495.500 M 451.729 488.092 C 449.332 489.487, 450.543 491.315, 452.995 490.003 C 456.510 488.121, 459.971 488.795, 461.025 491.565 C 461.561 492.976, 462 494.326, 462 494.565 C 462 494.804, 459.782 495, 457.071 495 C 453.924 495, 451.575 495.568, 450.571 496.571 C 448.619 498.524, 448.618 499.009, 450.557 501.777 C 452.306 504.275, 458.688 504.912, 460.800 502.800 C 461.733 501.867, 462 501.867, 462 502.800 C 462 503.460, 462.450 504, 463 504 C 463.569 504, 464 501.052, 464 497.155 C 464 491.794, 463.604 489.951, 462.171 488.655 C 460.135 486.812, 454.453 486.506, 451.729 488.092 M 478 495.500 C 478 502.389, 478.284 504, 479.500 504 C 480.548 504, 481 502.944, 481 500.500 C 481 497.740, 481.398 497, 482.881 497 C 483.916 497, 485.964 498.575, 487.432 500.500 C 488.900 502.425, 490.808 504, 491.671 504 C 492.791 504, 492.214 502.747, 489.662 499.632 L 486.082 495.264 489.619 491.132 C 492.047 488.296, 492.676 487, 491.625 487 C 490.783 487, 488.648 488.800, 486.880 491 C 485.112 493.200, 483.066 495, 482.333 495 C 481.445 495, 481 493.666, 481 491 C 481 488.111, 480.583 487, 479.500 487 C 478.284 487, 478 488.611, 478 495.500 M 495.589 490.077 C 494.165 491.769, 493 494.209, 493 495.500 C 493 496.791, 494.165 499.231, 495.589 500.923 C 500.889 507.223, 511 503.665, 511 495.500 C 511 487.335, 500.889 483.777, 495.589 490.077 M 512 488 C 512 488.550, 513.350 489, 515 489 L 518 489 518 496.500 C 518 502.500, 518.300 504, 519.500 504 C 520.700 504, 521 502.500, 521 496.500 L 521 489 524 489 C 525.650 489, 527 488.550, 527 488 C 527 487.422, 523.833 487, 519.500 487 C 515.167 487, 512 487.422, 512 488 M 529.589 490.077 C 528.165 491.769, 527 494.209, 527 495.500 C 527 496.791, 528.165 499.231, 529.589 500.923 C 534.889 507.223, 545 503.665, 545 495.500 C 545 487.335, 534.889 483.777, 529.589 490.077 M 550 498.500 C 550 508.056, 550.254 510, 551.500 510 C 552.595 510, 553 508.867, 553 505.800 C 553 502.533, 553.267 501.867, 554.200 502.800 C 555.639 504.239, 561.420 504.381, 563.929 503.038 C 566.391 501.720, 568.362 496.580, 567.588 493.494 C 566.561 489.403, 563.457 487, 559.200 487 C 557.110 487, 554.860 487.540, 554.200 488.200 C 553.267 489.133, 553 489.133, 553 488.200 C 553 487.540, 552.325 487, 551.500 487 C 550.254 487, 550 488.944, 550 498.500 M 572 495.500 L 572 504 577.345 504 C 584.797 504, 587.864 500.351, 584.965 494.934 C 584.179 493.465, 582.856 493, 579.465 493 C 575.171 493, 575 492.885, 575 490 C 575 488, 574.500 487, 573.500 487 C 572.284 487, 572 488.611, 572 495.500 M 588 495.500 C 588 502.389, 588.284 504, 589.500 504 C 590.716 504, 591 502.389, 591 495.500 C 591 488.611, 590.716 487, 589.500 487 C 588.284 487, 588 488.611, 588 495.500 M 597 495.500 C 597 501.891, 597.329 504, 598.325 504 C 599.054 504, 602.092 500.988, 605.075 497.306 L 610.500 490.612 610.796 497.306 C 611.224 507.013, 613 505.558, 613 495.500 C 613 489.365, 612.652 487.001, 611.750 487.004 C 611.063 487.006, 608.250 489.795, 605.500 493.203 L 600.500 499.398 600.202 493.199 C 599.981 488.583, 599.534 487, 598.452 487 C 597.296 487, 597 488.735, 597 495.500 M 628 491.375 C 628 497.741, 626.948 502, 625.375 502 C 624.514 502, 624 503.121, 624 505 C 624 506.650, 624.450 508, 625 508 C 625.550 508, 626 507.100, 626 506 C 626 504.178, 626.667 504, 633.500 504 C 640.333 504, 641 504.178, 641 506 C 641 507.111, 641.667 508, 642.500 508 C 643.500 508, 644 507, 644 505 C 644 503, 643.500 502, 642.500 502 C 641.300 502, 641 500.500, 641 494.500 L 641 487 634.500 487 L 628 487 628 491.375 M 648.589 490.077 C 647.165 491.769, 646 494.209, 646 495.500 C 646 496.791, 647.165 499.231, 648.589 500.923 C 653.889 507.223, 664 503.665, 664 495.500 C 664 487.335, 653.889 483.777, 648.589 490.077 M 668 495.500 L 668 504 673.929 504 C 681.891 504, 685.420 500.563, 681.492 496.635 C 680.558 495.701, 680.368 494.891, 680.992 494.505 C 682.381 493.647, 682.259 489.659, 680.800 488.200 C 680.140 487.540, 676.990 487, 673.800 487 L 668 487 668 495.500 M 690.229 487.669 C 688.581 488.332, 686 493.340, 686 495.874 C 686 496.959, 687.165 499.231, 688.589 500.923 C 690.739 503.478, 691.905 504, 695.466 504 C 698.089 504, 700.247 503.408, 701.020 502.476 C 702.554 500.628, 701.452 499.148, 699.783 500.817 C 697.142 503.458, 689 501.083, 689 497.671 C 689 497.302, 692.150 497, 696 497 C 702.694 497, 703 496.896, 703 494.635 C 703 493.334, 702.067 491.084, 700.927 489.635 C 699.329 487.602, 698.014 487.018, 695.177 487.079 C 693.155 487.122, 690.928 487.388, 690.229 487.669 M 708 498.500 C 708 508.056, 708.254 510, 709.500 510 C 710.595 510, 711 508.867, 711 505.800 C 711 502.533, 711.267 501.867, 712.200 502.800 C 713.639 504.239, 719.420 504.381, 721.929 503.038 C 724.391 501.720, 726.362 496.580, 725.588 493.494 C 724.561 489.403, 721.457 487, 717.200 487 C 715.110 487, 712.860 487.540, 712.200 488.200 C 711.267 489.133, 711 489.133, 711 488.200 C 711 487.540, 710.325 487, 709.500 487 C 708.254 487, 708 488.944, 708 498.500 M 729.571 488.571 C 727.361 490.781, 727.562 495.709, 729.922 497.183 C 731.813 498.364, 731.812 498.424, 729.850 500.918 C 728.619 502.483, 728.279 503.593, 728.960 503.820 C 729.567 504.022, 730.982 503.021, 732.105 501.594 C 733.471 499.857, 735.113 499, 737.073 499 C 739.528 499, 740 499.403, 740 501.500 C 740 502.875, 740.450 504, 741 504 C 741.588 504, 742 500.500, 742 495.500 L 742 487 736.571 487 C 732.970 487, 730.614 487.529, 729.571 488.571 M 749 495.500 C 749 502.389, 749.284 504, 750.500 504 C 751.548 504, 752 502.944, 752 500.500 C 752 498.056, 752.452 497, 753.500 497 C 754.325 497, 755 497.470, 755 498.045 C 755 498.620, 756.105 500.195, 757.455 501.545 C 760.973 505.064, 767.087 504.976, 769.927 501.365 C 774.765 495.215, 771.169 487, 763.640 487 C 759.664 487, 755 490.484, 755 493.455 C 755 494.305, 754.325 495, 753.500 495 C 752.417 495, 752 493.889, 752 491 C 752 488.111, 751.583 487, 750.500 487 C 749.284 487, 749 488.611, 749 495.500 M 773 488 C 773 488.550, 774.350 489, 776 489 L 779 489 779 496.500 C 779 502.500, 779.300 504, 780.500 504 C 781.700 504, 782 502.500, 782 496.500 L 782 489 785 489 C 786.650 489, 788 488.550, 788 488 C 788 487.422, 784.833 487, 780.500 487 C 776.167 487, 773 487.422, 773 488 M 497.655 490.829 C 493.938 494.936, 496.747 502.018, 502.079 501.985 C 505.085 501.966, 506.365 501.137, 507.906 498.212 C 511.177 492.003, 502.348 485.643, 497.655 490.829 M 531.655 490.829 C 527.938 494.936, 530.747 502.018, 536.079 501.985 C 539.085 501.966, 540.365 501.137, 541.906 498.212 C 545.177 492.003, 536.348 485.643, 531.655 490.829 M 554.655 490.829 C 552.458 493.256, 552.550 498.283, 554.829 500.345 C 558.982 504.104, 565 501.134, 565 495.326 C 565 489.758, 558.271 486.833, 554.655 490.829 M 630.509 493.750 C 630.172 496.363, 629.736 499.288, 629.542 500.250 C 629.243 501.727, 629.953 502, 634.094 502 L 639 502 639 495.500 L 639 489 635.061 489 L 631.123 489 630.509 493.750 M 650.655 490.829 C 646.938 494.936, 649.747 502.018, 655.079 501.985 C 658.085 501.966, 659.365 501.137, 660.906 498.212 C 664.177 492.003, 655.348 485.643, 650.655 490.829 M 671 492 C 671 494.650, 671.341 495, 673.929 495 C 677.313 495, 680.172 492.612, 679.351 490.471 C 678.987 489.525, 677.397 489, 674.893 489 C 671.234 489, 671 489.180, 671 492 M 690.655 490.829 C 687.691 494.104, 688.624 495, 695 495 C 698.300 495, 701 494.650, 701 494.223 C 701 493.795, 700.299 492.445, 699.443 491.223 C 697.521 488.478, 692.967 488.274, 690.655 490.829 M 712.655 490.829 C 710.458 493.256, 710.550 498.283, 712.829 500.345 C 716.982 504.104, 723 501.134, 723 495.326 C 723 489.758, 716.271 486.833, 712.655 490.829 M 731.040 490.452 C 728.368 493.671, 731.735 496.950, 737.750 496.986 C 739.711 496.998, 740 496.486, 740 493 C 740 489.021, 739.980 489, 736.122 489 C 733.953 489, 731.714 489.639, 731.040 490.452 M 760.313 489.786 C 757.090 491.835, 757.082 499.161, 760.300 501.206 C 764.312 503.757, 770 500.411, 770 495.500 C 770 490.597, 764.313 487.242, 760.313 489.786 M 575 498.500 C 575 501.824, 575.174 502, 578.450 502 C 582.414 502, 584.414 499.641, 582.880 496.776 C 582.250 495.599, 580.760 495, 578.465 495 C 575.172 495, 575 495.173, 575 498.500 M 452.380 498.452 C 451.518 500.699, 452.840 502, 455.988 502 C 458.772 502, 462 499.814, 462 497.929 C 462 496.334, 453.005 496.824, 452.380 498.452 M 671 499.500 C 671 501.958, 671.255 502.097, 675.250 501.807 C 678.731 501.556, 679.500 501.138, 679.500 499.500 C 679.500 497.862, 678.731 497.444, 675.250 497.193 C 671.255 496.903, 671 497.042, 671 499.500" stroke="none" fill="#000000" fill-rule="evenodd"/></svg>