<?xml version="1.0" standalone="no"?>
<!DOCTYPE svg PUBLIC "-//W3C//DTD SVG 20010904//EN"
 "http://www.w3.org/TR/2001/REC-SVG-20010904/DTD/svg10.dtd">
<svg version="1.0" xmlns="http://www.w3.org/2000/svg"
 width="883.000000pt" height="473.000000pt" viewBox="0 0 883.000000 473.000000"
 preserveAspectRatio="xMidYMid meet">
<metadata>
Created by potrace 1.16, written by Peter Selinger 2001-2019
</metadata>
<g transform="translate(0.000000,473.000000) scale(0.100000,-0.100000)"
fill="#000000" stroke="none">
<path d="M3390 4415 c0 -173 2 -315 5 -315 2 0 25 33 51 73 60 92 177 209 278
276 140 95 344 183 534 231 31 8 42 16 42 30 0 20 -10 20 -455 20 l-455 0 0
-315z"/>
<path d="M4670 4704 c-309 -37 -604 -122 -790 -227 -182 -102 -373 -274 -460
-414 l-45 -72 -372 -1 -373 0 0 -450 0 -450 380 0 380 0 0 -390 0 -390 453 2
452 3 3 32 3 31 62 -28 c221 -100 560 -137 797 -86 494 106 870 454 997 923
25 91 27 113 27 298 0 185 -2 207 -27 298 -32 119 -107 279 -179 384 -174 253
-467 442 -803 518 -68 16 -422 29 -505 19z m425 -46 c290 -44 588 -224 771
-467 429 -570 275 -1336 -341 -1699 -305 -179 -666 -217 -1019 -105 -91 29
-218 90 -256 123 l-25 22 32 -21 c17 -12 34 -21 37 -21 3 0 6 135 6 300 l0
300 375 0 375 0 0 450 0 450 -385 0 -385 0 6 28 c29 125 97 261 181 365 90
111 257 232 390 282 40 15 109 13 238 -7z m-417 -32 c-290 -131 -483 -336
-581 -618 -6 -17 -28 -18 -272 -18 l-266 0 15 28 c30 58 112 160 191 238 207
203 512 345 854 399 159 25 168 20 59 -29z m-721 -1551 c111 -33 208 -129 243
-244 24 -77 25 -126 4 -203 -16 -56 -16 -59 2 -81 14 -17 13 -17 -9 3 l-27 25
16 50 c35 114 -1 260 -86 345 -92 92 -250 126 -372 80 -78 -29 -150 -96 -190
-177 -28 -57 -32 -75 -32 -147 0 -107 33 -185 111 -256 75 -69 144 -93 253
-88 95 4 148 24 218 83 22 20 43 31 47 26 3 -6 40 -33 81 -60 42 -28 72 -51
67 -51 -12 0 -103 57 -130 82 l-22 20 -44 -36 c-122 -100 -297 -113 -426 -32
-52 33 -118 109 -144 164 -31 68 -31 227 0 294 76 164 270 253 440 203z m-16
-100 c62 -21 109 -63 144 -126 59 -106 33 -246 -59 -325 -171 -146 -436 -24
-436 201 0 184 177 309 351 250z"/>
<path d="M0 2102 c0 -4 26 -13 58 -20 247 -51 461 -294 557 -631 96 -335 281
-584 524 -705 130 -65 288 -100 191 -43 -53 32 -152 130 -213 212 -104 140
-211 382 -267 607 -27 104 -95 247 -153 317 -141 170 -368 271 -609 271 -49 0
-88 -4 -88 -8z"/>
<path d="M8765 2095 c-151 -41 -254 -102 -376 -224 -139 -140 -225 -284 -289
-486 -57 -181 -99 -280 -158 -370 -108 -166 -264 -286 -413 -317 -98 -20 -70
-31 64 -25 224 11 374 73 518 217 76 75 93 100 137 191 28 58 62 150 77 209
73 285 200 532 353 685 38 39 88 81 111 95 22 14 41 28 41 33 0 9 -4 9 -65 -8z"/>
<path d="M6940 1804 c-232 -61 -375 -255 -374 -504 2 -155 51 -270 161 -370
97 -89 208 -130 350 -130 298 0 507 215 505 520 -1 205 -95 361 -269 449 -101
50 -259 65 -373 35z m236 -82 c53 -27 110 -91 140 -157 72 -156 71 -412 0
-553 -84 -166 -284 -189 -413 -49 -50 54 -64 81 -92 171 -57 185 -28 416 66
526 53 62 122 92 198 87 34 -2 79 -14 101 -25z"/>
<path d="M3890 1643 c0 -21 -3 -68 -7 -105 -6 -67 -6 -68 19 -68 20 0 27 7 37
41 21 69 49 89 126 89 l65 0 0 -280 c0 -267 -1 -281 -20 -300 -11 -11 -33 -20
-50 -20 -25 0 -30 -4 -30 -25 l0 -25 170 0 170 0 0 25 c0 21 -5 25 -28 25 -15
0 -38 7 -50 16 -22 15 -22 17 -22 300 l0 284 65 0 c76 0 93 -12 120 -84 15
-38 22 -46 43 -46 22 0 24 3 18 31 -3 17 -6 65 -6 105 0 72 -1 74 -24 74 -14
0 -28 -4 -31 -10 -4 -6 -100 -10 -255 -10 -155 0 -251 4 -255 10 -3 6 -17 10
-31 10 -21 0 -24 -4 -24 -37z"/>
<path d="M2563 1656 c-103 -33 -179 -102 -225 -202 -33 -70 -33 -236 0 -307
30 -66 101 -138 169 -173 54 -27 66 -29 168 -29 92 0 118 4 157 22 71 32 141
103 174 176 26 56 29 72 29 167 0 125 -17 171 -91 250 -69 74 -137 103 -249
107 -57 2 -105 -2 -132 -11z m172 -55 c81 -38 129 -118 145 -243 17 -141 -14
-264 -83 -325 -84 -73 -202 -49 -268 54 -43 69 -59 133 -59 239 0 141 41 233
122 273 53 26 90 26 143 2z"/>
<path d="M4843 1656 c-60 -19 -137 -71 -168 -112 -14 -19 -38 -60 -53 -92 -23
-49 -27 -70 -27 -152 0 -88 3 -101 33 -162 38 -77 92 -130 171 -167 49 -23 68
-26 161 -26 93 0 112 3 161 26 72 34 134 96 168 168 23 50 26 68 26 171 0 112
-1 117 -34 178 -38 71 -92 120 -167 154 -61 27 -207 35 -271 14z m204 -68 c80
-54 117 -150 116 -303 0 -157 -35 -239 -117 -276 -109 -49 -214 7 -269 145
-29 71 -31 259 -4 326 21 52 69 106 112 126 41 19 119 10 162 -18z"/>
<path d="M1470 1635 c0 -21 5 -25 29 -25 67 0 74 -32 69 -348 -3 -218 -4 -235
-22 -248 -11 -8 -32 -14 -48 -14 -23 0 -28 -4 -28 -25 l0 -25 169 0 c259 0
370 29 462 121 62 62 92 137 97 239 5 106 -18 175 -80 239 -83 87 -185 111
-474 111 l-174 0 0 -25z m436 -54 c53 -24 108 -90 125 -149 8 -26 14 -87 13
-137 -1 -136 -47 -223 -139 -266 -55 -25 -145 -25 -176 0 -24 19 -24 20 -27
268 -2 155 1 259 7 276 10 26 13 27 83 27 49 0 86 -6 114 -19z"/>
<path d="M3130 1635 c0 -19 5 -25 23 -25 12 0 33 -7 45 -16 22 -15 22 -17 22
-289 0 -272 0 -274 -22 -289 -12 -9 -33 -16 -45 -16 -18 0 -23 -6 -23 -25 l0
-25 160 0 160 0 0 25 c0 19 -5 25 -23 25 -12 0 -33 7 -45 16 -21 14 -22 22
-22 145 0 100 3 130 13 127 6 -3 70 -80 141 -171 l128 -167 104 0 104 0 0 25
c0 20 -5 25 -25 25 -13 0 -39 13 -58 29 -34 30 -273 329 -271 338 5 14 203
207 225 219 15 7 45 16 68 20 35 6 41 10 41 30 l0 24 -145 0 -145 0 0 -25 c0
-19 5 -25 23 -25 12 0 28 -4 36 -9 12 -8 12 -13 -3 -36 -26 -40 -210 -225
-224 -225 -9 0 -12 34 -12 119 0 113 1 121 22 135 12 9 33 16 45 16 18 0 23 6
23 25 l0 25 -160 0 -160 0 0 -25z"/>
<path d="M5410 1638 c0 -20 7 -26 42 -34 33 -7 44 -15 49 -34 4 -14 7 -133 7
-265 0 -132 -3 -251 -7 -265 -5 -19 -16 -27 -49 -34 -34 -8 -42 -14 -42 -33
l0 -23 160 0 160 0 0 25 c0 19 -5 25 -23 25 -13 0 -32 6 -43 14 -16 12 -19 29
-22 126 l-4 111 38 -3 c37 -3 41 -7 101 -108 94 -156 139 -190 256 -190 36 0
49 4 54 17 4 10 1 18 -8 21 -29 9 -116 110 -172 200 -31 51 -57 96 -57 100 0
4 16 16 36 27 100 54 122 207 41 283 -51 48 -89 55 -309 60 l-208 4 0 -24z
m361 -54 c66 -33 80 -175 24 -234 -29 -31 -78 -50 -127 -50 l-28 0 0 145 c0
142 1 146 23 155 25 10 70 4 108 -16z"/>
<path d="M6160 1205 l0 -55 130 0 130 0 0 55 0 55 -130 0 -130 0 0 -55z"/>
<path d="M3615 416 c-66 -30 -95 -92 -95 -204 0 -132 53 -206 149 -206 60 0
94 21 121 75 25 49 23 57 -17 74 -31 13 -32 12 -42 -15 -12 -36 -53 -64 -81
-55 -37 12 -54 52 -54 129 0 39 6 81 12 93 29 52 91 54 117 4 13 -27 18 -29
46 -21 18 5 34 12 38 15 9 10 -32 77 -60 97 -34 25 -96 32 -134 14z"/>
<path d="M4692 423 c-36 -7 -87 -66 -102 -117 -19 -68 -9 -184 20 -231 62
-101 214 -89 250 20 14 41 10 50 -29 63 -28 10 -31 9 -41 -22 -6 -18 -21 -39
-34 -46 -57 -30 -99 25 -99 132 0 76 18 114 58 124 29 7 75 -18 75 -41 0 -21
15 -26 49 -14 36 13 37 18 14 66 -25 53 -90 80 -161 66z"/>
<path d="M2380 215 l0 -205 35 0 34 0 3 128 3 127 25 -125 26 -125 36 -3 36
-3 12 58 c7 32 20 94 30 138 l18 80 1 -137 1 -138 35 0 35 0 0 205 0 205 -55
0 c-62 0 -53 16 -90 -154 l-22 -101 -11 55 c-7 30 -19 88 -28 128 l-16 72 -54
0 -54 0 0 -205z"/>
<path d="M2760 215 l0 -205 130 0 130 0 0 40 0 40 -90 0 -90 0 0 50 0 50 80 0
80 0 0 35 0 35 -80 0 -80 0 0 40 0 39 88 3 87 3 3 38 3 37 -130 0 -131 0 0
-205z"/>
<path d="M3070 216 l0 -206 83 0 c142 0 187 41 195 179 5 92 -9 151 -48 194
-28 31 -30 32 -129 35 l-101 4 0 -206z m178 103 c35 -37 36 -173 2 -214 -8
-10 -30 -15 -61 -15 l-49 0 0 125 0 125 45 0 c32 0 50 -6 63 -21z"/>
<path d="M3400 215 l0 -205 35 0 35 0 0 205 0 205 -35 0 -35 0 0 -205z"/>
<path d="M3892 227 c-34 -107 -62 -200 -62 -206 0 -8 14 -11 37 -9 33 3 38 7
51 46 l14 42 63 0 62 0 13 -45 c12 -43 14 -45 51 -45 25 0 39 5 39 13 -1 6
-29 98 -63 202 l-63 190 -40 3 -40 3 -62 -194z"/>
<path d="M4190 215 l0 -205 120 0 120 0 0 40 0 40 -80 0 -80 0 0 165 0 165
-40 0 -40 0 0 -205z"/>
<path d="M4920 215 l0 -205 130 0 130 0 0 40 0 40 -90 0 -90 0 0 50 0 50 80 0
80 0 0 35 0 35 -80 0 -80 0 0 40 0 40 85 0 85 0 0 40 0 40 -125 0 -125 0 0
-205z"/>
<path d="M5230 215 l0 -205 35 0 35 0 1 118 0 117 60 -117 59 -118 40 0 40 0
0 205 0 205 -35 0 -35 0 -1 -127 0 -128 -65 128 c-64 126 -64 127 -99 127
l-35 0 0 -205z"/>
<path d="M5530 380 l0 -40 50 0 50 0 0 -165 0 -165 40 0 40 0 0 165 0 165 45
0 45 0 0 40 0 40 -135 0 -135 0 0 -40z"/>
<path d="M5840 215 l0 -205 130 0 130 0 0 40 0 40 -95 0 -95 0 0 50 0 50 85 0
85 0 0 35 0 35 -85 0 -85 0 0 40 0 40 90 0 90 0 0 40 0 40 -125 0 -125 0 0
-205z"/>
<path d="M6140 215 l0 -205 40 0 40 0 0 85 c0 47 4 85 9 85 27 0 46 -20 87
-91 l46 -79 44 0 44 0 -31 63 c-17 34 -40 74 -51 89 -18 27 -18 27 2 38 45 24
64 113 36 169 -21 40 -56 51 -166 51 l-100 0 0 -205z"/>
</g>
</svg>
