<?xml version="1.0" standalone="no"?>
<!DOCTYPE svg PUBLIC "-//W3C//DTD SVG 20010904//EN"
 "http://www.w3.org/TR/2001/REC-SVG-20010904/DTD/svg10.dtd">
<svg version="1.0" xmlns="http://www.w3.org/2000/svg"
 width="800.000000pt" height="932.000000pt" viewBox="0 0 800.000000 932.000000"
 preserveAspectRatio="xMidYMid meet">

<g transform="translate(0.000000,932.000000) scale(0.100000,-0.100000)"
fill="#000000" stroke="none">
<path d="M3096 9049 c-211 -29 -373 -76 -528 -155 -532 -268 -844 -762 -797
-1263 38 -409 206 -682 1268 -2054 562 -726 728 -947 851 -1130 47 -69 90
-126 97 -127 24 0 75 55 179 193 177 235 288 363 478 553 156 155 265 255 566
514 625 539 848 775 1047 1109 100 168 167 342 205 533 26 133 31 391 9 493
-63 297 -212 510 -463 664 -252 154 -605 217 -883 157 -169 -36 -374 -126
-602 -264 -81 -49 -165 -95 -187 -102 -34 -11 -41 -10 -65 7 -14 11 -66 92
-116 180 -119 213 -183 308 -268 399 -145 156 -275 231 -474 274 -118 25 -225
32 -317 19z m598 -597 c88 -41 167 -120 209 -209 43 -93 50 -219 17 -317 -103
-311 -506 -396 -726 -153 -207 230 -113 592 182 697 48 17 76 20 155 17 82 -3
106 -8 163 -35z m1212 -419 c53 -20 85 -43 136 -93 62 -60 84 -71 98 -49 3 5
30 -3 59 -17 29 -14 62 -23 73 -21 14 4 18 2 14 -9 -3 -8 1 -14 10 -14 28 0
164 -118 164 -143 0 -9 2 -9 8 0 5 8 15 -5 29 -35 28 -61 36 -85 35 -94 -1 -4
10 -31 25 -60 43 -85 61 -189 62 -354 1 -61 -2 -114 -6 -118 -5 -4 -8 -29 -9
-54 0 -26 -4 -65 -9 -87 -4 -22 -7 -48 -7 -57 1 -10 -3 -18 -7 -18 -5 0 -11
-19 -15 -42 -6 -40 -27 -112 -43 -148 -4 -8 -7 -23 -8 -33 -1 -10 -7 -28 -13
-40 -36 -72 -103 -221 -108 -241 -3 -13 -17 -34 -30 -47 -13 -12 -24 -28 -24
-35 0 -18 -70 -134 -81 -134 -5 0 -9 -6 -9 -13 0 -13 -27 -47 -148 -184 -25
-30 -54 -53 -65 -53 -15 0 -18 -5 -15 -25 3 -14 1 -26 -3 -26 -5 -1 -15 -2
-21 -3 -7 -1 -12 -9 -10 -19 3 -20 -23 -24 -32 -4 -3 6 -4 3 -3 -8 1 -11 -3
-19 -10 -18 -6 2 -21 -10 -33 -25 -52 -68 -125 -148 -255 -278 -144 -144 -353
-329 -362 -320 -3 2 6 44 20 93 35 126 46 173 52 234 l6 54 -22 -34 c-13 -19
-25 -29 -27 -22 -3 9 -23 10 -71 6 -60 -6 -71 -4 -121 23 -30 16 -67 32 -81
35 -25 6 -151 92 -157 107 -1 4 -15 21 -30 38 -39 43 -132 241 -124 264 1 4
-3 20 -9 35 -42 111 -24 510 32 671 10 30 19 62 19 70 0 9 8 24 17 34 15 17
15 21 3 29 -13 8 -13 11 3 23 9 7 17 21 17 31 0 14 -10 7 -37 -25 -156 -179
-241 -363 -282 -605 -26 -151 -34 -319 -22 -450 6 -60 13 -139 16 -175 l6 -65
-23 26 c-76 85 -238 296 -315 410 -256 383 -384 709 -400 1014 -25 473 286
706 739 555 138 -46 346 -156 467 -247 24 -18 47 -33 52 -33 4 0 23 26 43 58
19 31 71 96 115 145 45 48 81 92 81 97 0 6 10 15 23 21 19 9 22 16 19 55 -5
62 15 169 43 232 30 65 119 160 184 195 117 64 250 71 377 20z m224 -127 c0
-9 -30 -14 -35 -6 -4 6 3 10 14 10 12 0 21 -2 21 -4z"/>
<path d="M4325 5490 c-3 -5 -1 -10 4 -10 6 0 11 5 11 10 0 6 -2 10 -4 10 -3 0
-8 -4 -11 -10z"/>
<path d="M330 7835 c34 -35 53 -48 30 -20 -18 21 -3 19 31 -6 16 -11 27 -25
24 -30 -4 -5 1 -6 10 -3 13 5 5 14 -31 40 -26 18 -50 31 -54 29 -4 -3 -10 2
-14 10 -3 8 -11 15 -18 15 -6 0 3 -16 22 -35z"/>
<path d="M415 7738 c26 -32 51 -55 56 -52 12 7 11 15 0 12 -6 -2 -31 20 -56
47 l-47 50 47 -57z"/>
<path d="M469 7761 c13 -12 18 -21 12 -21 -7 0 -9 -5 -6 -10 4 -6 12 -10 18
-9 25 3 37 -1 37 -14 0 -7 9 -13 20 -13 11 0 20 1 20 3 0 1 -28 21 -62 43 -35
23 -52 32 -39 21z"/>
<path d="M580 7683 c0 -4 17 -19 37 -32 28 -18 33 -25 22 -32 -8 -5 -9 -9 -4
-9 6 0 16 4 24 9 10 6 2 17 -33 40 -25 18 -46 28 -46 24z"/>
<path d="M490 7645 c13 -14 26 -25 28 -25 3 0 -5 11 -18 25 -13 14 -26 25 -28
25 -3 0 5 -11 18 -25z"/>
<path d="M525 7640 c3 -5 11 -10 16 -10 6 0 7 5 4 10 -3 6 -11 10 -16 10 -6 0
-7 -4 -4 -10z"/>
<path d="M687 7600 c3 -11 14 -22 25 -26 31 -9 30 0 -1 24 -27 20 -29 20 -24
2z"/>
<path d="M539 7586 c27 -29 33 -32 25 -13 -2 7 -14 19 -27 26 -21 13 -21 12 2
-13z"/>
<path d="M590 7549 c0 -5 -5 -7 -12 -3 -7 4 14 -24 47 -64 56 -68 75 -88 59
-59 -4 6 -24 32 -44 57 -21 25 -36 53 -34 63 1 9 -2 17 -7 17 -5 0 -9 -5 -9
-11z"/>
<path d="M790 7530 c0 -5 10 -15 23 -21 22 -12 22 -12 3 10 -21 23 -26 26 -26
11z"/>
<path d="M850 7439 c0 -5 5 -7 10 -4 6 3 10 8 10 11 0 2 -4 4 -10 4 -5 0 -10
-5 -10 -11z"/>
<path d="M880 7420 c0 -5 5 -10 10 -10 6 0 10 5 10 10 0 6 -4 10 -10 10 -5 0
-10 -4 -10 -10z"/>
<path d="M933 7417 c0 -8 6 -14 14 -14 9 0 10 4 2 14 -6 7 -12 13 -14 13 -1 0
-2 -6 -2 -13z"/>
<path d="M970 7395 c0 -4 8 -14 18 -21 10 -8 12 -13 5 -14 -15 0 -18 -20 -4
-20 19 0 19 29 0 46 -10 9 -19 14 -19 9z"/>
<path d="M725 7360 c10 -11 20 -20 23 -20 3 0 -3 9 -13 20 -10 11 -20 20 -23
20 -3 0 3 -9 13 -20z"/>
<path d="M790 7350 c6 -11 12 -20 14 -20 2 0 2 9 -1 20 -3 11 -9 20 -15 20 -5
0 -4 -9 2 -20z"/>
<path d="M925 7350 c-3 -5 -1 -10 4 -10 6 0 11 5 11 10 0 6 -2 10 -4 10 -3 0
-8 -4 -11 -10z"/>
<path d="M1039 7334 c16 -12 20 -19 12 -27 -14 -14 -14 -37 -1 -37 6 0 10 9
10 20 0 11 3 20 6 20 5 0 191 -156 214 -180 22 -22 130 -111 130 -106 0 9
-373 326 -384 326 -6 0 0 -7 13 -16z"/>
<path d="M765 7310 c10 -11 20 -20 23 -20 3 0 -3 9 -13 20 -10 11 -20 20 -23
20 -3 0 3 -9 13 -20z"/>
<path d="M820 7242 c17 -23 36 -40 41 -36 12 7 12 15 0 12 -6 -2 -24 13 -41
32 l-32 35 32 -43z"/>
<path d="M1088 7243 c7 -3 16 -2 19 1 4 3 -2 6 -13 5 -11 0 -14 -3 -6 -6z"/>
<path d="M860 7186 c0 -2 8 -10 18 -17 15 -13 16 -12 3 4 -13 16 -21 21 -21
13z"/>
<path d="M900 7144 c0 -5 7 -18 15 -28 8 -11 15 -16 15 -10 0 5 -7 18 -15 28
-8 11 -15 16 -15 10z"/>
<path d="M979 7038 c24 -32 46 -58 48 -58 3 0 -7 16 -21 35 -16 20 -24 41 -20
48 4 6 3 9 -1 4 -5 -4 -17 1 -28 10 -11 10 -1 -8 22 -39z"/>
<path d="M1416 7002 c-3 -5 1 -9 9 -9 8 0 12 4 9 9 -3 4 -7 8 -9 8 -2 0 -6 -4
-9 -8z"/>
<path d="M1102 6878 c89 -115 91 -118 82 -94 -4 11 -16 28 -26 38 -10 10 -16
23 -13 28 3 5 -3 11 -12 14 -10 4 -34 29 -53 56 -19 27 -38 50 -43 50 -4 0 25
-42 65 -92z"/>
<path d="M1430 6960 c0 -5 5 -10 10 -10 6 0 10 5 10 10 0 6 -4 10 -10 10 -5 0
-10 -4 -10 -10z"/>
<path d="M1476 6958 c3 -11 1 -18 -6 -18 -6 0 -8 -5 -4 -11 4 -8 9 -7 15 2 6
11 16 6 44 -21 19 -18 35 -32 35 -29 0 3 -21 25 -46 49 -25 25 -42 37 -38 28z"/>
<path d="M7085 6875 c-16 -14 -27 -25 -22 -25 4 0 -5 -14 -20 -30 -14 -17 -29
-28 -31 -25 -3 3 3 15 14 26 23 26 -66 -36 -116 -81 l-35 -32 35 23 c19 13 41
29 48 36 15 14 32 17 32 5 0 -15 -60 -63 -71 -57 -6 4 -13 -2 -16 -14 -6 -25
-33 -28 -33 -5 0 14 -3 14 -15 4 -8 -7 -15 -19 -15 -26 0 -8 -4 -14 -10 -14
-5 0 -10 -8 -11 -17 0 -12 -2 -13 -6 -5 -3 7 1 20 9 29 7 10 -4 4 -25 -12 -25
-18 -34 -31 -26 -35 7 -5 8 -10 1 -14 -6 -3 -12 0 -15 6 -3 10 -10 8 -25 -6
-12 -10 -19 -23 -15 -29 3 -6 1 -7 -6 -3 -13 9 -188 -121 -183 -136 1 -5 -1
-7 -6 -4 -7 4 -245 -173 -333 -248 -10 -8 -48 -38 -85 -67 -206 -161 -590
-483 -799 -672 -163 -147 -512 -503 -620 -632 -324 -387 -504 -718 -561 -1032
-16 -90 -33 -116 -48 -77 -6 16 -476 721 -559 839 -376 535 -731 1002 -981
1296 -17 19 -42 49 -55 65 -179 218 -529 596 -544 587 -6 -4 -7 -1 -2 6 8 13
-324 355 -334 345 -3 -3 8 -18 24 -33 17 -15 41 -40 55 -56 l25 -28 -25 13
c-14 8 -27 13 -30 13 -12 -2 -31 15 -34 30 -4 31 -16 30 -16 0 0 -17 6 -33 13
-36 6 -2 8 -8 4 -13 -4 -5 -11 -3 -15 3 -10 16 -404 23 -398 8 2 -5 9 -9 15
-7 7 1 10 -2 6 -7 -3 -6 46 -79 108 -163 434 -582 990 -1417 1430 -2148 378
-628 767 -1329 1156 -2080 73 -140 136 -259 140 -263 5 -4 11 22 15 59 11 108
64 377 108 549 205 805 612 1572 1274 2400 233 290 613 720 899 1015 61 63
193 200 293 303 105 108 180 193 176 199 -4 6 -3 8 3 5 12 -7 46 26 38 36 -3
4 -2 5 2 2 9 -7 213 196 207 206 -2 4 4 10 15 14 11 3 22 12 25 20 7 19 7 19
-29 -10z m-80 -85 c3 -5 1 -10 -4 -10 -6 0 -11 5 -11 10 0 6 2 10 4 10 3 0 8
-4 11 -10z m-5731 -59 c3 -5 -1 -14 -8 -20 -12 -10 -13 -8 -9 8 6 23 9 25 17
12z m483 -67 c-9 -9 -57 38 -50 49 3 5 17 -3 31 -17 14 -14 23 -28 19 -32z
m-450 1 c-8 -19 -24 -20 -24 0 0 8 4 12 9 9 4 -3 8 0 8 7 0 7 3 10 6 6 4 -3 4
-13 1 -22z m469 -22 c-10 -10 -19 5 -10 18 6 11 8 11 12 0 2 -7 1 -15 -2 -18z
m67 -66 c-6 -9 -26 11 -43 43 -12 23 -10 23 18 -5 16 -16 28 -33 25 -38z"/>
<path d="M1525 6860 c3 -5 8 -10 11 -10 2 0 4 5 4 10 0 6 -5 10 -11 10 -5 0
-7 -4 -4 -10z"/>
<path d="M1574 6862 c3 -6 -2 -15 -11 -21 -16 -9 -16 -10 -2 -11 20 0 33 27
17 36 -6 4 -8 3 -4 -4z"/>
<path d="M1193 6806 c7 -15 16 -21 21 -16 6 6 4 15 -4 25 -19 23 -29 18 -17
-9z"/>
<path d="M2430 4328 c0 -4 4 -8 9 -8 6 0 12 4 15 8 3 5 -1 9 -9 9 -8 0 -15 -4
-15 -9z"/>
<path d="M2475 4269 c-4 -6 -5 -12 -2 -15 2 -3 7 2 10 11 7 17 1 20 -8 4z"/>
<path d="M2494 4240 c0 -13 4 -16 10 -10 7 7 7 13 0 20 -6 6 -10 3 -10 -10z"/>
<path d="M5137 4243 c-11 -10 -8 -20 7 -26 10 -4 14 0 13 14 -1 20 -9 24 -20
12z"/>
<path d="M7190 4115 c-2 -104 -5 -127 -10 -90 -4 28 -8 40 -8 29 -1 -14 -10
-23 -24 -25 -56 -9 -2058 2 -2058 11 0 7 354 10 1024 10 901 0 1025 2 1030 15
5 13 -113 15 -1024 15 -718 0 -1030 -3 -1030 -11 0 -5 -4 -7 -10 -4 -15 9 -12
41 5 59 21 20 21 43 0 26 -19 -16 -19 -6 1 28 l16 27 -21 -25 c-11 -14 -18
-33 -15 -42 4 -12 0 -18 -10 -18 -9 0 -16 -9 -16 -21 0 -13 -4 -18 -12 -13 -7
4 -10 4 -6 -1 4 -4 -3 -22 -16 -39 -50 -65 -271 -532 -333 -701 -213 -580
-329 -1018 -444 -1670 -16 -93 -32 -180 -34 -193 -11 -48 -9 -51 -260 363
-262 432 -599 998 -889 1493 -27 45 -52 82 -56 82 -4 0 -7 6 -7 13 0 8 -16 40
-35 73 -20 32 -54 91 -77 129 -22 39 -43 68 -47 67 -3 -2 -9 0 -12 4 -4 4 -1
4 7 -1 17 -10 16 -7 -42 93 -27 45 -53 82 -58 82 -5 0 -8 4 -6 8 5 18 -40 85
-66 99 -16 8 -26 17 -23 20 3 3 12 0 21 -7 13 -11 14 -10 9 4 -3 9 -12 16 -20
16 -8 0 -14 5 -14 11 0 5 5 7 12 3 7 -4 8 -3 4 5 -4 6 -11 9 -16 6 -5 -3 -15
3 -22 15 -13 20 -18 20 -890 20 -777 0 -878 -2 -878 -15 0 -13 101 -15 880
-13 777 3 880 1 880 -12 0 -13 -104 -15 -885 -12 l-885 2 0 -25 c0 -14 -4 -25
-10 -25 -5 0 -10 11 -10 25 0 14 5 25 10 25 6 0 10 12 10 26 0 14 -4 23 -10
19 -5 -3 -11 28 -13 77 -1 46 -4 -165 -5 -468 -2 -491 0 -553 14 -558 8 -3
412 -6 897 -6 l882 0 -4 -895 -3 -895 1436 0 1436 0 2 895 3 895 873 0 c780 0
873 1 879 15 3 9 1 264 -4 568 -5 304 -11 489 -13 412z m-2120 -76 c0 -12 -7
-19 -20 -19 -22 0 -26 20 -8 38 15 15 28 6 28 -19z m-2454 -51 c4 -6 3 -8 -3
-5 -6 4 -13 0 -17 -8 -8 -21 -24 -19 -31 5 -9 29 2 42 25 30 10 -6 22 -15 26
-22z m2375 -6 c-6 -2 -8 -9 -5 -14 4 -7 2 -8 -4 -4 -9 5 -8 12 1 27 7 12 13
15 16 7 2 -7 -1 -14 -8 -16z m-2351 -42 c0 -5 -4 -10 -10 -10 -5 0 -10 5 -10
10 0 6 5 10 10 10 6 0 10 -4 10 -10z m2330 -46 c0 -28 -10 -36 -26 -19 -11 11
-12 19 -2 40 13 28 28 17 28 -21z m2219 -11 c-1 -39 -2 -43 -9 -23 -12 36 -12
70 0 70 6 0 10 -21 9 -47z m-4484 -32 c3 -5 1 -12 -5 -16 -5 -3 -10 1 -10 9 0
18 6 21 15 7z"/>
<path d="M2470 4179 c0 -17 4 -28 10 -24 6 3 10 17 10 31 0 13 -4 24 -10 24
-5 0 -10 -14 -10 -31z"/>
<path d="M2537 4186 c4 -13 3 -17 -5 -12 -7 4 -12 1 -12 -8 0 -21 11 -46 20
-46 15 0 17 50 4 67 -13 17 -14 17 -7 -1z"/>
<path d="M2574 4110 c0 -13 4 -16 10 -10 7 7 7 13 0 20 -6 6 -10 3 -10 -10z"/>
<path d="M5025 1035 c-22 -8 -57 -32 -77 -53 -86 -93 -69 -241 34 -294 20 -11
80 -28 135 -39 97 -19 127 -36 116 -65 -16 -42 -135 -33 -155 12 -11 23 -15
24 -105 24 -93 0 -93 0 -93 -25 0 -64 53 -140 125 -178 34 -19 56 -22 155 -22
99 0 121 3 156 22 81 43 122 123 110 212 -13 98 -66 139 -219 167 -49 9 -97
24 -110 35 -20 16 -21 19 -6 34 27 27 80 30 112 5 15 -12 27 -28 27 -36 0 -11
20 -14 96 -14 l97 0 -6 46 c-7 65 -50 123 -116 157 -48 24 -66 27 -145 27 -52
-1 -108 -7 -131 -15z"/>
<path d="M7172 1036 c-77 -25 -134 -76 -180 -161 -25 -45 -27 -59 -27 -155 1
-94 3 -110 27 -155 34 -64 90 -118 153 -147 75 -35 190 -32 267 5 65 32 121
90 151 156 32 68 31 217 -1 286 -29 64 -83 120 -147 153 -61 31 -176 40 -243
18z m183 -209 c56 -56 59 -150 6 -209 -38 -42 -112 -51 -155 -17 -104 82 -55
259 71 259 38 0 51 -6 78 -33z"/>
<path d="M516 792 c-44 -136 -89 -280 -102 -320 l-22 -72 102 0 102 0 15 48
15 47 105 3 105 3 13 -51 13 -50 105 0 c57 0 102 3 100 8 -2 4 -48 148 -103
319 l-99 313 -135 0 -135 0 -79 -248z m233 11 c6 -21 17 -60 26 -88 8 -27 15
-51 15 -52 0 -2 -27 -3 -60 -3 -33 0 -60 1 -60 3 0 1 7 25 15 52 9 28 20 67
26 88 5 20 14 37 19 37 5 0 14 -17 19 -37z"/>
<path d="M1110 720 l0 -320 95 0 95 0 0 151 c0 115 3 150 12 147 7 -3 33 -71
57 -151 l44 -147 78 0 77 0 11 33 c5 17 26 85 46 150 20 64 40 117 46 117 5 0
9 -63 9 -150 l0 -150 95 0 95 0 0 320 0 320 -139 0 -140 0 -26 -87 c-15 -49
-34 -113 -43 -143 -16 -56 -28 -78 -37 -68 -3 2 -25 70 -49 149 l-44 144 -141
3 -141 3 0 -321z"/>
<path d="M1970 720 l0 -320 95 0 95 0 0 320 0 320 -95 0 -95 0 0 -320z"/>
<path d="M2260 720 l0 -320 95 0 94 0 3 90 3 91 68 -91 67 -90 116 0 115 0
-75 89 c-42 49 -76 93 -75 98 0 4 21 22 46 38 57 37 86 89 91 167 8 104 -36
184 -122 224 -48 22 -62 24 -238 24 l-188 0 0 -320z m350 121 c15 -29 12 -49
-10 -71 -16 -16 -33 -20 -85 -20 l-65 0 0 55 0 55 75 0 c63 0 76 -3 85 -19z"/>
<path d="M2890 720 l0 -320 198 0 c170 0 202 3 237 19 71 32 105 86 105 162 0
46 -11 72 -48 111 -23 25 -24 29 -10 45 79 90 58 227 -41 280 -42 22 -54 23
-243 23 l-198 0 0 -320z m334 138 c21 -35 -4 -53 -78 -56 l-66 -3 0 41 0 41
66 -3 c51 -2 70 -7 78 -20z m10 -240 c8 -13 8 -23 0 -35 -9 -14 -28 -19 -83
-21 l-71 -3 0 41 0 41 71 -3 c55 -2 74 -7 83 -20z"/>
<path d="M3510 720 l0 -320 230 0 230 0 0 85 0 84 -132 3 -133 3 -3 33 -3 32
125 0 126 0 0 80 0 80 -125 0 -125 0 0 35 0 35 135 0 135 0 0 85 0 85 -230 0
-230 0 0 -320z"/>
<path d="M4060 720 l0 -320 95 0 94 0 3 137 3 137 76 -135 76 -134 111 -3 111
-3 -94 160 c-52 88 -95 163 -95 167 0 7 116 222 152 282 l20 33 -112 -3 -112
-3 -67 -125 -66 -125 -3 128 -3 127 -94 0 -95 0 0 -320z"/>
<path d="M5510 720 l0 -320 95 0 94 0 3 113 3 112 85 0 85 0 3 -112 3 -113 94
0 95 0 0 320 0 320 -95 0 -95 0 0 -110 0 -110 -90 0 -90 0 0 110 0 110 -95 0
-95 0 0 -320z"/>
<path d="M6170 720 l0 -320 95 0 95 0 0 320 0 320 -95 0 -95 0 0 -320z"/>
<path d="M6460 720 l0 -320 95 0 95 0 0 115 0 115 120 0 120 0 0 80 0 79 -117
3 -118 3 -3 38 -3 37 135 0 136 0 0 85 0 85 -230 0 -230 0 0 -320z"/>
</g>
</svg>
